<svg width="15" height="22" viewBox="0 0 15 22" fill="none" xmlns="http://www.w3.org/2000/svg">
<g clip-path="url(#clip0_326_7)">
<path d="M14.3164 3.06641V18.5449C14.3164 20.5859 13.3008 21.6016 11.2891 21.6016H3.02734C1.00586 21.6016 0 20.5859 0 18.5449V3.06641C0 1.03516 1.00586 0 3.02734 0H11.2891C13.3008 0 14.3164 1.03516 14.3164 3.06641ZM3.45703 12.3535C2.80273 12.3535 2.53906 12.6074 2.53906 13.2617V18.0859C2.53906 18.7402 2.80273 18.9941 3.45703 18.9941H10.8105C11.4746 18.9941 11.7383 18.7402 11.7383 18.0859V13.2617C11.7383 12.6074 11.4746 12.3535 10.8105 12.3535H3.45703Z" fill="#FEFEFA"/>
</g>
<defs>
<clipPath id="clip0_326_7">
<rect width="14.6777" height="21.6113" fill="white"/>
</clipPath>
</defs>
</svg>
