<svg width="15" height="22" viewBox="0 0 15 22" fill="none" xmlns="http://www.w3.org/2000/svg">
<g clip-path="url(#clip0_326_2)">
<path d="M3.02734 21.6016H11.2891C13.3008 21.6016 14.3164 20.5762 14.3164 18.5449V3.06641C14.3164 1.02539 13.3008 0 11.2891 0H3.02734C1.00586 0 0 1.02539 0 3.06641V18.5449C0 20.5762 1.00586 21.6016 3.02734 21.6016ZM3.10547 20.0293C2.08984 20.0293 1.57227 19.4922 1.57227 18.5156V3.0957C1.57227 2.11914 2.08984 1.57227 3.10547 1.57227H11.2012C12.2168 1.57227 12.7441 2.11914 12.7441 3.0957V18.5156C12.7441 19.4922 12.2168 20.0293 11.2012 20.0293H3.10547Z" fill="#2F2F2F"/>
<path d="M3.75977 9.0625H10.5078C11.1328 9.0625 11.3867 8.81836 11.3867 8.20312V3.76953C11.3867 3.1543 11.1328 2.91016 10.5078 2.91016H3.75977C3.14453 2.91016 2.89062 3.1543 2.89062 3.76953V8.20312C2.89062 8.81836 3.14453 9.0625 3.75977 9.0625Z" fill="#2F2F2F"/>
</g>
<defs>
<clipPath id="clip0_326_2">
<rect width="14.6777" height="21.6113" fill="white"/>
</clipPath>
</defs>
</svg>
