<svg width="492" height="492" viewBox="0 0 492 492" fill="none" xmlns="http://www.w3.org/2000/svg">
<circle cx="217.25" cy="179" r="5.5" fill="#98A16A" stroke="#E2DAD2"/>
<line x1="38.5156" y1="98.3213" x2="111.516" y2="19.3213" stroke="#E2DAD2" stroke-width="2"/>
<line x1="39.133" y1="99.5306" x2="81.133" y2="178.531" stroke="#E2DAD2" stroke-width="2"/>
<line x1="81.702" y1="179.108" x2="156.702" y2="217.108" stroke="#E2DAD2" stroke-width="2"/>
<circle cx="112.25" cy="19" r="5.5" fill="black" stroke="#E2DAD2"/>
<circle cx="39.25" cy="99" r="5.5" fill="black" stroke="#E2DAD2"/>
<circle cx="81.25" cy="179" r="5.5" fill="black" stroke="#E2DAD2"/>
<circle cx="156.25" cy="217" r="5.5" fill="black" stroke="#E2DAD2" stroke-dasharray="2 2"/>
<path d="M82.1071 58.8H84.7631V67.312C84.7631 67.9627 84.8698 68.4213 85.0831 68.688C85.3071 68.9547 85.6325 69.088 86.0591 69.088C86.3578 69.088 86.6405 69.0347 86.9071 68.928C87.1845 68.8213 87.4885 68.64 87.8191 68.384L88.3951 69.264C88.2245 69.4133 88.0378 69.5467 87.8351 69.664C87.6325 69.7813 87.4245 69.8827 87.2111 69.968C86.9978 70.0427 86.7845 70.1013 86.5711 70.144C86.3578 70.1867 86.1605 70.208 85.9791 70.208C85.5845 70.208 85.2325 70.1547 84.9231 70.048C84.6138 69.952 84.3525 69.792 84.1391 69.568C83.9365 69.344 83.7818 69.0507 83.6751 68.688C83.5685 68.3147 83.5151 67.856 83.5151 67.312V59.872H82.1071V58.8Z" fill="#4D87AB"/>
<path d="M89.9496 69.12H91.1736V65.624L90.1176 66.432L89.6376 65.792L91.4616 64.4H92.1656V69.12H93.3656V70H89.9496V69.12Z" fill="#4D87AB"/>
<path d="M68.1071 126.8H70.7631V135.312C70.7631 135.963 70.8698 136.421 71.0831 136.688C71.3071 136.955 71.6325 137.088 72.0591 137.088C72.3578 137.088 72.6405 137.035 72.9071 136.928C73.1845 136.821 73.4885 136.64 73.8191 136.384L74.3951 137.264C74.2245 137.413 74.0378 137.547 73.8351 137.664C73.6325 137.781 73.4245 137.883 73.2111 137.968C72.9978 138.043 72.7845 138.101 72.5711 138.144C72.3578 138.187 72.1605 138.208 71.9791 138.208C71.5845 138.208 71.2325 138.155 70.9231 138.048C70.6138 137.952 70.3525 137.792 70.1391 137.568C69.9365 137.344 69.7818 137.051 69.6751 136.688C69.5685 136.315 69.5151 135.856 69.5151 135.312V127.872H68.1071V126.8Z" fill="#4D87AB"/>
<path d="M79.2856 138H75.7176V137.224C75.7816 137.171 75.8616 137.101 75.9576 137.016C76.0536 136.925 76.1602 136.824 76.2776 136.712C76.4002 136.6 76.5282 136.477 76.6616 136.344C76.7949 136.211 76.9256 136.072 77.0536 135.928C77.2349 135.725 77.3922 135.541 77.5256 135.376C77.6642 135.211 77.7762 135.056 77.8616 134.912C77.9522 134.763 78.0189 134.619 78.0616 134.48C78.1042 134.336 78.1256 134.189 78.1256 134.04C78.1256 133.933 78.1016 133.829 78.0536 133.728C78.0056 133.627 77.9389 133.539 77.8536 133.464C77.7682 133.384 77.6642 133.323 77.5416 133.28C77.4242 133.232 77.2936 133.208 77.1496 133.208C76.9576 133.208 76.7816 133.237 76.6216 133.296C76.4669 133.355 76.3042 133.453 76.1336 133.592L75.7176 132.856C75.9416 132.696 76.1896 132.563 76.4616 132.456C76.7389 132.344 77.0562 132.288 77.4136 132.288C77.6429 132.288 77.8616 132.32 78.0696 132.384C78.2829 132.448 78.4696 132.544 78.6296 132.672C78.7949 132.795 78.9256 132.949 79.0216 133.136C79.1176 133.323 79.1656 133.539 79.1656 133.784C79.1656 133.955 79.1496 134.115 79.1176 134.264C79.0909 134.408 79.0456 134.555 78.9816 134.704C78.9229 134.848 78.8429 134.997 78.7416 135.152C78.6456 135.307 78.5282 135.475 78.3896 135.656C78.2829 135.795 78.1656 135.936 78.0376 136.08C77.9149 136.219 77.7922 136.352 77.6696 136.48C77.5469 136.608 77.4242 136.728 77.3016 136.84C77.1842 136.952 77.0776 137.045 76.9816 137.12H79.2856V138Z" fill="#4D87AB"/>
<path d="M119.107 180.8H121.763V189.312C121.763 189.963 121.87 190.421 122.083 190.688C122.307 190.955 122.632 191.088 123.059 191.088C123.358 191.088 123.64 191.035 123.907 190.928C124.184 190.821 124.488 190.64 124.819 190.384L125.395 191.264C125.224 191.413 125.038 191.547 124.835 191.664C124.632 191.781 124.424 191.883 124.211 191.968C123.998 192.043 123.784 192.101 123.571 192.144C123.358 192.187 123.16 192.208 122.979 192.208C122.584 192.208 122.232 192.155 121.923 192.048C121.614 191.952 121.352 191.792 121.139 191.568C120.936 191.344 120.782 191.051 120.675 190.688C120.568 190.315 120.515 189.856 120.515 189.312V181.872H119.107V180.8Z" fill="#4D87AB"/>
<path d="M128.086 191.232C128.262 191.232 128.422 191.211 128.566 191.168C128.715 191.12 128.84 191.056 128.942 190.976C129.048 190.891 129.131 190.795 129.19 190.688C129.248 190.576 129.278 190.456 129.278 190.328C129.278 190.168 129.243 190.035 129.174 189.928C129.11 189.816 129.019 189.728 128.902 189.664C128.784 189.6 128.643 189.555 128.478 189.528C128.312 189.501 128.134 189.488 127.942 189.488H127.494V188.92L128.838 187.28H126.814V186.4H130.078V187.128L128.67 188.736H128.854C129.04 188.736 129.222 188.768 129.398 188.832C129.574 188.896 129.728 188.992 129.862 189.12C130 189.248 130.11 189.408 130.19 189.6C130.275 189.792 130.318 190.013 130.318 190.264C130.318 190.568 130.254 190.835 130.126 191.064C130.003 191.293 129.838 191.488 129.63 191.648C129.427 191.803 129.192 191.92 128.926 192C128.659 192.075 128.384 192.112 128.102 192.112C127.862 192.112 127.622 192.091 127.382 192.048C127.142 192.005 126.91 191.939 126.686 191.848L126.966 190.984C127.014 191.011 127.078 191.037 127.158 191.064C127.243 191.091 127.336 191.117 127.438 191.144C127.544 191.171 127.651 191.192 127.758 191.208C127.87 191.224 127.979 191.232 128.086 191.232Z" fill="#4D87AB"/>
<path d="M90.8031 12.912C91.2085 12.816 91.6458 12.752 92.1151 12.72C92.5845 12.688 93.0485 12.672 93.5071 12.672C93.9978 12.672 94.4938 12.72 94.9951 12.816C95.5071 12.912 95.9711 13.088 96.3871 13.344C96.8031 13.6 97.1391 13.952 97.3951 14.4C97.6618 14.848 97.7951 15.4187 97.7951 16.112C97.7951 16.7947 97.6725 17.3707 97.4271 17.84C97.1818 18.3093 96.8565 18.6933 96.4511 18.992C96.0458 19.28 95.5818 19.488 95.0591 19.616C94.5365 19.744 93.9978 19.808 93.4431 19.808C93.3898 19.808 93.2991 19.808 93.1711 19.808C93.0538 19.808 92.9258 19.808 92.7871 19.808C92.6591 19.7973 92.5311 19.7867 92.4031 19.776C92.2751 19.7653 92.1845 19.7547 92.1311 19.744V24H90.8031V12.912ZM93.5391 13.824C93.2618 13.824 92.9951 13.8293 92.7391 13.84C92.4831 13.8507 92.2805 13.8773 92.1311 13.92V18.56C92.1845 18.5813 92.2698 18.5973 92.3871 18.608C92.5045 18.608 92.6271 18.6133 92.7551 18.624C92.8831 18.624 93.0058 18.624 93.1231 18.624C93.2405 18.624 93.3258 18.624 93.3791 18.624C93.7418 18.624 94.0991 18.592 94.4511 18.528C94.8138 18.4533 95.1391 18.3253 95.4271 18.144C95.7151 17.9627 95.9445 17.7067 96.1151 17.376C96.2965 17.0453 96.3871 16.624 96.3871 16.112C96.3871 15.6747 96.3018 15.312 96.1311 15.024C95.9711 14.7253 95.7525 14.4907 95.4751 14.32C95.2085 14.1387 94.9045 14.0107 94.5631 13.936C94.2218 13.8613 93.8805 13.824 93.5391 13.824Z" fill="#4D87AB"/>
<path d="M97.4056 21.192C97.4056 20.7067 97.4562 20.2827 97.5576 19.92C97.6589 19.552 97.8002 19.248 97.9816 19.008C98.1682 18.768 98.3896 18.5893 98.6456 18.472C98.9016 18.3493 99.1869 18.288 99.5016 18.288C100.174 18.288 100.691 18.5253 101.054 19C101.416 19.4693 101.598 20.2 101.598 21.192C101.598 21.6827 101.547 22.112 101.446 22.48C101.344 22.8427 101.2 23.1467 101.014 23.392C100.832 23.632 100.611 23.8133 100.35 23.936C100.094 24.0533 99.8082 24.112 99.4936 24.112C98.8162 24.112 98.2989 23.864 97.9416 23.368C97.5842 22.8667 97.4056 22.1413 97.4056 21.192ZM100.574 21.192C100.574 21.1067 100.571 21.0267 100.566 20.952C100.566 20.872 100.563 20.7947 100.558 20.72L98.5976 22.504C98.7629 22.9893 99.0642 23.232 99.5016 23.232C99.8429 23.232 100.107 23.0693 100.294 22.744C100.48 22.4187 100.574 21.9013 100.574 21.192ZM98.4296 21.192C98.4296 21.272 98.4296 21.3493 98.4296 21.424C98.4349 21.4933 98.4402 21.5653 98.4456 21.64L100.398 19.856C100.238 19.3973 99.9362 19.168 99.4936 19.168C99.1522 19.168 98.8882 19.3333 98.7016 19.664C98.5202 19.9893 98.4296 20.4987 98.4296 21.192Z" fill="#4D87AB"/>
<path d="M20.8031 93.912C21.2085 93.816 21.6458 93.752 22.1151 93.72C22.5845 93.688 23.0485 93.672 23.5071 93.672C23.9978 93.672 24.4938 93.72 24.9951 93.816C25.5071 93.912 25.9711 94.088 26.3871 94.344C26.8031 94.6 27.1391 94.952 27.3951 95.4C27.6618 95.848 27.7951 96.4187 27.7951 97.112C27.7951 97.7947 27.6725 98.3707 27.4271 98.84C27.1818 99.3093 26.8565 99.6933 26.4511 99.992C26.0458 100.28 25.5818 100.488 25.0591 100.616C24.5365 100.744 23.9978 100.808 23.4431 100.808C23.3898 100.808 23.2991 100.808 23.1711 100.808C23.0538 100.808 22.9258 100.808 22.7871 100.808C22.6591 100.797 22.5311 100.787 22.4031 100.776C22.2751 100.765 22.1845 100.755 22.1311 100.744V105H20.8031V93.912ZM23.5391 94.824C23.2618 94.824 22.9951 94.8293 22.7391 94.84C22.4831 94.8507 22.2805 94.8773 22.1311 94.92V99.56C22.1845 99.5813 22.2698 99.5973 22.3871 99.608C22.5045 99.608 22.6271 99.6133 22.7551 99.624C22.8831 99.624 23.0058 99.624 23.1231 99.624C23.2405 99.624 23.3258 99.624 23.3791 99.624C23.7418 99.624 24.0991 99.592 24.4511 99.528C24.8138 99.4533 25.1391 99.3253 25.4271 99.144C25.7151 98.9627 25.9445 98.7067 26.1151 98.376C26.2965 98.0453 26.3871 97.624 26.3871 97.112C26.3871 96.6747 26.3018 96.312 26.1311 96.024C25.9711 95.7253 25.7525 95.4907 25.4751 95.32C25.2085 95.1387 24.9045 95.0107 24.5631 94.936C24.2218 94.8613 23.8805 94.824 23.5391 94.824Z" fill="#4D87AB"/>
<path d="M27.9496 104.12H29.1736V100.624L28.1176 101.432L27.6376 100.792L29.4616 99.4H30.1656V104.12H31.3656V105H27.9496V104.12Z" fill="#4D87AB"/>
<path d="M61.8031 173.912C62.2085 173.816 62.6458 173.752 63.1151 173.72C63.5845 173.688 64.0485 173.672 64.5071 173.672C64.9978 173.672 65.4938 173.72 65.9951 173.816C66.5071 173.912 66.9711 174.088 67.3871 174.344C67.8031 174.6 68.1391 174.952 68.3951 175.4C68.6618 175.848 68.7951 176.419 68.7951 177.112C68.7951 177.795 68.6725 178.371 68.4271 178.84C68.1818 179.309 67.8565 179.693 67.4511 179.992C67.0458 180.28 66.5818 180.488 66.0591 180.616C65.5365 180.744 64.9978 180.808 64.4431 180.808C64.3898 180.808 64.2991 180.808 64.1711 180.808C64.0538 180.808 63.9258 180.808 63.7871 180.808C63.6591 180.797 63.5311 180.787 63.4031 180.776C63.2751 180.765 63.1845 180.755 63.1311 180.744V185H61.8031V173.912ZM64.5391 174.824C64.2618 174.824 63.9951 174.829 63.7391 174.84C63.4831 174.851 63.2805 174.877 63.1311 174.92V179.56C63.1845 179.581 63.2698 179.597 63.3871 179.608C63.5045 179.608 63.6271 179.613 63.7551 179.624C63.8831 179.624 64.0058 179.624 64.1231 179.624C64.2405 179.624 64.3258 179.624 64.3791 179.624C64.7418 179.624 65.0991 179.592 65.4511 179.528C65.8138 179.453 66.1391 179.325 66.4271 179.144C66.7151 178.963 66.9445 178.707 67.1151 178.376C67.2965 178.045 67.3871 177.624 67.3871 177.112C67.3871 176.675 67.3018 176.312 67.1311 176.024C66.9711 175.725 66.7525 175.491 66.4751 175.32C66.2085 175.139 65.9045 175.011 65.5631 174.936C65.2218 174.861 64.8805 174.824 64.5391 174.824Z" fill="#4D87AB"/>
<path d="M72.2856 185H68.7176V184.224C68.7816 184.171 68.8616 184.101 68.9576 184.016C69.0536 183.925 69.1602 183.824 69.2776 183.712C69.4002 183.6 69.5282 183.477 69.6616 183.344C69.7949 183.211 69.9256 183.072 70.0536 182.928C70.2349 182.725 70.3922 182.541 70.5256 182.376C70.6642 182.211 70.7762 182.056 70.8616 181.912C70.9522 181.763 71.0189 181.619 71.0616 181.48C71.1042 181.336 71.1256 181.189 71.1256 181.04C71.1256 180.933 71.1016 180.829 71.0536 180.728C71.0056 180.627 70.9389 180.539 70.8536 180.464C70.7682 180.384 70.6642 180.323 70.5416 180.28C70.4242 180.232 70.2936 180.208 70.1496 180.208C69.9576 180.208 69.7816 180.237 69.6216 180.296C69.4669 180.355 69.3042 180.453 69.1336 180.592L68.7176 179.856C68.9416 179.696 69.1896 179.563 69.4616 179.456C69.7389 179.344 70.0562 179.288 70.4136 179.288C70.6429 179.288 70.8616 179.32 71.0696 179.384C71.2829 179.448 71.4696 179.544 71.6296 179.672C71.7949 179.795 71.9256 179.949 72.0216 180.136C72.1176 180.323 72.1656 180.539 72.1656 180.784C72.1656 180.955 72.1496 181.115 72.1176 181.264C72.0909 181.408 72.0456 181.555 71.9816 181.704C71.9229 181.848 71.8429 181.997 71.7416 182.152C71.6456 182.307 71.5282 182.475 71.3896 182.656C71.2829 182.795 71.1656 182.936 71.0376 183.08C70.9149 183.219 70.7922 183.352 70.6696 183.48C70.5469 183.608 70.4242 183.728 70.3016 183.84C70.1842 183.952 70.0776 184.045 69.9816 184.12H72.2856V185Z" fill="#4D87AB"/>
<path d="M211.803 157.912C212.208 157.816 212.646 157.752 213.115 157.72C213.584 157.688 214.048 157.672 214.507 157.672C214.998 157.672 215.494 157.72 215.995 157.816C216.507 157.912 216.971 158.088 217.387 158.344C217.803 158.6 218.139 158.952 218.395 159.4C218.662 159.848 218.795 160.419 218.795 161.112C218.795 161.795 218.672 162.371 218.427 162.84C218.182 163.309 217.856 163.693 217.451 163.992C217.046 164.28 216.582 164.488 216.059 164.616C215.536 164.744 214.998 164.808 214.443 164.808C214.39 164.808 214.299 164.808 214.171 164.808C214.054 164.808 213.926 164.808 213.787 164.808C213.659 164.797 213.531 164.787 213.403 164.776C213.275 164.765 213.184 164.755 213.131 164.744V169H211.803V157.912ZM214.539 158.824C214.262 158.824 213.995 158.829 213.739 158.84C213.483 158.851 213.28 158.877 213.131 158.92V163.56C213.184 163.581 213.27 163.597 213.387 163.608C213.504 163.608 213.627 163.613 213.755 163.624C213.883 163.624 214.006 163.624 214.123 163.624C214.24 163.624 214.326 163.624 214.379 163.624C214.742 163.624 215.099 163.592 215.451 163.528C215.814 163.453 216.139 163.325 216.427 163.144C216.715 162.963 216.944 162.707 217.115 162.376C217.296 162.045 217.387 161.624 217.387 161.112C217.387 160.675 217.302 160.312 217.131 160.024C216.971 159.725 216.752 159.491 216.475 159.32C216.208 159.139 215.904 159.011 215.563 158.936C215.222 158.861 214.88 158.824 214.539 158.824Z" fill="#4D87AB"/>
<path d="M219.915 157.136C219.915 156.848 220.011 156.619 220.203 156.448C220.395 156.277 220.63 156.192 220.907 156.192C221.28 156.192 221.579 156.304 221.803 156.528C222.027 156.752 222.139 157.088 222.139 157.536C222.139 157.963 222.075 158.336 221.947 158.656C221.83 158.965 221.68 159.227 221.499 159.44C221.328 159.653 221.147 159.824 220.955 159.952C220.763 160.069 220.592 160.155 220.443 160.208L219.963 159.552C220.262 159.403 220.518 159.211 220.731 158.976C220.955 158.741 221.067 158.443 221.067 158.08C221.024 158.091 220.96 158.096 220.875 158.096C220.63 158.096 220.406 158.005 220.203 157.824C220.011 157.643 219.915 157.413 219.915 157.136Z" fill="#4D87AB"/>
<path d="M220.086 168.232C220.262 168.232 220.422 168.211 220.566 168.168C220.715 168.12 220.84 168.056 220.942 167.976C221.048 167.891 221.131 167.795 221.19 167.688C221.248 167.576 221.278 167.456 221.278 167.328C221.278 167.168 221.243 167.035 221.174 166.928C221.11 166.816 221.019 166.728 220.902 166.664C220.784 166.6 220.643 166.555 220.478 166.528C220.312 166.501 220.134 166.488 219.942 166.488H219.494V165.92L220.838 164.28H218.814V163.4H222.078V164.128L220.67 165.736H220.854C221.04 165.736 221.222 165.768 221.398 165.832C221.574 165.896 221.728 165.992 221.862 166.12C222 166.248 222.11 166.408 222.19 166.6C222.275 166.792 222.318 167.013 222.318 167.264C222.318 167.568 222.254 167.835 222.126 168.064C222.003 168.293 221.838 168.488 221.63 168.648C221.427 168.803 221.192 168.92 220.926 169C220.659 169.075 220.384 169.112 220.102 169.112C219.862 169.112 219.622 169.091 219.382 169.048C219.142 169.005 218.91 168.939 218.686 168.848L218.966 167.984C219.014 168.011 219.078 168.037 219.158 168.064C219.243 168.091 219.336 168.117 219.438 168.144C219.544 168.171 219.651 168.192 219.758 168.208C219.87 168.224 219.979 168.232 220.086 168.232Z" fill="#4D87AB"/>
<path d="M135.803 213.912C136.208 213.816 136.646 213.752 137.115 213.72C137.584 213.688 138.048 213.672 138.507 213.672C138.998 213.672 139.494 213.72 139.995 213.816C140.507 213.912 140.971 214.088 141.387 214.344C141.803 214.6 142.139 214.952 142.395 215.4C142.662 215.848 142.795 216.419 142.795 217.112C142.795 217.795 142.672 218.371 142.427 218.84C142.182 219.309 141.856 219.693 141.451 219.992C141.046 220.28 140.582 220.488 140.059 220.616C139.536 220.744 138.998 220.808 138.443 220.808C138.39 220.808 138.299 220.808 138.171 220.808C138.054 220.808 137.926 220.808 137.787 220.808C137.659 220.797 137.531 220.787 137.403 220.776C137.275 220.765 137.184 220.755 137.131 220.744V225H135.803V213.912ZM138.539 214.824C138.262 214.824 137.995 214.829 137.739 214.84C137.483 214.851 137.28 214.877 137.131 214.92V219.56C137.184 219.581 137.27 219.597 137.387 219.608C137.504 219.608 137.627 219.613 137.755 219.624C137.883 219.624 138.006 219.624 138.123 219.624C138.24 219.624 138.326 219.624 138.379 219.624C138.742 219.624 139.099 219.592 139.451 219.528C139.814 219.453 140.139 219.325 140.427 219.144C140.715 218.963 140.944 218.707 141.115 218.376C141.296 218.045 141.387 217.624 141.387 217.112C141.387 216.675 141.302 216.312 141.131 216.024C140.971 215.725 140.752 215.491 140.475 215.32C140.208 215.139 139.904 215.011 139.563 214.936C139.222 214.861 138.88 214.824 138.539 214.824Z" fill="#4D87AB"/>
<path d="M144.086 224.232C144.262 224.232 144.422 224.211 144.566 224.168C144.715 224.12 144.84 224.056 144.942 223.976C145.048 223.891 145.131 223.795 145.19 223.688C145.248 223.576 145.278 223.456 145.278 223.328C145.278 223.168 145.243 223.035 145.174 222.928C145.11 222.816 145.019 222.728 144.902 222.664C144.784 222.6 144.643 222.555 144.478 222.528C144.312 222.501 144.134 222.488 143.942 222.488H143.494V221.92L144.838 220.28H142.814V219.4H146.078V220.128L144.67 221.736H144.854C145.04 221.736 145.222 221.768 145.398 221.832C145.574 221.896 145.728 221.992 145.862 222.12C146 222.248 146.11 222.408 146.19 222.6C146.275 222.792 146.318 223.013 146.318 223.264C146.318 223.568 146.254 223.835 146.126 224.064C146.003 224.293 145.838 224.488 145.63 224.648C145.427 224.803 145.192 224.92 144.926 225C144.659 225.075 144.384 225.112 144.102 225.112C143.862 225.112 143.622 225.091 143.382 225.048C143.142 225.005 142.91 224.939 142.686 224.848L142.966 223.984C143.014 224.011 143.078 224.037 143.158 224.064C143.243 224.091 143.336 224.117 143.438 224.144C143.544 224.171 143.651 224.192 143.758 224.208C143.87 224.224 143.979 224.232 144.086 224.232Z" fill="#4D87AB"/>
<path d="M207.741 185.095C207.793 184.824 207.616 184.562 207.345 184.509L202.928 183.652C202.657 183.599 202.394 183.777 202.342 184.048C202.289 184.319 202.466 184.581 202.737 184.634L206.664 185.396L205.902 189.322C205.849 189.593 206.027 189.856 206.298 189.908C206.569 189.961 206.831 189.784 206.884 189.513L207.741 185.095ZM167.53 212.414L207.53 185.414L206.97 184.586L166.97 211.586L167.53 212.414Z" fill="#DB5475"/>
<rect x="0.5" y="0.5" width="239" height="239" stroke="#E2DAD2"/>
<line x1="334" y1="179" x2="470" y2="179" stroke="#DB5475" stroke-width="2" stroke-dasharray="4 4"/>
<line x1="386" y1="179" x2="470" y2="179" stroke="#E2DAD2" stroke-width="2"/>
<circle cx="470" cy="179" r="5.5" fill="#98A16A" stroke="#E2DAD2"/>
<circle cx="386" cy="179" r="5.5" fill="#98A16A" stroke="#E2DAD2"/>
<line x1="291.266" y1="98.3213" x2="364.266" y2="19.3213" stroke="#E2DAD2" stroke-width="2"/>
<line x1="291.883" y1="99.5306" x2="333.883" y2="178.531" stroke="#E2DAD2" stroke-width="2"/>
<line x1="334.226" y1="179.554" x2="409.226" y2="217.554" stroke="#E2DAD2" stroke-dasharray="2 2"/>
<circle cx="365" cy="19" r="5.5" fill="black" stroke="#E2DAD2"/>
<circle cx="292" cy="99" r="5.5" fill="black" stroke="#E2DAD2"/>
<circle cx="334" cy="179" r="5.5" fill="black" stroke="#E2DAD2" stroke-dasharray="2 2"/>
<circle cx="409" cy="217" r="5.5" fill="black" stroke="#E2DAD2" stroke-dasharray="2 2"/>
<path d="M334.107 58.8H336.763V67.312C336.763 67.9627 336.87 68.4213 337.083 68.688C337.307 68.9547 337.632 69.088 338.059 69.088C338.358 69.088 338.64 69.0347 338.907 68.928C339.184 68.8213 339.488 68.64 339.819 68.384L340.395 69.264C340.224 69.4133 340.038 69.5467 339.835 69.664C339.632 69.7813 339.424 69.8827 339.211 69.968C338.998 70.0427 338.784 70.1013 338.571 70.144C338.358 70.1867 338.16 70.208 337.979 70.208C337.584 70.208 337.232 70.1547 336.923 70.048C336.614 69.952 336.352 69.792 336.139 69.568C335.936 69.344 335.782 69.0507 335.675 68.688C335.568 68.3147 335.515 67.856 335.515 67.312V59.872H334.107V58.8Z" fill="#4D87AB"/>
<path d="M341.95 69.12H343.174V65.624L342.118 66.432L341.638 65.792L343.462 64.4H344.166V69.12H345.366V70H341.95V69.12Z" fill="#4D87AB"/>
<path d="M320.107 126.8H322.763V135.312C322.763 135.963 322.87 136.421 323.083 136.688C323.307 136.955 323.632 137.088 324.059 137.088C324.358 137.088 324.64 137.035 324.907 136.928C325.184 136.821 325.488 136.64 325.819 136.384L326.395 137.264C326.224 137.413 326.038 137.547 325.835 137.664C325.632 137.781 325.424 137.883 325.211 137.968C324.998 138.043 324.784 138.101 324.571 138.144C324.358 138.187 324.16 138.208 323.979 138.208C323.584 138.208 323.232 138.155 322.923 138.048C322.614 137.952 322.352 137.792 322.139 137.568C321.936 137.344 321.782 137.051 321.675 136.688C321.568 136.315 321.515 135.856 321.515 135.312V127.872H320.107V126.8Z" fill="#4D87AB"/>
<path d="M331.286 138H327.718V137.224C327.782 137.171 327.862 137.101 327.958 137.016C328.054 136.925 328.16 136.824 328.278 136.712C328.4 136.6 328.528 136.477 328.662 136.344C328.795 136.211 328.926 136.072 329.054 135.928C329.235 135.725 329.392 135.541 329.526 135.376C329.664 135.211 329.776 135.056 329.862 134.912C329.952 134.763 330.019 134.619 330.062 134.48C330.104 134.336 330.126 134.189 330.126 134.04C330.126 133.933 330.102 133.829 330.054 133.728C330.006 133.627 329.939 133.539 329.854 133.464C329.768 133.384 329.664 133.323 329.542 133.28C329.424 133.232 329.294 133.208 329.15 133.208C328.958 133.208 328.782 133.237 328.622 133.296C328.467 133.355 328.304 133.453 328.134 133.592L327.718 132.856C327.942 132.696 328.19 132.563 328.462 132.456C328.739 132.344 329.056 132.288 329.414 132.288C329.643 132.288 329.862 132.32 330.07 132.384C330.283 132.448 330.47 132.544 330.63 132.672C330.795 132.795 330.926 132.949 331.022 133.136C331.118 133.323 331.166 133.539 331.166 133.784C331.166 133.955 331.15 134.115 331.118 134.264C331.091 134.408 331.046 134.555 330.982 134.704C330.923 134.848 330.843 134.997 330.742 135.152C330.646 135.307 330.528 135.475 330.39 135.656C330.283 135.795 330.166 135.936 330.038 136.08C329.915 136.219 329.792 136.352 329.67 136.48C329.547 136.608 329.424 136.728 329.302 136.84C329.184 136.952 329.078 137.045 328.982 137.12H331.286V138Z" fill="#4D87AB"/>
<path d="M423.107 185.8H425.763V194.312C425.763 194.963 425.87 195.421 426.083 195.688C426.307 195.955 426.632 196.088 427.059 196.088C427.358 196.088 427.64 196.035 427.907 195.928C428.184 195.821 428.488 195.64 428.819 195.384L429.395 196.264C429.224 196.413 429.038 196.547 428.835 196.664C428.632 196.781 428.424 196.883 428.211 196.968C427.998 197.043 427.784 197.101 427.571 197.144C427.358 197.187 427.16 197.208 426.979 197.208C426.584 197.208 426.232 197.155 425.923 197.048C425.614 196.952 425.352 196.792 425.139 196.568C424.936 196.344 424.782 196.051 424.675 195.688C424.568 195.315 424.515 194.856 424.515 194.312V186.872H423.107V185.8Z" fill="#4D87AB"/>
<path d="M432.086 196.232C432.262 196.232 432.422 196.211 432.566 196.168C432.715 196.12 432.84 196.056 432.942 195.976C433.048 195.891 433.131 195.795 433.19 195.688C433.248 195.576 433.278 195.456 433.278 195.328C433.278 195.168 433.243 195.035 433.174 194.928C433.11 194.816 433.019 194.728 432.902 194.664C432.784 194.6 432.643 194.555 432.478 194.528C432.312 194.501 432.134 194.488 431.942 194.488H431.494V193.92L432.838 192.28H430.814V191.4H434.078V192.128L432.67 193.736H432.854C433.04 193.736 433.222 193.768 433.398 193.832C433.574 193.896 433.728 193.992 433.862 194.12C434 194.248 434.11 194.408 434.19 194.6C434.275 194.792 434.318 195.013 434.318 195.264C434.318 195.568 434.254 195.835 434.126 196.064C434.003 196.293 433.838 196.488 433.63 196.648C433.427 196.803 433.192 196.92 432.926 197C432.659 197.075 432.384 197.112 432.102 197.112C431.862 197.112 431.622 197.091 431.382 197.048C431.142 197.005 430.91 196.939 430.686 196.848L430.966 195.984C431.014 196.011 431.078 196.037 431.158 196.064C431.243 196.091 431.336 196.117 431.438 196.144C431.544 196.171 431.651 196.192 431.758 196.208C431.87 196.224 431.979 196.232 432.086 196.232Z" fill="#4D87AB"/>
<path d="M342.803 12.912C343.208 12.816 343.646 12.752 344.115 12.72C344.584 12.688 345.048 12.672 345.507 12.672C345.998 12.672 346.494 12.72 346.995 12.816C347.507 12.912 347.971 13.088 348.387 13.344C348.803 13.6 349.139 13.952 349.395 14.4C349.662 14.848 349.795 15.4187 349.795 16.112C349.795 16.7947 349.672 17.3707 349.427 17.84C349.182 18.3093 348.856 18.6933 348.451 18.992C348.046 19.28 347.582 19.488 347.059 19.616C346.536 19.744 345.998 19.808 345.443 19.808C345.39 19.808 345.299 19.808 345.171 19.808C345.054 19.808 344.926 19.808 344.787 19.808C344.659 19.7973 344.531 19.7867 344.403 19.776C344.275 19.7653 344.184 19.7547 344.131 19.744V24H342.803V12.912ZM345.539 13.824C345.262 13.824 344.995 13.8293 344.739 13.84C344.483 13.8507 344.28 13.8773 344.131 13.92V18.56C344.184 18.5813 344.27 18.5973 344.387 18.608C344.504 18.608 344.627 18.6133 344.755 18.624C344.883 18.624 345.006 18.624 345.123 18.624C345.24 18.624 345.326 18.624 345.379 18.624C345.742 18.624 346.099 18.592 346.451 18.528C346.814 18.4533 347.139 18.3253 347.427 18.144C347.715 17.9627 347.944 17.7067 348.115 17.376C348.296 17.0453 348.387 16.624 348.387 16.112C348.387 15.6747 348.302 15.312 348.131 15.024C347.971 14.7253 347.752 14.4907 347.475 14.32C347.208 14.1387 346.904 14.0107 346.563 13.936C346.222 13.8613 345.88 13.824 345.539 13.824Z" fill="#4D87AB"/>
<path d="M349.406 21.192C349.406 20.7067 349.456 20.2827 349.558 19.92C349.659 19.552 349.8 19.248 349.982 19.008C350.168 18.768 350.39 18.5893 350.646 18.472C350.902 18.3493 351.187 18.288 351.502 18.288C352.174 18.288 352.691 18.5253 353.054 19C353.416 19.4693 353.598 20.2 353.598 21.192C353.598 21.6827 353.547 22.112 353.446 22.48C353.344 22.8427 353.2 23.1467 353.014 23.392C352.832 23.632 352.611 23.8133 352.35 23.936C352.094 24.0533 351.808 24.112 351.494 24.112C350.816 24.112 350.299 23.864 349.942 23.368C349.584 22.8667 349.406 22.1413 349.406 21.192ZM352.574 21.192C352.574 21.1067 352.571 21.0267 352.566 20.952C352.566 20.872 352.563 20.7947 352.558 20.72L350.598 22.504C350.763 22.9893 351.064 23.232 351.502 23.232C351.843 23.232 352.107 23.0693 352.294 22.744C352.48 22.4187 352.574 21.9013 352.574 21.192ZM350.43 21.192C350.43 21.272 350.43 21.3493 350.43 21.424C350.435 21.4933 350.44 21.5653 350.446 21.64L352.398 19.856C352.238 19.3973 351.936 19.168 351.494 19.168C351.152 19.168 350.888 19.3333 350.702 19.664C350.52 19.9893 350.43 20.4987 350.43 21.192Z" fill="#4D87AB"/>
<path d="M272.803 93.912C273.208 93.816 273.646 93.752 274.115 93.72C274.584 93.688 275.048 93.672 275.507 93.672C275.998 93.672 276.494 93.72 276.995 93.816C277.507 93.912 277.971 94.088 278.387 94.344C278.803 94.6 279.139 94.952 279.395 95.4C279.662 95.848 279.795 96.4187 279.795 97.112C279.795 97.7947 279.672 98.3707 279.427 98.84C279.182 99.3093 278.856 99.6933 278.451 99.992C278.046 100.28 277.582 100.488 277.059 100.616C276.536 100.744 275.998 100.808 275.443 100.808C275.39 100.808 275.299 100.808 275.171 100.808C275.054 100.808 274.926 100.808 274.787 100.808C274.659 100.797 274.531 100.787 274.403 100.776C274.275 100.765 274.184 100.755 274.131 100.744V105H272.803V93.912ZM275.539 94.824C275.262 94.824 274.995 94.8293 274.739 94.84C274.483 94.8507 274.28 94.8773 274.131 94.92V99.56C274.184 99.5813 274.27 99.5973 274.387 99.608C274.504 99.608 274.627 99.6133 274.755 99.624C274.883 99.624 275.006 99.624 275.123 99.624C275.24 99.624 275.326 99.624 275.379 99.624C275.742 99.624 276.099 99.592 276.451 99.528C276.814 99.4533 277.139 99.3253 277.427 99.144C277.715 98.9627 277.944 98.7067 278.115 98.376C278.296 98.0453 278.387 97.624 278.387 97.112C278.387 96.6747 278.302 96.312 278.131 96.024C277.971 95.7253 277.752 95.4907 277.475 95.32C277.208 95.1387 276.904 95.0107 276.563 94.936C276.222 94.8613 275.88 94.824 275.539 94.824Z" fill="#4D87AB"/>
<path d="M279.95 104.12H281.174V100.624L280.118 101.432L279.638 100.792L281.462 99.4H282.166V104.12H283.366V105H279.95V104.12Z" fill="#4D87AB"/>
<path d="M313.803 173.912C314.208 173.816 314.646 173.752 315.115 173.72C315.584 173.688 316.048 173.672 316.507 173.672C316.998 173.672 317.494 173.72 317.995 173.816C318.507 173.912 318.971 174.088 319.387 174.344C319.803 174.6 320.139 174.952 320.395 175.4C320.662 175.848 320.795 176.419 320.795 177.112C320.795 177.795 320.672 178.371 320.427 178.84C320.182 179.309 319.856 179.693 319.451 179.992C319.046 180.28 318.582 180.488 318.059 180.616C317.536 180.744 316.998 180.808 316.443 180.808C316.39 180.808 316.299 180.808 316.171 180.808C316.054 180.808 315.926 180.808 315.787 180.808C315.659 180.797 315.531 180.787 315.403 180.776C315.275 180.765 315.184 180.755 315.131 180.744V185H313.803V173.912ZM316.539 174.824C316.262 174.824 315.995 174.829 315.739 174.84C315.483 174.851 315.28 174.877 315.131 174.92V179.56C315.184 179.581 315.27 179.597 315.387 179.608C315.504 179.608 315.627 179.613 315.755 179.624C315.883 179.624 316.006 179.624 316.123 179.624C316.24 179.624 316.326 179.624 316.379 179.624C316.742 179.624 317.099 179.592 317.451 179.528C317.814 179.453 318.139 179.325 318.427 179.144C318.715 178.963 318.944 178.707 319.115 178.376C319.296 178.045 319.387 177.624 319.387 177.112C319.387 176.675 319.302 176.312 319.131 176.024C318.971 175.725 318.752 175.491 318.475 175.32C318.208 175.139 317.904 175.011 317.563 174.936C317.222 174.861 316.88 174.824 316.539 174.824Z" fill="#4D87AB"/>
<path d="M324.286 185H320.718V184.224C320.782 184.171 320.862 184.101 320.958 184.016C321.054 183.925 321.16 183.824 321.278 183.712C321.4 183.6 321.528 183.477 321.662 183.344C321.795 183.211 321.926 183.072 322.054 182.928C322.235 182.725 322.392 182.541 322.526 182.376C322.664 182.211 322.776 182.056 322.862 181.912C322.952 181.763 323.019 181.619 323.062 181.48C323.104 181.336 323.126 181.189 323.126 181.04C323.126 180.933 323.102 180.829 323.054 180.728C323.006 180.627 322.939 180.539 322.854 180.464C322.768 180.384 322.664 180.323 322.542 180.28C322.424 180.232 322.294 180.208 322.15 180.208C321.958 180.208 321.782 180.237 321.622 180.296C321.467 180.355 321.304 180.453 321.134 180.592L320.718 179.856C320.942 179.696 321.19 179.563 321.462 179.456C321.739 179.344 322.056 179.288 322.414 179.288C322.643 179.288 322.862 179.32 323.07 179.384C323.283 179.448 323.47 179.544 323.63 179.672C323.795 179.795 323.926 179.949 324.022 180.136C324.118 180.323 324.166 180.539 324.166 180.784C324.166 180.955 324.15 181.115 324.118 181.264C324.091 181.408 324.046 181.555 323.982 181.704C323.923 181.848 323.843 181.997 323.742 182.152C323.646 182.307 323.528 182.475 323.39 182.656C323.283 182.795 323.166 182.936 323.038 183.08C322.915 183.219 322.792 183.352 322.67 183.48C322.547 183.608 322.424 183.728 322.302 183.84C322.184 183.952 322.078 184.045 321.982 184.12H324.286V185Z" fill="#4D87AB"/>
<path d="M465.803 159.912C466.208 159.816 466.646 159.752 467.115 159.72C467.584 159.688 468.048 159.672 468.507 159.672C468.998 159.672 469.494 159.72 469.995 159.816C470.507 159.912 470.971 160.088 471.387 160.344C471.803 160.6 472.139 160.952 472.395 161.4C472.662 161.848 472.795 162.419 472.795 163.112C472.795 163.795 472.672 164.371 472.427 164.84C472.182 165.309 471.856 165.693 471.451 165.992C471.046 166.28 470.582 166.488 470.059 166.616C469.536 166.744 468.998 166.808 468.443 166.808C468.39 166.808 468.299 166.808 468.171 166.808C468.054 166.808 467.926 166.808 467.787 166.808C467.659 166.797 467.531 166.787 467.403 166.776C467.275 166.765 467.184 166.755 467.131 166.744V171H465.803V159.912ZM468.539 160.824C468.262 160.824 467.995 160.829 467.739 160.84C467.483 160.851 467.28 160.877 467.131 160.92V165.56C467.184 165.581 467.27 165.597 467.387 165.608C467.504 165.608 467.627 165.613 467.755 165.624C467.883 165.624 468.006 165.624 468.123 165.624C468.24 165.624 468.326 165.624 468.379 165.624C468.742 165.624 469.099 165.592 469.451 165.528C469.814 165.453 470.139 165.325 470.427 165.144C470.715 164.963 470.944 164.707 471.115 164.376C471.296 164.045 471.387 163.624 471.387 163.112C471.387 162.675 471.302 162.312 471.131 162.024C470.971 161.725 470.752 161.491 470.475 161.32C470.208 161.139 469.904 161.011 469.563 160.936C469.222 160.861 468.88 160.824 468.539 160.824Z" fill="#4D87AB"/>
<path d="M473.915 159.136C473.915 158.848 474.011 158.619 474.203 158.448C474.395 158.277 474.63 158.192 474.907 158.192C475.28 158.192 475.579 158.304 475.803 158.528C476.027 158.752 476.139 159.088 476.139 159.536C476.139 159.963 476.075 160.336 475.947 160.656C475.83 160.965 475.68 161.227 475.499 161.44C475.328 161.653 475.147 161.824 474.955 161.952C474.763 162.069 474.592 162.155 474.443 162.208L473.963 161.552C474.262 161.403 474.518 161.211 474.731 160.976C474.955 160.741 475.067 160.443 475.067 160.08C475.024 160.091 474.96 160.096 474.875 160.096C474.63 160.096 474.406 160.005 474.203 159.824C474.011 159.643 473.915 159.413 473.915 159.136Z" fill="#4D87AB"/>
<path d="M474.086 170.232C474.262 170.232 474.422 170.211 474.566 170.168C474.715 170.12 474.84 170.056 474.942 169.976C475.048 169.891 475.131 169.795 475.19 169.688C475.248 169.576 475.278 169.456 475.278 169.328C475.278 169.168 475.243 169.035 475.174 168.928C475.11 168.816 475.019 168.728 474.902 168.664C474.784 168.6 474.643 168.555 474.478 168.528C474.312 168.501 474.134 168.488 473.942 168.488H473.494V167.92L474.838 166.28H472.814V165.4H476.078V166.128L474.67 167.736H474.854C475.04 167.736 475.222 167.768 475.398 167.832C475.574 167.896 475.728 167.992 475.862 168.12C476 168.248 476.11 168.408 476.19 168.6C476.275 168.792 476.318 169.013 476.318 169.264C476.318 169.568 476.254 169.835 476.126 170.064C476.003 170.293 475.838 170.488 475.63 170.648C475.427 170.803 475.192 170.92 474.926 171C474.659 171.075 474.384 171.112 474.102 171.112C473.862 171.112 473.622 171.091 473.382 171.048C473.142 171.005 472.91 170.939 472.686 170.848L472.966 169.984C473.014 170.011 473.078 170.037 473.158 170.064C473.243 170.091 473.336 170.117 473.438 170.144C473.544 170.171 473.651 170.192 473.758 170.208C473.87 170.224 473.979 170.232 474.086 170.232Z" fill="#4D87AB"/>
<path d="M381.803 159.912C382.208 159.816 382.646 159.752 383.115 159.72C383.584 159.688 384.048 159.672 384.507 159.672C384.998 159.672 385.494 159.72 385.995 159.816C386.507 159.912 386.971 160.088 387.387 160.344C387.803 160.6 388.139 160.952 388.395 161.4C388.662 161.848 388.795 162.419 388.795 163.112C388.795 163.795 388.672 164.371 388.427 164.84C388.182 165.309 387.856 165.693 387.451 165.992C387.046 166.28 386.582 166.488 386.059 166.616C385.536 166.744 384.998 166.808 384.443 166.808C384.39 166.808 384.299 166.808 384.171 166.808C384.054 166.808 383.926 166.808 383.787 166.808C383.659 166.797 383.531 166.787 383.403 166.776C383.275 166.765 383.184 166.755 383.131 166.744V171H381.803V159.912ZM384.539 160.824C384.262 160.824 383.995 160.829 383.739 160.84C383.483 160.851 383.28 160.877 383.131 160.92V165.56C383.184 165.581 383.27 165.597 383.387 165.608C383.504 165.608 383.627 165.613 383.755 165.624C383.883 165.624 384.006 165.624 384.123 165.624C384.24 165.624 384.326 165.624 384.379 165.624C384.742 165.624 385.099 165.592 385.451 165.528C385.814 165.453 386.139 165.325 386.427 165.144C386.715 164.963 386.944 164.707 387.115 164.376C387.296 164.045 387.387 163.624 387.387 163.112C387.387 162.675 387.302 162.312 387.131 162.024C386.971 161.725 386.752 161.491 386.475 161.32C386.208 161.139 385.904 161.011 385.563 160.936C385.222 160.861 384.88 160.824 384.539 160.824Z" fill="#4D87AB"/>
<path d="M389.915 159.136C389.915 158.848 390.011 158.619 390.203 158.448C390.395 158.277 390.63 158.192 390.907 158.192C391.28 158.192 391.579 158.304 391.803 158.528C392.027 158.752 392.139 159.088 392.139 159.536C392.139 159.963 392.075 160.336 391.947 160.656C391.83 160.965 391.68 161.227 391.499 161.44C391.328 161.653 391.147 161.824 390.955 161.952C390.763 162.069 390.592 162.155 390.443 162.208L389.963 161.552C390.262 161.403 390.518 161.211 390.731 160.976C390.955 160.741 391.067 160.443 391.067 160.08C391.024 160.091 390.96 160.096 390.875 160.096C390.63 160.096 390.406 160.005 390.203 159.824C390.011 159.643 389.915 159.413 389.915 159.136Z" fill="#4D87AB"/>
<path d="M392.286 171H388.718V170.224C388.782 170.171 388.862 170.101 388.958 170.016C389.054 169.925 389.16 169.824 389.278 169.712C389.4 169.6 389.528 169.477 389.662 169.344C389.795 169.211 389.926 169.072 390.054 168.928C390.235 168.725 390.392 168.541 390.526 168.376C390.664 168.211 390.776 168.056 390.862 167.912C390.952 167.763 391.019 167.619 391.062 167.48C391.104 167.336 391.126 167.189 391.126 167.04C391.126 166.933 391.102 166.829 391.054 166.728C391.006 166.627 390.939 166.539 390.854 166.464C390.768 166.384 390.664 166.323 390.542 166.28C390.424 166.232 390.294 166.208 390.15 166.208C389.958 166.208 389.782 166.237 389.622 166.296C389.467 166.355 389.304 166.453 389.134 166.592L388.718 165.856C388.942 165.696 389.19 165.563 389.462 165.456C389.739 165.344 390.056 165.288 390.414 165.288C390.643 165.288 390.862 165.32 391.07 165.384C391.283 165.448 391.47 165.544 391.63 165.672C391.795 165.795 391.926 165.949 392.022 166.136C392.118 166.323 392.166 166.539 392.166 166.784C392.166 166.955 392.15 167.115 392.118 167.264C392.091 167.408 392.046 167.555 391.982 167.704C391.923 167.848 391.843 167.997 391.742 168.152C391.646 168.307 391.528 168.475 391.39 168.656C391.283 168.795 391.166 168.936 391.038 169.08C390.915 169.219 390.792 169.352 390.67 169.48C390.547 169.608 390.424 169.728 390.302 169.84C390.184 169.952 390.078 170.045 389.982 170.12H392.286V171Z" fill="#4D87AB"/>
<rect x="252.5" y="0.5" width="239" height="239" stroke="#E2DAD2"/>
<line x1="35.6417" y1="349.233" x2="133.642" y2="431.233" stroke="#DB5475" stroke-width="2" stroke-dasharray="4 4"/>
<line x1="133" y1="431" x2="217" y2="431" stroke="#E2DAD2" stroke-width="2"/>
<line x1="65.6428" y1="374.234" x2="133.614" y2="431.268" stroke="#E2DAD2" stroke-width="2"/>
<circle cx="217" cy="431" r="5.5" fill="#98A16A" stroke="#E2DAD2"/>
<circle cx="133" cy="431" r="5.5" fill="#98A16A" stroke="#E2DAD2"/>
<circle cx="66" cy="375" r="5.5" fill="#98A16A" stroke="#E2DAD2"/>
<line x1="38.2656" y1="350.321" x2="111.266" y2="271.321" stroke="#E2DAD2" stroke-width="2"/>
<line x1="39.4438" y1="351.77" x2="80.4438" y2="430.77" stroke="#E2DAD2" stroke-dasharray="2 2"/>
<line x1="81.226" y1="431.554" x2="156.226" y2="469.554" stroke="#E2DAD2" stroke-dasharray="2 2"/>
<circle cx="112" cy="271" r="5.5" fill="black" stroke="#E2DAD2"/>
<circle cx="39" cy="351" r="5.5" fill="black" stroke="#E2DAD2" stroke-dasharray="2 2"/>
<circle cx="81" cy="431" r="5.5" fill="black" stroke="#E2DAD2" stroke-dasharray="2 2"/>
<circle cx="156" cy="469" r="5.5" fill="black" stroke="#E2DAD2" stroke-dasharray="2 2"/>
<path d="M82.1071 311.8H84.7631V320.312C84.7631 320.963 84.8698 321.421 85.0831 321.688C85.3071 321.955 85.6325 322.088 86.0591 322.088C86.3578 322.088 86.6405 322.035 86.9071 321.928C87.1845 321.821 87.4885 321.64 87.8191 321.384L88.3951 322.264C88.2245 322.413 88.0378 322.547 87.8351 322.664C87.6325 322.781 87.4245 322.883 87.2111 322.968C86.9978 323.043 86.7845 323.101 86.5711 323.144C86.3578 323.187 86.1605 323.208 85.9791 323.208C85.5845 323.208 85.2325 323.155 84.9231 323.048C84.6138 322.952 84.3525 322.792 84.1391 322.568C83.9365 322.344 83.7818 322.051 83.6751 321.688C83.5685 321.315 83.5151 320.856 83.5151 320.312V312.872H82.1071V311.8Z" fill="#4D87AB"/>
<path d="M89.9496 322.12H91.1736V318.624L90.1176 319.432L89.6376 318.792L91.4616 317.4H92.1656V322.12H93.3656V323H89.9496V322.12Z" fill="#4D87AB"/>
<path d="M87.1071 404.8H89.7631V413.312C89.7631 413.963 89.8698 414.421 90.0831 414.688C90.3071 414.955 90.6325 415.088 91.0591 415.088C91.3578 415.088 91.6405 415.035 91.9071 414.928C92.1845 414.821 92.4885 414.64 92.8191 414.384L93.3951 415.264C93.2245 415.413 93.0378 415.547 92.8351 415.664C92.6325 415.781 92.4245 415.883 92.2111 415.968C91.9978 416.043 91.7845 416.101 91.5711 416.144C91.3578 416.187 91.1605 416.208 90.9791 416.208C90.5845 416.208 90.2325 416.155 89.9231 416.048C89.6138 415.952 89.3525 415.792 89.1391 415.568C88.9365 415.344 88.7818 415.051 88.6751 414.688C88.5685 414.315 88.5151 413.856 88.5151 413.312V405.872H87.1071V404.8Z" fill="#4D87AB"/>
<path d="M98.2856 416H94.7176V415.224C94.7816 415.171 94.8616 415.101 94.9576 415.016C95.0536 414.925 95.1602 414.824 95.2776 414.712C95.4002 414.6 95.5282 414.477 95.6616 414.344C95.7949 414.211 95.9256 414.072 96.0536 413.928C96.2349 413.725 96.3922 413.541 96.5256 413.376C96.6642 413.211 96.7762 413.056 96.8616 412.912C96.9522 412.763 97.0189 412.619 97.0616 412.48C97.1042 412.336 97.1256 412.189 97.1256 412.04C97.1256 411.933 97.1016 411.829 97.0536 411.728C97.0056 411.627 96.9389 411.539 96.8536 411.464C96.7682 411.384 96.6642 411.323 96.5416 411.28C96.4242 411.232 96.2936 411.208 96.1496 411.208C95.9576 411.208 95.7816 411.237 95.6216 411.296C95.4669 411.355 95.3042 411.453 95.1336 411.592L94.7176 410.856C94.9416 410.696 95.1896 410.563 95.4616 410.456C95.7389 410.344 96.0562 410.288 96.4136 410.288C96.6429 410.288 96.8616 410.32 97.0696 410.384C97.2829 410.448 97.4696 410.544 97.6296 410.672C97.7949 410.795 97.9256 410.949 98.0216 411.136C98.1176 411.323 98.1656 411.539 98.1656 411.784C98.1656 411.955 98.1496 412.115 98.1176 412.264C98.0909 412.408 98.0456 412.555 97.9816 412.704C97.9229 412.848 97.8429 412.997 97.7416 413.152C97.6456 413.307 97.5282 413.475 97.3896 413.656C97.2829 413.795 97.1656 413.936 97.0376 414.08C96.9149 414.219 96.7922 414.352 96.6696 414.48C96.5469 414.608 96.4242 414.728 96.3016 414.84C96.1842 414.952 96.0776 415.045 95.9816 415.12H98.2856V416Z" fill="#4D87AB"/>
<path d="M171.107 438.8H173.763V447.312C173.763 447.963 173.87 448.421 174.083 448.688C174.307 448.955 174.632 449.088 175.059 449.088C175.358 449.088 175.64 449.035 175.907 448.928C176.184 448.821 176.488 448.64 176.819 448.384L177.395 449.264C177.224 449.413 177.038 449.547 176.835 449.664C176.632 449.781 176.424 449.883 176.211 449.968C175.998 450.043 175.784 450.101 175.571 450.144C175.358 450.187 175.16 450.208 174.979 450.208C174.584 450.208 174.232 450.155 173.923 450.048C173.614 449.952 173.352 449.792 173.139 449.568C172.936 449.344 172.782 449.051 172.675 448.688C172.568 448.315 172.515 447.856 172.515 447.312V439.872H171.107V438.8Z" fill="#4D87AB"/>
<path d="M180.086 449.232C180.262 449.232 180.422 449.211 180.566 449.168C180.715 449.12 180.84 449.056 180.942 448.976C181.048 448.891 181.131 448.795 181.19 448.688C181.248 448.576 181.278 448.456 181.278 448.328C181.278 448.168 181.243 448.035 181.174 447.928C181.11 447.816 181.019 447.728 180.902 447.664C180.784 447.6 180.643 447.555 180.478 447.528C180.312 447.501 180.134 447.488 179.942 447.488H179.494V446.92L180.838 445.28H178.814V444.4H182.078V445.128L180.67 446.736H180.854C181.04 446.736 181.222 446.768 181.398 446.832C181.574 446.896 181.728 446.992 181.862 447.12C182 447.248 182.11 447.408 182.19 447.6C182.275 447.792 182.318 448.013 182.318 448.264C182.318 448.568 182.254 448.835 182.126 449.064C182.003 449.293 181.838 449.488 181.63 449.648C181.427 449.803 181.192 449.92 180.926 450C180.659 450.075 180.384 450.112 180.102 450.112C179.862 450.112 179.622 450.091 179.382 450.048C179.142 450.005 178.91 449.939 178.686 449.848L178.966 448.984C179.014 449.011 179.078 449.037 179.158 449.064C179.243 449.091 179.336 449.117 179.438 449.144C179.544 449.171 179.651 449.192 179.758 449.208C179.87 449.224 179.979 449.232 180.086 449.232Z" fill="#4D87AB"/>
<path d="M90.8031 265.912C91.2085 265.816 91.6458 265.752 92.1151 265.72C92.5845 265.688 93.0485 265.672 93.5071 265.672C93.9978 265.672 94.4938 265.72 94.9951 265.816C95.5071 265.912 95.9711 266.088 96.3871 266.344C96.8031 266.6 97.1391 266.952 97.3951 267.4C97.6618 267.848 97.7951 268.419 97.7951 269.112C97.7951 269.795 97.6725 270.371 97.4271 270.84C97.1818 271.309 96.8565 271.693 96.4511 271.992C96.0458 272.28 95.5818 272.488 95.0591 272.616C94.5365 272.744 93.9978 272.808 93.4431 272.808C93.3898 272.808 93.2991 272.808 93.1711 272.808C93.0538 272.808 92.9258 272.808 92.7871 272.808C92.6591 272.797 92.5311 272.787 92.4031 272.776C92.2751 272.765 92.1845 272.755 92.1311 272.744V277H90.8031V265.912ZM93.5391 266.824C93.2618 266.824 92.9951 266.829 92.7391 266.84C92.4831 266.851 92.2805 266.877 92.1311 266.92V271.56C92.1845 271.581 92.2698 271.597 92.3871 271.608C92.5045 271.608 92.6271 271.613 92.7551 271.624C92.8831 271.624 93.0058 271.624 93.1231 271.624C93.2405 271.624 93.3258 271.624 93.3791 271.624C93.7418 271.624 94.0991 271.592 94.4511 271.528C94.8138 271.453 95.1391 271.325 95.4271 271.144C95.7151 270.963 95.9445 270.707 96.1151 270.376C96.2965 270.045 96.3871 269.624 96.3871 269.112C96.3871 268.675 96.3018 268.312 96.1311 268.024C95.9711 267.725 95.7525 267.491 95.4751 267.32C95.2085 267.139 94.9045 267.011 94.5631 266.936C94.2218 266.861 93.8805 266.824 93.5391 266.824Z" fill="#4D87AB"/>
<path d="M97.4056 274.192C97.4056 273.707 97.4562 273.283 97.5576 272.92C97.6589 272.552 97.8002 272.248 97.9816 272.008C98.1682 271.768 98.3896 271.589 98.6456 271.472C98.9016 271.349 99.1869 271.288 99.5016 271.288C100.174 271.288 100.691 271.525 101.054 272C101.416 272.469 101.598 273.2 101.598 274.192C101.598 274.683 101.547 275.112 101.446 275.48C101.344 275.843 101.2 276.147 101.014 276.392C100.832 276.632 100.611 276.813 100.35 276.936C100.094 277.053 99.8082 277.112 99.4936 277.112C98.8162 277.112 98.2989 276.864 97.9416 276.368C97.5842 275.867 97.4056 275.141 97.4056 274.192ZM100.574 274.192C100.574 274.107 100.571 274.027 100.566 273.952C100.566 273.872 100.563 273.795 100.558 273.72L98.5976 275.504C98.7629 275.989 99.0642 276.232 99.5016 276.232C99.8429 276.232 100.107 276.069 100.294 275.744C100.48 275.419 100.574 274.901 100.574 274.192ZM98.4296 274.192C98.4296 274.272 98.4296 274.349 98.4296 274.424C98.4349 274.493 98.4402 274.565 98.4456 274.64L100.398 272.856C100.238 272.397 99.9362 272.168 99.4936 272.168C99.1522 272.168 98.8882 272.333 98.7016 272.664C98.5202 272.989 98.4296 273.499 98.4296 274.192Z" fill="#4D87AB"/>
<path d="M20.8031 346.912C21.2085 346.816 21.6458 346.752 22.1151 346.72C22.5845 346.688 23.0485 346.672 23.5071 346.672C23.9978 346.672 24.4938 346.72 24.9951 346.816C25.5071 346.912 25.9711 347.088 26.3871 347.344C26.8031 347.6 27.1391 347.952 27.3951 348.4C27.6618 348.848 27.7951 349.419 27.7951 350.112C27.7951 350.795 27.6725 351.371 27.4271 351.84C27.1818 352.309 26.8565 352.693 26.4511 352.992C26.0458 353.28 25.5818 353.488 25.0591 353.616C24.5365 353.744 23.9978 353.808 23.4431 353.808C23.3898 353.808 23.2991 353.808 23.1711 353.808C23.0538 353.808 22.9258 353.808 22.7871 353.808C22.6591 353.797 22.5311 353.787 22.4031 353.776C22.2751 353.765 22.1845 353.755 22.1311 353.744V358H20.8031V346.912ZM23.5391 347.824C23.2618 347.824 22.9951 347.829 22.7391 347.84C22.4831 347.851 22.2805 347.877 22.1311 347.92V352.56C22.1845 352.581 22.2698 352.597 22.3871 352.608C22.5045 352.608 22.6271 352.613 22.7551 352.624C22.8831 352.624 23.0058 352.624 23.1231 352.624C23.2405 352.624 23.3258 352.624 23.3791 352.624C23.7418 352.624 24.0991 352.592 24.4511 352.528C24.8138 352.453 25.1391 352.325 25.4271 352.144C25.7151 351.963 25.9445 351.707 26.1151 351.376C26.2965 351.045 26.3871 350.624 26.3871 350.112C26.3871 349.675 26.3018 349.312 26.1311 349.024C25.9711 348.725 25.7525 348.491 25.4751 348.32C25.2085 348.139 24.9045 348.011 24.5631 347.936C24.2218 347.861 23.8805 347.824 23.5391 347.824Z" fill="#4D87AB"/>
<path d="M27.9496 357.12H29.1736V353.624L28.1176 354.432L27.6376 353.792L29.4616 352.4H30.1656V357.12H31.3656V358H27.9496V357.12Z" fill="#4D87AB"/>
<path d="M213.803 411.912C214.208 411.816 214.646 411.752 215.115 411.72C215.584 411.688 216.048 411.672 216.507 411.672C216.998 411.672 217.494 411.72 217.995 411.816C218.507 411.912 218.971 412.088 219.387 412.344C219.803 412.6 220.139 412.952 220.395 413.4C220.662 413.848 220.795 414.419 220.795 415.112C220.795 415.795 220.672 416.371 220.427 416.84C220.182 417.309 219.856 417.693 219.451 417.992C219.046 418.28 218.582 418.488 218.059 418.616C217.536 418.744 216.998 418.808 216.443 418.808C216.39 418.808 216.299 418.808 216.171 418.808C216.054 418.808 215.926 418.808 215.787 418.808C215.659 418.797 215.531 418.787 215.403 418.776C215.275 418.765 215.184 418.755 215.131 418.744V423H213.803V411.912ZM216.539 412.824C216.262 412.824 215.995 412.829 215.739 412.84C215.483 412.851 215.28 412.877 215.131 412.92V417.56C215.184 417.581 215.27 417.597 215.387 417.608C215.504 417.608 215.627 417.613 215.755 417.624C215.883 417.624 216.006 417.624 216.123 417.624C216.24 417.624 216.326 417.624 216.379 417.624C216.742 417.624 217.099 417.592 217.451 417.528C217.814 417.453 218.139 417.325 218.427 417.144C218.715 416.963 218.944 416.707 219.115 416.376C219.296 416.045 219.387 415.624 219.387 415.112C219.387 414.675 219.302 414.312 219.131 414.024C218.971 413.725 218.752 413.491 218.475 413.32C218.208 413.139 217.904 413.011 217.563 412.936C217.222 412.861 216.88 412.824 216.539 412.824Z" fill="#4D87AB"/>
<path d="M221.915 411.136C221.915 410.848 222.011 410.619 222.203 410.448C222.395 410.277 222.63 410.192 222.907 410.192C223.28 410.192 223.579 410.304 223.803 410.528C224.027 410.752 224.139 411.088 224.139 411.536C224.139 411.963 224.075 412.336 223.947 412.656C223.83 412.965 223.68 413.227 223.499 413.44C223.328 413.653 223.147 413.824 222.955 413.952C222.763 414.069 222.592 414.155 222.443 414.208L221.963 413.552C222.262 413.403 222.518 413.211 222.731 412.976C222.955 412.741 223.067 412.443 223.067 412.08C223.024 412.091 222.96 412.096 222.875 412.096C222.63 412.096 222.406 412.005 222.203 411.824C222.011 411.643 221.915 411.413 221.915 411.136Z" fill="#4D87AB"/>
<path d="M222.086 422.232C222.262 422.232 222.422 422.211 222.566 422.168C222.715 422.12 222.84 422.056 222.942 421.976C223.048 421.891 223.131 421.795 223.19 421.688C223.248 421.576 223.278 421.456 223.278 421.328C223.278 421.168 223.243 421.035 223.174 420.928C223.11 420.816 223.019 420.728 222.902 420.664C222.784 420.6 222.643 420.555 222.478 420.528C222.312 420.501 222.134 420.488 221.942 420.488H221.494V419.92L222.838 418.28H220.814V417.4H224.078V418.128L222.67 419.736H222.854C223.04 419.736 223.222 419.768 223.398 419.832C223.574 419.896 223.728 419.992 223.862 420.12C224 420.248 224.11 420.408 224.19 420.6C224.275 420.792 224.318 421.013 224.318 421.264C224.318 421.568 224.254 421.835 224.126 422.064C224.003 422.293 223.838 422.488 223.63 422.648C223.427 422.803 223.192 422.92 222.926 423C222.659 423.075 222.384 423.112 222.102 423.112C221.862 423.112 221.622 423.091 221.382 423.048C221.142 423.005 220.91 422.939 220.686 422.848L220.966 421.984C221.014 422.011 221.078 422.037 221.158 422.064C221.243 422.091 221.336 422.117 221.438 422.144C221.544 422.171 221.651 422.192 221.758 422.208C221.87 422.224 221.979 422.232 222.086 422.232Z" fill="#4D87AB"/>
<path d="M129.803 411.912C130.208 411.816 130.646 411.752 131.115 411.72C131.584 411.688 132.048 411.672 132.507 411.672C132.998 411.672 133.494 411.72 133.995 411.816C134.507 411.912 134.971 412.088 135.387 412.344C135.803 412.6 136.139 412.952 136.395 413.4C136.662 413.848 136.795 414.419 136.795 415.112C136.795 415.795 136.672 416.371 136.427 416.84C136.182 417.309 135.856 417.693 135.451 417.992C135.046 418.28 134.582 418.488 134.059 418.616C133.536 418.744 132.998 418.808 132.443 418.808C132.39 418.808 132.299 418.808 132.171 418.808C132.054 418.808 131.926 418.808 131.787 418.808C131.659 418.797 131.531 418.787 131.403 418.776C131.275 418.765 131.184 418.755 131.131 418.744V423H129.803V411.912ZM132.539 412.824C132.262 412.824 131.995 412.829 131.739 412.84C131.483 412.851 131.28 412.877 131.131 412.92V417.56C131.184 417.581 131.27 417.597 131.387 417.608C131.504 417.608 131.627 417.613 131.755 417.624C131.883 417.624 132.006 417.624 132.123 417.624C132.24 417.624 132.326 417.624 132.379 417.624C132.742 417.624 133.099 417.592 133.451 417.528C133.814 417.453 134.139 417.325 134.427 417.144C134.715 416.963 134.944 416.707 135.115 416.376C135.296 416.045 135.387 415.624 135.387 415.112C135.387 414.675 135.302 414.312 135.131 414.024C134.971 413.725 134.752 413.491 134.475 413.32C134.208 413.139 133.904 413.011 133.563 412.936C133.222 412.861 132.88 412.824 132.539 412.824Z" fill="#4D87AB"/>
<path d="M137.915 411.136C137.915 410.848 138.011 410.619 138.203 410.448C138.395 410.277 138.63 410.192 138.907 410.192C139.28 410.192 139.579 410.304 139.803 410.528C140.027 410.752 140.139 411.088 140.139 411.536C140.139 411.963 140.075 412.336 139.947 412.656C139.83 412.965 139.68 413.227 139.499 413.44C139.328 413.653 139.147 413.824 138.955 413.952C138.763 414.069 138.592 414.155 138.443 414.208L137.963 413.552C138.262 413.403 138.518 413.211 138.731 412.976C138.955 412.741 139.067 412.443 139.067 412.08C139.024 412.091 138.96 412.096 138.875 412.096C138.63 412.096 138.406 412.005 138.203 411.824C138.011 411.643 137.915 411.413 137.915 411.136Z" fill="#4D87AB"/>
<path d="M140.286 423H136.718V422.224C136.782 422.171 136.862 422.101 136.958 422.016C137.054 421.925 137.16 421.824 137.278 421.712C137.4 421.6 137.528 421.477 137.662 421.344C137.795 421.211 137.926 421.072 138.054 420.928C138.235 420.725 138.392 420.541 138.526 420.376C138.664 420.211 138.776 420.056 138.862 419.912C138.952 419.763 139.019 419.619 139.062 419.48C139.104 419.336 139.126 419.189 139.126 419.04C139.126 418.933 139.102 418.829 139.054 418.728C139.006 418.627 138.939 418.539 138.854 418.464C138.768 418.384 138.664 418.323 138.542 418.28C138.424 418.232 138.294 418.208 138.15 418.208C137.958 418.208 137.782 418.237 137.622 418.296C137.467 418.355 137.304 418.453 137.134 418.592L136.718 417.856C136.942 417.696 137.19 417.563 137.462 417.456C137.739 417.344 138.056 417.288 138.414 417.288C138.643 417.288 138.862 417.32 139.07 417.384C139.283 417.448 139.47 417.544 139.63 417.672C139.795 417.795 139.926 417.949 140.022 418.136C140.118 418.323 140.166 418.539 140.166 418.784C140.166 418.955 140.15 419.115 140.118 419.264C140.091 419.408 140.046 419.555 139.982 419.704C139.923 419.848 139.843 419.997 139.742 420.152C139.646 420.307 139.528 420.475 139.39 420.656C139.283 420.795 139.166 420.936 139.038 421.08C138.915 421.219 138.792 421.352 138.67 421.48C138.547 421.608 138.424 421.728 138.302 421.84C138.184 421.952 138.078 422.045 137.982 422.12H140.286V423Z" fill="#4D87AB"/>
<path d="M79.8031 367.912C80.2085 367.816 80.6458 367.752 81.1151 367.72C81.5845 367.688 82.0485 367.672 82.5071 367.672C82.9978 367.672 83.4938 367.72 83.9951 367.816C84.5071 367.912 84.9711 368.088 85.3871 368.344C85.8031 368.6 86.1391 368.952 86.3951 369.4C86.6618 369.848 86.7951 370.419 86.7951 371.112C86.7951 371.795 86.6725 372.371 86.4271 372.84C86.1818 373.309 85.8565 373.693 85.4511 373.992C85.0458 374.28 84.5818 374.488 84.0591 374.616C83.5365 374.744 82.9978 374.808 82.4431 374.808C82.3898 374.808 82.2991 374.808 82.1711 374.808C82.0538 374.808 81.9258 374.808 81.7871 374.808C81.6591 374.797 81.5311 374.787 81.4031 374.776C81.2751 374.765 81.1845 374.755 81.1311 374.744V379H79.8031V367.912ZM82.5391 368.824C82.2618 368.824 81.9951 368.829 81.7391 368.84C81.4831 368.851 81.2805 368.877 81.1311 368.92V373.56C81.1845 373.581 81.2698 373.597 81.3871 373.608C81.5045 373.608 81.6271 373.613 81.7551 373.624C81.8831 373.624 82.0058 373.624 82.1231 373.624C82.2405 373.624 82.3258 373.624 82.3791 373.624C82.7418 373.624 83.0991 373.592 83.4511 373.528C83.8138 373.453 84.1391 373.325 84.4271 373.144C84.7151 372.963 84.9445 372.707 85.1151 372.376C85.2965 372.045 85.3871 371.624 85.3871 371.112C85.3871 370.675 85.3018 370.312 85.1311 370.024C84.9711 369.725 84.7525 369.491 84.4751 369.32C84.2085 369.139 83.9045 369.011 83.5631 368.936C83.2218 368.861 82.8805 368.824 82.5391 368.824Z" fill="#4D87AB"/>
<path d="M87.9151 367.136C87.9151 366.848 88.0111 366.619 88.2031 366.448C88.3951 366.277 88.6298 366.192 88.9071 366.192C89.2805 366.192 89.5791 366.304 89.8031 366.528C90.0271 366.752 90.1391 367.088 90.1391 367.536C90.1391 367.963 90.0751 368.336 89.9471 368.656C89.8298 368.965 89.6805 369.227 89.4991 369.44C89.3285 369.653 89.1471 369.824 88.9551 369.952C88.7631 370.069 88.5925 370.155 88.4431 370.208L87.9631 369.552C88.2618 369.403 88.5178 369.211 88.7311 368.976C88.9551 368.741 89.0671 368.443 89.0671 368.08C89.0245 368.091 88.9605 368.096 88.8751 368.096C88.6298 368.096 88.4058 368.005 88.2031 367.824C88.0111 367.643 87.9151 367.413 87.9151 367.136Z" fill="#4D87AB"/>
<path d="M86.9496 378.12H88.1736V374.624L87.1176 375.432L86.6376 374.792L88.4616 373.4H89.1656V378.12H90.3656V379H86.9496V378.12Z" fill="#4D87AB"/>
<rect x="0.5" y="252.5" width="239" height="239" stroke="#E2DAD2"/>
<line x1="363.913" y1="267.409" x2="316.913" y2="372.409" stroke="#DB5475" stroke-width="2" stroke-dasharray="4 4"/>
<line x1="358.628" y1="279.409" x2="314.913" y2="377.071" stroke="#E2DAD2" stroke-width="2"/>
<line x1="384" y1="428" x2="468" y2="428" stroke="#E2DAD2" stroke-width="2"/>
<line x1="316.643" y1="371.234" x2="384.614" y2="428.268" stroke="#E2DAD2" stroke-width="2"/>
<circle cx="468" cy="428" r="5.5" fill="#98A16A" stroke="#E2DAD2"/>
<circle cx="384" cy="428" r="5.5" fill="#98A16A" stroke="#E2DAD2"/>
<circle cx="317" cy="372" r="5.5" fill="#98A16A" stroke="#E2DAD2"/>
<circle cx="358" cy="281" r="5.5" fill="#98A16A" stroke="#E2DAD2"/>
<line x1="289.633" y1="347.661" x2="362.633" y2="268.661" stroke="#E2DAD2" stroke-dasharray="2 2"/>
<line x1="290.444" y1="348.77" x2="331.444" y2="427.77" stroke="#E2DAD2" stroke-dasharray="2 2"/>
<line x1="332.226" y1="428.554" x2="407.226" y2="466.554" stroke="#E2DAD2" stroke-dasharray="2 2"/>
<circle cx="363" cy="268" r="5.5" fill="black" stroke="#E2DAD2" stroke-dasharray="2 2"/>
<circle cx="290" cy="348" r="5.5" fill="black" stroke="#E2DAD2" stroke-dasharray="2 2"/>
<circle cx="332" cy="428" r="5.5" fill="black" stroke="#E2DAD2" stroke-dasharray="2 2"/>
<circle cx="407" cy="466" r="5.5" fill="black" stroke="#E2DAD2" stroke-dasharray="2 2"/>
<path d="M323.545 314.8H326.201V323.312C326.201 323.963 326.307 324.421 326.521 324.688C326.745 324.955 327.07 325.088 327.497 325.088C327.795 325.088 328.078 325.035 328.345 324.928C328.622 324.821 328.926 324.64 329.257 324.384L329.833 325.264C329.662 325.413 329.475 325.547 329.273 325.664C329.07 325.781 328.862 325.883 328.649 325.968C328.435 326.043 328.222 326.101 328.009 326.144C327.795 326.187 327.598 326.208 327.417 326.208C327.022 326.208 326.67 326.155 326.361 326.048C326.051 325.952 325.79 325.792 325.577 325.568C325.374 325.344 325.219 325.051 325.113 324.688C325.006 324.315 324.953 323.856 324.953 323.312V315.872H323.545V314.8Z" fill="#4D87AB"/>
<path d="M331.387 325.12H332.611V321.624L331.555 322.432L331.075 321.792L332.899 320.4H333.603V325.12H334.803V326H331.387V325.12Z" fill="#4D87AB"/>
<path d="M337.545 401.8H340.201V410.312C340.201 410.963 340.307 411.421 340.521 411.688C340.745 411.955 341.07 412.088 341.497 412.088C341.795 412.088 342.078 412.035 342.345 411.928C342.622 411.821 342.926 411.64 343.257 411.384L343.833 412.264C343.662 412.413 343.475 412.547 343.273 412.664C343.07 412.781 342.862 412.883 342.649 412.968C342.435 413.043 342.222 413.101 342.009 413.144C341.795 413.187 341.598 413.208 341.417 413.208C341.022 413.208 340.67 413.155 340.361 413.048C340.051 412.952 339.79 412.792 339.577 412.568C339.374 412.344 339.219 412.051 339.113 411.688C339.006 411.315 338.953 410.856 338.953 410.312V402.872H337.545V401.8Z" fill="#4D87AB"/>
<path d="M348.723 413H345.155V412.224C345.219 412.171 345.299 412.101 345.395 412.016C345.491 411.925 345.598 411.824 345.715 411.712C345.838 411.6 345.966 411.477 346.099 411.344C346.232 411.211 346.363 411.072 346.491 410.928C346.672 410.725 346.83 410.541 346.963 410.376C347.102 410.211 347.214 410.056 347.299 409.912C347.39 409.763 347.456 409.619 347.499 409.48C347.542 409.336 347.563 409.189 347.563 409.04C347.563 408.933 347.539 408.829 347.491 408.728C347.443 408.627 347.376 408.539 347.291 408.464C347.206 408.384 347.102 408.323 346.979 408.28C346.862 408.232 346.731 408.208 346.587 408.208C346.395 408.208 346.219 408.237 346.059 408.296C345.904 408.355 345.742 408.453 345.571 408.592L345.155 407.856C345.379 407.696 345.627 407.563 345.899 407.456C346.176 407.344 346.494 407.288 346.851 407.288C347.08 407.288 347.299 407.32 347.507 407.384C347.72 407.448 347.907 407.544 348.067 407.672C348.232 407.795 348.363 407.949 348.459 408.136C348.555 408.323 348.603 408.539 348.603 408.784C348.603 408.955 348.587 409.115 348.555 409.264C348.528 409.408 348.483 409.555 348.419 409.704C348.36 409.848 348.28 409.997 348.179 410.152C348.083 410.307 347.966 410.475 347.827 410.656C347.72 410.795 347.603 410.936 347.475 411.08C347.352 411.219 347.23 411.352 347.107 411.48C346.984 411.608 346.862 411.728 346.739 411.84C346.622 411.952 346.515 412.045 346.419 412.12H348.723V413Z" fill="#4D87AB"/>
<path d="M421.545 435.8H424.201V444.312C424.201 444.963 424.307 445.421 424.521 445.688C424.745 445.955 425.07 446.088 425.497 446.088C425.795 446.088 426.078 446.035 426.345 445.928C426.622 445.821 426.926 445.64 427.257 445.384L427.833 446.264C427.662 446.413 427.475 446.547 427.273 446.664C427.07 446.781 426.862 446.883 426.649 446.968C426.435 447.043 426.222 447.101 426.009 447.144C425.795 447.187 425.598 447.208 425.417 447.208C425.022 447.208 424.67 447.155 424.361 447.048C424.051 446.952 423.79 446.792 423.577 446.568C423.374 446.344 423.219 446.051 423.113 445.688C423.006 445.315 422.953 444.856 422.953 444.312V436.872H421.545V435.8Z" fill="#4D87AB"/>
<path d="M430.523 446.232C430.699 446.232 430.859 446.211 431.003 446.168C431.152 446.12 431.278 446.056 431.379 445.976C431.486 445.891 431.568 445.795 431.627 445.688C431.686 445.576 431.715 445.456 431.715 445.328C431.715 445.168 431.68 445.035 431.611 444.928C431.547 444.816 431.456 444.728 431.339 444.664C431.222 444.6 431.08 444.555 430.915 444.528C430.75 444.501 430.571 444.488 430.379 444.488H429.931V443.92L431.275 442.28H429.251V441.4H432.515V442.128L431.107 443.736H431.291C431.478 443.736 431.659 443.768 431.835 443.832C432.011 443.896 432.166 443.992 432.299 444.12C432.438 444.248 432.547 444.408 432.627 444.6C432.712 444.792 432.755 445.013 432.755 445.264C432.755 445.568 432.691 445.835 432.563 446.064C432.44 446.293 432.275 446.488 432.067 446.648C431.864 446.803 431.63 446.92 431.363 447C431.096 447.075 430.822 447.112 430.539 447.112C430.299 447.112 430.059 447.091 429.819 447.048C429.579 447.005 429.347 446.939 429.123 446.848L429.403 445.984C429.451 446.011 429.515 446.037 429.595 446.064C429.68 446.091 429.774 446.117 429.875 446.144C429.982 446.171 430.088 446.192 430.195 446.208C430.307 446.224 430.416 446.232 430.523 446.232Z" fill="#4D87AB"/>
<path d="M341.241 262.912C341.646 262.816 342.083 262.752 342.553 262.72C343.022 262.688 343.486 262.672 343.945 262.672C344.435 262.672 344.931 262.72 345.433 262.816C345.945 262.912 346.409 263.088 346.825 263.344C347.241 263.6 347.577 263.952 347.833 264.4C348.099 264.848 348.233 265.419 348.233 266.112C348.233 266.795 348.11 267.371 347.865 267.84C347.619 268.309 347.294 268.693 346.889 268.992C346.483 269.28 346.019 269.488 345.497 269.616C344.974 269.744 344.435 269.808 343.881 269.808C343.827 269.808 343.737 269.808 343.609 269.808C343.491 269.808 343.363 269.808 343.225 269.808C343.097 269.797 342.969 269.787 342.841 269.776C342.713 269.765 342.622 269.755 342.569 269.744V274H341.241V262.912ZM343.977 263.824C343.699 263.824 343.433 263.829 343.177 263.84C342.921 263.851 342.718 263.877 342.569 263.92V268.56C342.622 268.581 342.707 268.597 342.825 268.608C342.942 268.608 343.065 268.613 343.193 268.624C343.321 268.624 343.443 268.624 343.561 268.624C343.678 268.624 343.763 268.624 343.817 268.624C344.179 268.624 344.537 268.592 344.889 268.528C345.251 268.453 345.577 268.325 345.865 268.144C346.153 267.963 346.382 267.707 346.553 267.376C346.734 267.045 346.825 266.624 346.825 266.112C346.825 265.675 346.739 265.312 346.569 265.024C346.409 264.725 346.19 264.491 345.913 264.32C345.646 264.139 345.342 264.011 345.001 263.936C344.659 263.861 344.318 263.824 343.977 263.824Z" fill="#4D87AB"/>
<path d="M347.843 271.192C347.843 270.707 347.894 270.283 347.995 269.92C348.096 269.552 348.238 269.248 348.419 269.008C348.606 268.768 348.827 268.589 349.083 268.472C349.339 268.349 349.624 268.288 349.939 268.288C350.611 268.288 351.128 268.525 351.491 269C351.854 269.469 352.035 270.2 352.035 271.192C352.035 271.683 351.984 272.112 351.883 272.48C351.782 272.843 351.638 273.147 351.451 273.392C351.27 273.632 351.048 273.813 350.787 273.936C350.531 274.053 350.246 274.112 349.931 274.112C349.254 274.112 348.736 273.864 348.379 273.368C348.022 272.867 347.843 272.141 347.843 271.192ZM351.011 271.192C351.011 271.107 351.008 271.027 351.003 270.952C351.003 270.872 351 270.795 350.995 270.72L349.035 272.504C349.2 272.989 349.502 273.232 349.939 273.232C350.28 273.232 350.544 273.069 350.731 272.744C350.918 272.419 351.011 271.901 351.011 271.192ZM348.867 271.192C348.867 271.272 348.867 271.349 348.867 271.424C348.872 271.493 348.878 271.565 348.883 271.64L350.835 269.856C350.675 269.397 350.374 269.168 349.931 269.168C349.59 269.168 349.326 269.333 349.139 269.664C348.958 269.989 348.867 270.499 348.867 271.192Z" fill="#4D87AB"/>
<path d="M464.241 408.912C464.646 408.816 465.083 408.752 465.553 408.72C466.022 408.688 466.486 408.672 466.945 408.672C467.435 408.672 467.931 408.72 468.433 408.816C468.945 408.912 469.409 409.088 469.825 409.344C470.241 409.6 470.577 409.952 470.833 410.4C471.099 410.848 471.233 411.419 471.233 412.112C471.233 412.795 471.11 413.371 470.865 413.84C470.619 414.309 470.294 414.693 469.889 414.992C469.483 415.28 469.019 415.488 468.497 415.616C467.974 415.744 467.435 415.808 466.881 415.808C466.827 415.808 466.737 415.808 466.609 415.808C466.491 415.808 466.363 415.808 466.225 415.808C466.097 415.797 465.969 415.787 465.841 415.776C465.713 415.765 465.622 415.755 465.569 415.744V420H464.241V408.912ZM466.977 409.824C466.699 409.824 466.433 409.829 466.177 409.84C465.921 409.851 465.718 409.877 465.569 409.92V414.56C465.622 414.581 465.707 414.597 465.825 414.608C465.942 414.608 466.065 414.613 466.193 414.624C466.321 414.624 466.443 414.624 466.561 414.624C466.678 414.624 466.763 414.624 466.817 414.624C467.179 414.624 467.537 414.592 467.889 414.528C468.251 414.453 468.577 414.325 468.865 414.144C469.153 413.963 469.382 413.707 469.553 413.376C469.734 413.045 469.825 412.624 469.825 412.112C469.825 411.675 469.739 411.312 469.569 411.024C469.409 410.725 469.19 410.491 468.913 410.32C468.646 410.139 468.342 410.011 468.001 409.936C467.659 409.861 467.318 409.824 466.977 409.824Z" fill="#4D87AB"/>
<path d="M472.353 408.136C472.353 407.848 472.449 407.619 472.641 407.448C472.833 407.277 473.067 407.192 473.345 407.192C473.718 407.192 474.017 407.304 474.241 407.528C474.465 407.752 474.577 408.088 474.577 408.536C474.577 408.963 474.513 409.336 474.385 409.656C474.267 409.965 474.118 410.227 473.937 410.44C473.766 410.653 473.585 410.824 473.393 410.952C473.201 411.069 473.03 411.155 472.881 411.208L472.401 410.552C472.699 410.403 472.955 410.211 473.169 409.976C473.393 409.741 473.505 409.443 473.505 409.08C473.462 409.091 473.398 409.096 473.313 409.096C473.067 409.096 472.843 409.005 472.641 408.824C472.449 408.643 472.353 408.413 472.353 408.136Z" fill="#4D87AB"/>
<path d="M472.523 419.232C472.699 419.232 472.859 419.211 473.003 419.168C473.152 419.12 473.278 419.056 473.379 418.976C473.486 418.891 473.568 418.795 473.627 418.688C473.686 418.576 473.715 418.456 473.715 418.328C473.715 418.168 473.68 418.035 473.611 417.928C473.547 417.816 473.456 417.728 473.339 417.664C473.222 417.6 473.08 417.555 472.915 417.528C472.75 417.501 472.571 417.488 472.379 417.488H471.931V416.92L473.275 415.28H471.251V414.4H474.515V415.128L473.107 416.736H473.291C473.478 416.736 473.659 416.768 473.835 416.832C474.011 416.896 474.166 416.992 474.299 417.12C474.438 417.248 474.547 417.408 474.627 417.6C474.712 417.792 474.755 418.013 474.755 418.264C474.755 418.568 474.691 418.835 474.563 419.064C474.44 419.293 474.275 419.488 474.067 419.648C473.864 419.803 473.63 419.92 473.363 420C473.096 420.075 472.822 420.112 472.539 420.112C472.299 420.112 472.059 420.091 471.819 420.048C471.579 420.005 471.347 419.939 471.123 419.848L471.403 418.984C471.451 419.011 471.515 419.037 471.595 419.064C471.68 419.091 471.774 419.117 471.875 419.144C471.982 419.171 472.088 419.192 472.195 419.208C472.307 419.224 472.416 419.232 472.523 419.232Z" fill="#4D87AB"/>
<path d="M380.241 408.912C380.646 408.816 381.083 408.752 381.553 408.72C382.022 408.688 382.486 408.672 382.945 408.672C383.435 408.672 383.931 408.72 384.433 408.816C384.945 408.912 385.409 409.088 385.825 409.344C386.241 409.6 386.577 409.952 386.833 410.4C387.099 410.848 387.233 411.419 387.233 412.112C387.233 412.795 387.11 413.371 386.865 413.84C386.619 414.309 386.294 414.693 385.889 414.992C385.483 415.28 385.019 415.488 384.497 415.616C383.974 415.744 383.435 415.808 382.881 415.808C382.827 415.808 382.737 415.808 382.609 415.808C382.491 415.808 382.363 415.808 382.225 415.808C382.097 415.797 381.969 415.787 381.841 415.776C381.713 415.765 381.622 415.755 381.569 415.744V420H380.241V408.912ZM382.977 409.824C382.699 409.824 382.433 409.829 382.177 409.84C381.921 409.851 381.718 409.877 381.569 409.92V414.56C381.622 414.581 381.707 414.597 381.825 414.608C381.942 414.608 382.065 414.613 382.193 414.624C382.321 414.624 382.443 414.624 382.561 414.624C382.678 414.624 382.763 414.624 382.817 414.624C383.179 414.624 383.537 414.592 383.889 414.528C384.251 414.453 384.577 414.325 384.865 414.144C385.153 413.963 385.382 413.707 385.553 413.376C385.734 413.045 385.825 412.624 385.825 412.112C385.825 411.675 385.739 411.312 385.569 411.024C385.409 410.725 385.19 410.491 384.913 410.32C384.646 410.139 384.342 410.011 384.001 409.936C383.659 409.861 383.318 409.824 382.977 409.824Z" fill="#4D87AB"/>
<path d="M388.353 408.136C388.353 407.848 388.449 407.619 388.641 407.448C388.833 407.277 389.067 407.192 389.345 407.192C389.718 407.192 390.017 407.304 390.241 407.528C390.465 407.752 390.577 408.088 390.577 408.536C390.577 408.963 390.513 409.336 390.385 409.656C390.267 409.965 390.118 410.227 389.937 410.44C389.766 410.653 389.585 410.824 389.393 410.952C389.201 411.069 389.03 411.155 388.881 411.208L388.401 410.552C388.699 410.403 388.955 410.211 389.169 409.976C389.393 409.741 389.505 409.443 389.505 409.08C389.462 409.091 389.398 409.096 389.313 409.096C389.067 409.096 388.843 409.005 388.641 408.824C388.449 408.643 388.353 408.413 388.353 408.136Z" fill="#4D87AB"/>
<path d="M390.723 420H387.155V419.224C387.219 419.171 387.299 419.101 387.395 419.016C387.491 418.925 387.598 418.824 387.715 418.712C387.838 418.6 387.966 418.477 388.099 418.344C388.232 418.211 388.363 418.072 388.491 417.928C388.672 417.725 388.83 417.541 388.963 417.376C389.102 417.211 389.214 417.056 389.299 416.912C389.39 416.763 389.456 416.619 389.499 416.48C389.542 416.336 389.563 416.189 389.563 416.04C389.563 415.933 389.539 415.829 389.491 415.728C389.443 415.627 389.376 415.539 389.291 415.464C389.206 415.384 389.102 415.323 388.979 415.28C388.862 415.232 388.731 415.208 388.587 415.208C388.395 415.208 388.219 415.237 388.059 415.296C387.904 415.355 387.742 415.453 387.571 415.592L387.155 414.856C387.379 414.696 387.627 414.563 387.899 414.456C388.176 414.344 388.494 414.288 388.851 414.288C389.08 414.288 389.299 414.32 389.507 414.384C389.72 414.448 389.907 414.544 390.067 414.672C390.232 414.795 390.363 414.949 390.459 415.136C390.555 415.323 390.603 415.539 390.603 415.784C390.603 415.955 390.587 416.115 390.555 416.264C390.528 416.408 390.483 416.555 390.419 416.704C390.36 416.848 390.28 416.997 390.179 417.152C390.083 417.307 389.966 417.475 389.827 417.656C389.72 417.795 389.603 417.936 389.475 418.08C389.352 418.219 389.23 418.352 389.107 418.48C388.984 418.608 388.862 418.728 388.739 418.84C388.622 418.952 388.515 419.045 388.419 419.12H390.723V420Z" fill="#4D87AB"/>
<path d="M331.241 364.912C331.646 364.816 332.083 364.752 332.553 364.72C333.022 364.688 333.486 364.672 333.945 364.672C334.435 364.672 334.931 364.72 335.433 364.816C335.945 364.912 336.409 365.088 336.825 365.344C337.241 365.6 337.577 365.952 337.833 366.4C338.099 366.848 338.233 367.419 338.233 368.112C338.233 368.795 338.11 369.371 337.865 369.84C337.619 370.309 337.294 370.693 336.889 370.992C336.483 371.28 336.019 371.488 335.497 371.616C334.974 371.744 334.435 371.808 333.881 371.808C333.827 371.808 333.737 371.808 333.609 371.808C333.491 371.808 333.363 371.808 333.225 371.808C333.097 371.797 332.969 371.787 332.841 371.776C332.713 371.765 332.622 371.755 332.569 371.744V376H331.241V364.912ZM333.977 365.824C333.699 365.824 333.433 365.829 333.177 365.84C332.921 365.851 332.718 365.877 332.569 365.92V370.56C332.622 370.581 332.707 370.597 332.825 370.608C332.942 370.608 333.065 370.613 333.193 370.624C333.321 370.624 333.443 370.624 333.561 370.624C333.678 370.624 333.763 370.624 333.817 370.624C334.179 370.624 334.537 370.592 334.889 370.528C335.251 370.453 335.577 370.325 335.865 370.144C336.153 369.963 336.382 369.707 336.553 369.376C336.734 369.045 336.825 368.624 336.825 368.112C336.825 367.675 336.739 367.312 336.569 367.024C336.409 366.725 336.19 366.491 335.913 366.32C335.646 366.139 335.342 366.011 335.001 365.936C334.659 365.861 334.318 365.824 333.977 365.824Z" fill="#4D87AB"/>
<path d="M339.353 364.136C339.353 363.848 339.449 363.619 339.641 363.448C339.833 363.277 340.067 363.192 340.345 363.192C340.718 363.192 341.017 363.304 341.241 363.528C341.465 363.752 341.577 364.088 341.577 364.536C341.577 364.963 341.513 365.336 341.385 365.656C341.267 365.965 341.118 366.227 340.937 366.44C340.766 366.653 340.585 366.824 340.393 366.952C340.201 367.069 340.03 367.155 339.881 367.208L339.401 366.552C339.699 366.403 339.955 366.211 340.169 365.976C340.393 365.741 340.505 365.443 340.505 365.08C340.462 365.091 340.398 365.096 340.313 365.096C340.067 365.096 339.843 365.005 339.641 364.824C339.449 364.643 339.353 364.413 339.353 364.136Z" fill="#4D87AB"/>
<path d="M338.387 375.12H339.611V371.624L338.555 372.432L338.075 371.792L339.899 370.4H340.603V375.12H341.803V376H338.387V375.12Z" fill="#4D87AB"/>
<path d="M371.241 277.912C371.646 277.816 372.083 277.752 372.553 277.72C373.022 277.688 373.486 277.672 373.945 277.672C374.435 277.672 374.931 277.72 375.433 277.816C375.945 277.912 376.409 278.088 376.825 278.344C377.241 278.6 377.577 278.952 377.833 279.4C378.099 279.848 378.233 280.419 378.233 281.112C378.233 281.795 378.11 282.371 377.865 282.84C377.619 283.309 377.294 283.693 376.889 283.992C376.483 284.28 376.019 284.488 375.497 284.616C374.974 284.744 374.435 284.808 373.881 284.808C373.827 284.808 373.737 284.808 373.609 284.808C373.491 284.808 373.363 284.808 373.225 284.808C373.097 284.797 372.969 284.787 372.841 284.776C372.713 284.765 372.622 284.755 372.569 284.744V289H371.241V277.912ZM373.977 278.824C373.699 278.824 373.433 278.829 373.177 278.84C372.921 278.851 372.718 278.877 372.569 278.92V283.56C372.622 283.581 372.707 283.597 372.825 283.608C372.942 283.608 373.065 283.613 373.193 283.624C373.321 283.624 373.443 283.624 373.561 283.624C373.678 283.624 373.763 283.624 373.817 283.624C374.179 283.624 374.537 283.592 374.889 283.528C375.251 283.453 375.577 283.325 375.865 283.144C376.153 282.963 376.382 282.707 376.553 282.376C376.734 282.045 376.825 281.624 376.825 281.112C376.825 280.675 376.739 280.312 376.569 280.024C376.409 279.725 376.19 279.491 375.913 279.32C375.646 279.139 375.342 279.011 375.001 278.936C374.659 278.861 374.318 278.824 373.977 278.824Z" fill="#4D87AB"/>
<path d="M379.353 277.136C379.353 276.848 379.449 276.619 379.641 276.448C379.833 276.277 380.067 276.192 380.345 276.192C380.718 276.192 381.017 276.304 381.241 276.528C381.465 276.752 381.577 277.088 381.577 277.536C381.577 277.963 381.513 278.336 381.385 278.656C381.267 278.965 381.118 279.227 380.937 279.44C380.766 279.653 380.585 279.824 380.393 279.952C380.201 280.069 380.03 280.155 379.881 280.208L379.401 279.552C379.699 279.403 379.955 279.211 380.169 278.976C380.393 278.741 380.505 278.443 380.505 278.08C380.462 278.091 380.398 278.096 380.313 278.096C380.067 278.096 379.843 278.005 379.641 277.824C379.449 277.643 379.353 277.413 379.353 277.136Z" fill="#4D87AB"/>
<path d="M377.843 286.192C377.843 285.707 377.894 285.283 377.995 284.92C378.096 284.552 378.238 284.248 378.419 284.008C378.606 283.768 378.827 283.589 379.083 283.472C379.339 283.349 379.624 283.288 379.939 283.288C380.611 283.288 381.128 283.525 381.491 284C381.854 284.469 382.035 285.2 382.035 286.192C382.035 286.683 381.984 287.112 381.883 287.48C381.782 287.843 381.638 288.147 381.451 288.392C381.27 288.632 381.048 288.813 380.787 288.936C380.531 289.053 380.246 289.112 379.931 289.112C379.254 289.112 378.736 288.864 378.379 288.368C378.022 287.867 377.843 287.141 377.843 286.192ZM381.011 286.192C381.011 286.107 381.008 286.027 381.003 285.952C381.003 285.872 381 285.795 380.995 285.72L379.035 287.504C379.2 287.989 379.502 288.232 379.939 288.232C380.28 288.232 380.544 288.069 380.731 287.744C380.918 287.419 381.011 286.901 381.011 286.192ZM378.867 286.192C378.867 286.272 378.867 286.349 378.867 286.424C378.872 286.493 378.878 286.565 378.883 286.64L380.835 284.856C380.675 284.397 380.374 284.168 379.931 284.168C379.59 284.168 379.326 284.333 379.139 284.664C378.958 284.989 378.867 285.499 378.867 286.192Z" fill="#4D87AB"/>
<rect x="252.5" y="252.5" width="239" height="239" stroke="#E2DAD2"/>
</svg>
