<svg width="492" height="492" viewBox="0 0 492 492" fill="none" xmlns="http://www.w3.org/2000/svg">
<line x1="89.1719" y1="45.2043" x2="45.4564" y2="142.867" stroke="#E2DAD2" stroke-dasharray="2 2"/>
<line x1="115" y1="194" x2="199" y2="194" stroke="#E2DAD2" stroke-width="2"/>
<line x1="47.6428" y1="137.234" x2="115.614" y2="194.268" stroke="#E2DAD2" stroke-width="2"/>
<circle cx="199" cy="194" r="5.5" fill="black" stroke="#E2DAD2"/>
<circle cx="115" cy="194" r="5.5" fill="black" stroke="#E2DAD2"/>
<circle cx="89" cy="47" r="5.5" fill="black" stroke="#E2DAD2" stroke-dasharray="2 2"/>
<line x1="93.9133" y1="35.4072" x2="45.9133" y2="143.07" stroke="#DB5475" stroke-width="2" stroke-dasharray="4 4"/>
<circle cx="48" cy="138" r="5.5" fill="black" stroke="#E2DAD2" stroke-dasharray="2 2"/>
<line x1="94.4839" y1="34.4072" x2="50.9134" y2="132.134" stroke="#E2DAD2" stroke-width="2"/>
<circle cx="94" cy="34" r="5.5" fill="#98A16A" stroke="#E2DAD2"/>
<circle cx="51" cy="131" r="5.5" fill="#98A16A" stroke="#E2DAD2"/>
<path d="M80.1071 82.8H82.7631V91.312C82.7631 91.9627 82.8698 92.4213 83.0831 92.688C83.3071 92.9547 83.6325 93.088 84.0591 93.088C84.3578 93.088 84.6405 93.0347 84.9071 92.928C85.1845 92.8213 85.4885 92.64 85.8191 92.384L86.3951 93.264C86.2245 93.4133 86.0378 93.5467 85.8351 93.664C85.6325 93.7813 85.4245 93.8827 85.2111 93.968C84.9978 94.0427 84.7845 94.1013 84.5711 94.144C84.3578 94.1867 84.1605 94.208 83.9791 94.208C83.5845 94.208 83.2325 94.1547 82.9231 94.048C82.6138 93.952 82.3525 93.792 82.1391 93.568C81.9365 93.344 81.7818 93.0507 81.6751 92.688C81.5685 92.3147 81.5151 91.856 81.5151 91.312V83.872H80.1071V82.8Z" fill="#4D87AB"/>
<path d="M87.9496 93.12H89.1736V89.624L88.1176 90.432L87.6376 89.792L89.4616 88.4H90.1656V93.12H91.3656V94H87.9496V93.12Z" fill="#4D87AB"/>
<path d="M70.1071 166.8H72.7631V175.312C72.7631 175.963 72.8698 176.421 73.0831 176.688C73.3071 176.955 73.6325 177.088 74.0591 177.088C74.3578 177.088 74.6405 177.035 74.9071 176.928C75.1845 176.821 75.4885 176.64 75.8191 176.384L76.3951 177.264C76.2245 177.413 76.0378 177.547 75.8351 177.664C75.6325 177.781 75.4245 177.883 75.2111 177.968C74.9978 178.043 74.7845 178.101 74.5711 178.144C74.3578 178.187 74.1605 178.208 73.9791 178.208C73.5845 178.208 73.2325 178.155 72.9231 178.048C72.6138 177.952 72.3525 177.792 72.1391 177.568C71.9365 177.344 71.7818 177.051 71.6751 176.688C71.5685 176.315 71.5151 175.856 71.5151 175.312V167.872H70.1071V166.8Z" fill="#4D87AB"/>
<path d="M81.2856 178H77.7176V177.224C77.7816 177.171 77.8616 177.101 77.9576 177.016C78.0536 176.925 78.1602 176.824 78.2776 176.712C78.4002 176.6 78.5282 176.477 78.6616 176.344C78.7949 176.211 78.9256 176.072 79.0536 175.928C79.2349 175.725 79.3922 175.541 79.5256 175.376C79.6642 175.211 79.7762 175.056 79.8616 174.912C79.9522 174.763 80.0189 174.619 80.0616 174.48C80.1042 174.336 80.1256 174.189 80.1256 174.04C80.1256 173.933 80.1016 173.829 80.0536 173.728C80.0056 173.627 79.9389 173.539 79.8536 173.464C79.7682 173.384 79.6642 173.323 79.5416 173.28C79.4242 173.232 79.2936 173.208 79.1496 173.208C78.9576 173.208 78.7816 173.237 78.6216 173.296C78.4669 173.355 78.3042 173.453 78.1336 173.592L77.7176 172.856C77.9416 172.696 78.1896 172.563 78.4616 172.456C78.7389 172.344 79.0562 172.288 79.4136 172.288C79.6429 172.288 79.8616 172.32 80.0696 172.384C80.2829 172.448 80.4696 172.544 80.6296 172.672C80.7949 172.795 80.9256 172.949 81.0216 173.136C81.1176 173.323 81.1656 173.539 81.1656 173.784C81.1656 173.955 81.1496 174.115 81.1176 174.264C81.0909 174.408 81.0456 174.555 80.9816 174.704C80.9229 174.848 80.8429 174.997 80.7416 175.152C80.6456 175.307 80.5282 175.475 80.3896 175.656C80.2829 175.795 80.1656 175.936 80.0376 176.08C79.9149 176.219 79.7922 176.352 79.6696 176.48C79.5469 176.608 79.4242 176.728 79.3016 176.84C79.1842 176.952 79.0776 177.045 78.9816 177.12H81.2856V178Z" fill="#4D87AB"/>
<path d="M154.107 200.8H156.763V209.312C156.763 209.963 156.87 210.421 157.083 210.688C157.307 210.955 157.632 211.088 158.059 211.088C158.358 211.088 158.64 211.035 158.907 210.928C159.184 210.821 159.488 210.64 159.819 210.384L160.395 211.264C160.224 211.413 160.038 211.547 159.835 211.664C159.632 211.781 159.424 211.883 159.211 211.968C158.998 212.043 158.784 212.101 158.571 212.144C158.358 212.187 158.16 212.208 157.979 212.208C157.584 212.208 157.232 212.155 156.923 212.048C156.614 211.952 156.352 211.792 156.139 211.568C155.936 211.344 155.782 211.051 155.675 210.688C155.568 210.315 155.515 209.856 155.515 209.312V201.872H154.107V200.8Z" fill="#4D87AB"/>
<path d="M163.086 211.232C163.262 211.232 163.422 211.211 163.566 211.168C163.715 211.12 163.84 211.056 163.942 210.976C164.048 210.891 164.131 210.795 164.19 210.688C164.248 210.576 164.278 210.456 164.278 210.328C164.278 210.168 164.243 210.035 164.174 209.928C164.11 209.816 164.019 209.728 163.902 209.664C163.784 209.6 163.643 209.555 163.478 209.528C163.312 209.501 163.134 209.488 162.942 209.488H162.494V208.92L163.838 207.28H161.814V206.4H165.078V207.128L163.67 208.736H163.854C164.04 208.736 164.222 208.768 164.398 208.832C164.574 208.896 164.728 208.992 164.862 209.12C165 209.248 165.11 209.408 165.19 209.6C165.275 209.792 165.318 210.013 165.318 210.264C165.318 210.568 165.254 210.835 165.126 211.064C165.003 211.293 164.838 211.488 164.63 211.648C164.427 211.803 164.192 211.92 163.926 212C163.659 212.075 163.384 212.112 163.102 212.112C162.862 212.112 162.622 212.091 162.382 212.048C162.142 212.005 161.91 211.939 161.686 211.848L161.966 210.984C162.014 211.011 162.078 211.037 162.158 211.064C162.243 211.091 162.336 211.117 162.438 211.144C162.544 211.171 162.651 211.192 162.758 211.208C162.87 211.224 162.979 211.232 163.086 211.232Z" fill="#4D87AB"/>
<path d="M196.803 173.912C197.208 173.816 197.646 173.752 198.115 173.72C198.584 173.688 199.048 173.672 199.507 173.672C199.998 173.672 200.494 173.72 200.995 173.816C201.507 173.912 201.971 174.088 202.387 174.344C202.803 174.6 203.139 174.952 203.395 175.4C203.662 175.848 203.795 176.419 203.795 177.112C203.795 177.795 203.672 178.371 203.427 178.84C203.182 179.309 202.856 179.693 202.451 179.992C202.046 180.28 201.582 180.488 201.059 180.616C200.536 180.744 199.998 180.808 199.443 180.808C199.39 180.808 199.299 180.808 199.171 180.808C199.054 180.808 198.926 180.808 198.787 180.808C198.659 180.797 198.531 180.787 198.403 180.776C198.275 180.765 198.184 180.755 198.131 180.744V185H196.803V173.912ZM199.539 174.824C199.262 174.824 198.995 174.829 198.739 174.84C198.483 174.851 198.28 174.877 198.131 174.92V179.56C198.184 179.581 198.27 179.597 198.387 179.608C198.504 179.608 198.627 179.613 198.755 179.624C198.883 179.624 199.006 179.624 199.123 179.624C199.24 179.624 199.326 179.624 199.379 179.624C199.742 179.624 200.099 179.592 200.451 179.528C200.814 179.453 201.139 179.325 201.427 179.144C201.715 178.963 201.944 178.707 202.115 178.376C202.296 178.045 202.387 177.624 202.387 177.112C202.387 176.675 202.302 176.312 202.131 176.024C201.971 175.725 201.752 175.491 201.475 175.32C201.208 175.139 200.904 175.011 200.563 174.936C200.222 174.861 199.88 174.824 199.539 174.824Z" fill="#4D87AB"/>
<path d="M204.915 173.136C204.915 172.848 205.011 172.619 205.203 172.448C205.395 172.277 205.63 172.192 205.907 172.192C206.28 172.192 206.579 172.304 206.803 172.528C207.027 172.752 207.139 173.088 207.139 173.536C207.139 173.963 207.075 174.336 206.947 174.656C206.83 174.965 206.68 175.227 206.499 175.44C206.328 175.653 206.147 175.824 205.955 175.952C205.763 176.069 205.592 176.155 205.443 176.208L204.963 175.552C205.262 175.403 205.518 175.211 205.731 174.976C205.955 174.741 206.067 174.443 206.067 174.08C206.024 174.091 205.96 174.096 205.875 174.096C205.63 174.096 205.406 174.005 205.203 173.824C205.011 173.643 204.915 173.413 204.915 173.136Z" fill="#4D87AB"/>
<path d="M205.086 184.232C205.262 184.232 205.422 184.211 205.566 184.168C205.715 184.12 205.84 184.056 205.942 183.976C206.048 183.891 206.131 183.795 206.19 183.688C206.248 183.576 206.278 183.456 206.278 183.328C206.278 183.168 206.243 183.035 206.174 182.928C206.11 182.816 206.019 182.728 205.902 182.664C205.784 182.6 205.643 182.555 205.478 182.528C205.312 182.501 205.134 182.488 204.942 182.488H204.494V181.92L205.838 180.28H203.814V179.4H207.078V180.128L205.67 181.736H205.854C206.04 181.736 206.222 181.768 206.398 181.832C206.574 181.896 206.728 181.992 206.862 182.12C207 182.248 207.11 182.408 207.19 182.6C207.275 182.792 207.318 183.013 207.318 183.264C207.318 183.568 207.254 183.835 207.126 184.064C207.003 184.293 206.838 184.488 206.63 184.648C206.427 184.803 206.192 184.92 205.926 185C205.659 185.075 205.384 185.112 205.102 185.112C204.862 185.112 204.622 185.091 204.382 185.048C204.142 185.005 203.91 184.939 203.686 184.848L203.966 183.984C204.014 184.011 204.078 184.037 204.158 184.064C204.243 184.091 204.336 184.117 204.438 184.144C204.544 184.171 204.651 184.192 204.758 184.208C204.87 184.224 204.979 184.232 205.086 184.232Z" fill="#4D87AB"/>
<path d="M112.803 173.912C113.208 173.816 113.646 173.752 114.115 173.72C114.584 173.688 115.048 173.672 115.507 173.672C115.998 173.672 116.494 173.72 116.995 173.816C117.507 173.912 117.971 174.088 118.387 174.344C118.803 174.6 119.139 174.952 119.395 175.4C119.662 175.848 119.795 176.419 119.795 177.112C119.795 177.795 119.672 178.371 119.427 178.84C119.182 179.309 118.856 179.693 118.451 179.992C118.046 180.28 117.582 180.488 117.059 180.616C116.536 180.744 115.998 180.808 115.443 180.808C115.39 180.808 115.299 180.808 115.171 180.808C115.054 180.808 114.926 180.808 114.787 180.808C114.659 180.797 114.531 180.787 114.403 180.776C114.275 180.765 114.184 180.755 114.131 180.744V185H112.803V173.912ZM115.539 174.824C115.262 174.824 114.995 174.829 114.739 174.84C114.483 174.851 114.28 174.877 114.131 174.92V179.56C114.184 179.581 114.27 179.597 114.387 179.608C114.504 179.608 114.627 179.613 114.755 179.624C114.883 179.624 115.006 179.624 115.123 179.624C115.24 179.624 115.326 179.624 115.379 179.624C115.742 179.624 116.099 179.592 116.451 179.528C116.814 179.453 117.139 179.325 117.427 179.144C117.715 178.963 117.944 178.707 118.115 178.376C118.296 178.045 118.387 177.624 118.387 177.112C118.387 176.675 118.302 176.312 118.131 176.024C117.971 175.725 117.752 175.491 117.475 175.32C117.208 175.139 116.904 175.011 116.563 174.936C116.222 174.861 115.88 174.824 115.539 174.824Z" fill="#4D87AB"/>
<path d="M120.915 173.136C120.915 172.848 121.011 172.619 121.203 172.448C121.395 172.277 121.63 172.192 121.907 172.192C122.28 172.192 122.579 172.304 122.803 172.528C123.027 172.752 123.139 173.088 123.139 173.536C123.139 173.963 123.075 174.336 122.947 174.656C122.83 174.965 122.68 175.227 122.499 175.44C122.328 175.653 122.147 175.824 121.955 175.952C121.763 176.069 121.592 176.155 121.443 176.208L120.963 175.552C121.262 175.403 121.518 175.211 121.731 174.976C121.955 174.741 122.067 174.443 122.067 174.08C122.024 174.091 121.96 174.096 121.875 174.096C121.63 174.096 121.406 174.005 121.203 173.824C121.011 173.643 120.915 173.413 120.915 173.136Z" fill="#4D87AB"/>
<path d="M123.286 185H119.718V184.224C119.782 184.171 119.862 184.101 119.958 184.016C120.054 183.925 120.16 183.824 120.278 183.712C120.4 183.6 120.528 183.477 120.662 183.344C120.795 183.211 120.926 183.072 121.054 182.928C121.235 182.725 121.392 182.541 121.526 182.376C121.664 182.211 121.776 182.056 121.862 181.912C121.952 181.763 122.019 181.619 122.062 181.48C122.104 181.336 122.126 181.189 122.126 181.04C122.126 180.933 122.102 180.829 122.054 180.728C122.006 180.627 121.939 180.539 121.854 180.464C121.768 180.384 121.664 180.323 121.542 180.28C121.424 180.232 121.294 180.208 121.15 180.208C120.958 180.208 120.782 180.237 120.622 180.296C120.467 180.355 120.304 180.453 120.134 180.592L119.718 179.856C119.942 179.696 120.19 179.563 120.462 179.456C120.739 179.344 121.056 179.288 121.414 179.288C121.643 179.288 121.862 179.32 122.07 179.384C122.283 179.448 122.47 179.544 122.63 179.672C122.795 179.795 122.926 179.949 123.022 180.136C123.118 180.323 123.166 180.539 123.166 180.784C123.166 180.955 123.15 181.115 123.118 181.264C123.091 181.408 123.046 181.555 122.982 181.704C122.923 181.848 122.843 181.997 122.742 182.152C122.646 182.307 122.528 182.475 122.39 182.656C122.283 182.795 122.166 182.936 122.038 183.08C121.915 183.219 121.792 183.352 121.67 183.48C121.547 183.608 121.424 183.728 121.302 183.84C121.184 183.952 121.078 184.045 120.982 184.12H123.286V185Z" fill="#4D87AB"/>
<path d="M63.8031 133.912C64.2085 133.816 64.6458 133.752 65.1151 133.72C65.5845 133.688 66.0485 133.672 66.5071 133.672C66.9978 133.672 67.4938 133.72 67.9951 133.816C68.5071 133.912 68.9711 134.088 69.3871 134.344C69.8031 134.6 70.1391 134.952 70.3951 135.4C70.6618 135.848 70.7951 136.419 70.7951 137.112C70.7951 137.795 70.6725 138.371 70.4271 138.84C70.1818 139.309 69.8565 139.693 69.4511 139.992C69.0458 140.28 68.5818 140.488 68.0591 140.616C67.5365 140.744 66.9978 140.808 66.4431 140.808C66.3898 140.808 66.2991 140.808 66.1711 140.808C66.0538 140.808 65.9258 140.808 65.7871 140.808C65.6591 140.797 65.5311 140.787 65.4031 140.776C65.2751 140.765 65.1845 140.755 65.1311 140.744V145H63.8031V133.912ZM66.5391 134.824C66.2618 134.824 65.9951 134.829 65.7391 134.84C65.4831 134.851 65.2805 134.877 65.1311 134.92V139.56C65.1845 139.581 65.2698 139.597 65.3871 139.608C65.5045 139.608 65.6271 139.613 65.7551 139.624C65.8831 139.624 66.0058 139.624 66.1231 139.624C66.2405 139.624 66.3258 139.624 66.3791 139.624C66.7418 139.624 67.0991 139.592 67.4511 139.528C67.8138 139.453 68.1391 139.325 68.4271 139.144C68.7151 138.963 68.9445 138.707 69.1151 138.376C69.2965 138.045 69.3871 137.624 69.3871 137.112C69.3871 136.675 69.3018 136.312 69.1311 136.024C68.9711 135.725 68.7525 135.491 68.4751 135.32C68.2085 135.139 67.9045 135.011 67.5631 134.936C67.2218 134.861 66.8805 134.824 66.5391 134.824Z" fill="#4D87AB"/>
<path d="M71.9151 133.136C71.9151 132.848 72.0111 132.619 72.2031 132.448C72.3951 132.277 72.6298 132.192 72.9071 132.192C73.2805 132.192 73.5791 132.304 73.8031 132.528C74.0271 132.752 74.1391 133.088 74.1391 133.536C74.1391 133.963 74.0751 134.336 73.9471 134.656C73.8298 134.965 73.6805 135.227 73.4991 135.44C73.3285 135.653 73.1471 135.824 72.9551 135.952C72.7631 136.069 72.5925 136.155 72.4431 136.208L71.9631 135.552C72.2618 135.403 72.5178 135.211 72.7311 134.976C72.9551 134.741 73.0671 134.443 73.0671 134.08C73.0245 134.091 72.9605 134.096 72.8751 134.096C72.6298 134.096 72.4058 134.005 72.2031 133.824C72.0111 133.643 71.9151 133.413 71.9151 133.136Z" fill="#4D87AB"/>
<path d="M70.9496 144.12H72.1736V140.624L71.1176 141.432L70.6376 140.792L72.4616 139.4H73.1656V144.12H74.3656V145H70.9496V144.12Z" fill="#4D87AB"/>
<path d="M71.8031 27.912C72.2085 27.816 72.6458 27.752 73.1151 27.72C73.5845 27.688 74.0485 27.672 74.5071 27.672C74.9978 27.672 75.4938 27.72 75.9951 27.816C76.5071 27.912 76.9711 28.088 77.3871 28.344C77.8031 28.6 78.1391 28.952 78.3951 29.4C78.6618 29.848 78.7951 30.4187 78.7951 31.112C78.7951 31.7947 78.6725 32.3707 78.4271 32.84C78.1818 33.3093 77.8565 33.6933 77.4511 33.992C77.0458 34.28 76.5818 34.488 76.0591 34.616C75.5365 34.744 74.9978 34.808 74.4431 34.808C74.3898 34.808 74.2991 34.808 74.1711 34.808C74.0538 34.808 73.9258 34.808 73.7871 34.808C73.6591 34.7973 73.5311 34.7867 73.4031 34.776C73.2751 34.7653 73.1845 34.7547 73.1311 34.744V39H71.8031V27.912ZM74.5391 28.824C74.2618 28.824 73.9951 28.8293 73.7391 28.84C73.4831 28.8507 73.2805 28.8773 73.1311 28.92V33.56C73.1845 33.5813 73.2698 33.5973 73.3871 33.608C73.5045 33.608 73.6271 33.6133 73.7551 33.624C73.8831 33.624 74.0058 33.624 74.1231 33.624C74.2405 33.624 74.3258 33.624 74.3791 33.624C74.7418 33.624 75.0991 33.592 75.4511 33.528C75.8138 33.4533 76.1391 33.3253 76.4271 33.144C76.7151 32.9627 76.9445 32.7067 77.1151 32.376C77.2965 32.0453 77.3871 31.624 77.3871 31.112C77.3871 30.6747 77.3018 30.312 77.1311 30.024C76.9711 29.7253 76.7525 29.4907 76.4751 29.32C76.2085 29.1387 75.9045 29.0107 75.5631 28.936C75.2218 28.8613 74.8805 28.824 74.5391 28.824Z" fill="#4D87AB"/>
<path d="M79.9151 27.136C79.9151 26.848 80.0111 26.6187 80.2031 26.448C80.3951 26.2773 80.6298 26.192 80.9071 26.192C81.2805 26.192 81.5791 26.304 81.8031 26.528C82.0271 26.752 82.1391 27.088 82.1391 27.536C82.1391 27.9627 82.0751 28.336 81.9471 28.656C81.8298 28.9653 81.6805 29.2267 81.4991 29.44C81.3285 29.6533 81.1471 29.824 80.9551 29.952C80.7631 30.0693 80.5925 30.1547 80.4431 30.208L79.9631 29.552C80.2618 29.4027 80.5178 29.2107 80.7311 28.976C80.9551 28.7413 81.0671 28.4427 81.0671 28.08C81.0245 28.0907 80.9605 28.096 80.8751 28.096C80.6298 28.096 80.4058 28.0053 80.2031 27.824C80.0111 27.6427 79.9151 27.4133 79.9151 27.136Z" fill="#4D87AB"/>
<path d="M82.9151 27.136C82.9151 26.848 83.0111 26.6187 83.2031 26.448C83.3951 26.2773 83.6298 26.192 83.9071 26.192C84.2805 26.192 84.5791 26.304 84.8031 26.528C85.0271 26.752 85.1391 27.088 85.1391 27.536C85.1391 27.9627 85.0751 28.336 84.9471 28.656C84.8298 28.9653 84.6805 29.2267 84.4991 29.44C84.3285 29.6533 84.1471 29.824 83.9551 29.952C83.7631 30.0693 83.5925 30.1547 83.4431 30.208L82.9631 29.552C83.2618 29.4027 83.5178 29.2107 83.7311 28.976C83.9551 28.7413 84.0671 28.4427 84.0671 28.08C84.0245 28.0907 83.9605 28.096 83.8751 28.096C83.6298 28.096 83.4058 28.0053 83.2031 27.824C83.0111 27.6427 82.9151 27.4133 82.9151 27.136Z" fill="#4D87AB"/>
<path d="M78.4056 36.192C78.4056 35.7067 78.4562 35.2827 78.5576 34.92C78.6589 34.552 78.8002 34.248 78.9816 34.008C79.1682 33.768 79.3896 33.5893 79.6456 33.472C79.9016 33.3493 80.1869 33.288 80.5016 33.288C81.1736 33.288 81.6909 33.5253 82.0536 34C82.4162 34.4693 82.5976 35.2 82.5976 36.192C82.5976 36.6827 82.5469 37.112 82.4456 37.48C82.3442 37.8427 82.2002 38.1467 82.0136 38.392C81.8322 38.632 81.6109 38.8133 81.3496 38.936C81.0936 39.0533 80.8082 39.112 80.4936 39.112C79.8162 39.112 79.2989 38.864 78.9416 38.368C78.5842 37.8667 78.4056 37.1413 78.4056 36.192ZM81.5736 36.192C81.5736 36.1067 81.5709 36.0267 81.5656 35.952C81.5656 35.872 81.5629 35.7947 81.5576 35.72L79.5976 37.504C79.7629 37.9893 80.0642 38.232 80.5016 38.232C80.8429 38.232 81.1069 38.0693 81.2936 37.744C81.4802 37.4187 81.5736 36.9013 81.5736 36.192ZM79.4296 36.192C79.4296 36.272 79.4296 36.3493 79.4296 36.424C79.4349 36.4933 79.4402 36.5653 79.4456 36.64L81.3976 34.856C81.2376 34.3973 80.9362 34.168 80.4936 34.168C80.1522 34.168 79.8882 34.3333 79.7016 34.664C79.5202 34.9893 79.4296 35.4987 79.4296 36.192Z" fill="#4D87AB"/>
<path d="M30.8031 120.912C31.2085 120.816 31.6458 120.752 32.1151 120.72C32.5845 120.688 33.0485 120.672 33.5071 120.672C33.9978 120.672 34.4938 120.72 34.9951 120.816C35.5071 120.912 35.9711 121.088 36.3871 121.344C36.8031 121.6 37.1391 121.952 37.3951 122.4C37.6618 122.848 37.7951 123.419 37.7951 124.112C37.7951 124.795 37.6725 125.371 37.4271 125.84C37.1818 126.309 36.8565 126.693 36.4511 126.992C36.0458 127.28 35.5818 127.488 35.0591 127.616C34.5365 127.744 33.9978 127.808 33.4431 127.808C33.3898 127.808 33.2991 127.808 33.1711 127.808C33.0538 127.808 32.9258 127.808 32.7871 127.808C32.6591 127.797 32.5311 127.787 32.4031 127.776C32.2751 127.765 32.1845 127.755 32.1311 127.744V132H30.8031V120.912ZM33.5391 121.824C33.2618 121.824 32.9951 121.829 32.7391 121.84C32.4831 121.851 32.2805 121.877 32.1311 121.92V126.56C32.1845 126.581 32.2698 126.597 32.3871 126.608C32.5045 126.608 32.6271 126.613 32.7551 126.624C32.8831 126.624 33.0058 126.624 33.1231 126.624C33.2405 126.624 33.3258 126.624 33.3791 126.624C33.7418 126.624 34.0991 126.592 34.4511 126.528C34.8138 126.453 35.1391 126.325 35.4271 126.144C35.7151 125.963 35.9445 125.707 36.1151 125.376C36.2965 125.045 36.3871 124.624 36.3871 124.112C36.3871 123.675 36.3018 123.312 36.1311 123.024C35.9711 122.725 35.7525 122.491 35.4751 122.32C35.2085 122.139 34.9045 122.011 34.5631 121.936C34.2218 121.861 33.8805 121.824 33.5391 121.824Z" fill="#4D87AB"/>
<path d="M38.9151 120.136C38.9151 119.848 39.0111 119.619 39.2031 119.448C39.3951 119.277 39.6298 119.192 39.9071 119.192C40.2805 119.192 40.5791 119.304 40.8031 119.528C41.0271 119.752 41.1391 120.088 41.1391 120.536C41.1391 120.963 41.0751 121.336 40.9471 121.656C40.8298 121.965 40.6805 122.227 40.4991 122.44C40.3285 122.653 40.1471 122.824 39.9551 122.952C39.7631 123.069 39.5925 123.155 39.4431 123.208L38.9631 122.552C39.2618 122.403 39.5178 122.211 39.7311 121.976C39.9551 121.741 40.0671 121.443 40.0671 121.08C40.0245 121.091 39.9605 121.096 39.8751 121.096C39.6298 121.096 39.4058 121.005 39.2031 120.824C39.0111 120.643 38.9151 120.413 38.9151 120.136Z" fill="#4D87AB"/>
<path d="M41.9151 120.136C41.9151 119.848 42.0111 119.619 42.2031 119.448C42.3951 119.277 42.6298 119.192 42.9071 119.192C43.2805 119.192 43.5791 119.304 43.8031 119.528C44.0271 119.752 44.1391 120.088 44.1391 120.536C44.1391 120.963 44.0751 121.336 43.9471 121.656C43.8298 121.965 43.6805 122.227 43.4991 122.44C43.3285 122.653 43.1471 122.824 42.9551 122.952C42.7631 123.069 42.5925 123.155 42.4431 123.208L41.9631 122.552C42.2618 122.403 42.5178 122.211 42.7311 121.976C42.9551 121.741 43.0671 121.443 43.0671 121.08C43.0245 121.091 42.9605 121.096 42.8751 121.096C42.6298 121.096 42.4058 121.005 42.2031 120.824C42.0111 120.643 41.9151 120.413 41.9151 120.136Z" fill="#4D87AB"/>
<path d="M37.9496 131.12H39.1736V127.624L38.1176 128.432L37.6376 127.792L39.4616 126.4H40.1656V131.12H41.3656V132H37.9496V131.12Z" fill="#4D87AB"/>
<rect x="0.5" y="0.5" width="239" height="239" stroke="#E2DAD2"/>
<line x1="304.696" y1="130.282" x2="369.696" y2="193.282" stroke="#DB5475" stroke-width="2" stroke-dasharray="4 4"/>
<line x1="343.172" y1="44.2043" x2="299.456" y2="141.867" stroke="#E2DAD2" stroke-dasharray="2 2"/>
<line x1="369" y1="193" x2="453" y2="193" stroke="#E2DAD2" stroke-width="2"/>
<line x1="301.321" y1="136.617" x2="369.292" y2="193.651" stroke="#E2DAD2" stroke-dasharray="2 2"/>
<circle cx="453" cy="193" r="5.5" fill="black" stroke="#E2DAD2"/>
<circle cx="369" cy="193" r="5.5" fill="black" stroke="#E2DAD2" stroke-dasharray="2 2"/>
<circle cx="343" cy="46" r="5.5" fill="black" stroke="#E2DAD2" stroke-dasharray="2 2"/>
<circle cx="302" cy="137" r="5.5" fill="black" stroke="#E2DAD2" stroke-dasharray="2 2"/>
<line x1="348.484" y1="33.4072" x2="304.913" y2="131.134" stroke="#E2DAD2" stroke-width="2"/>
<circle cx="348" cy="33" r="5.5" fill="#98A16A" stroke="#E2DAD2"/>
<line x1="304.696" y1="130.282" x2="368.604" y2="192.224" stroke="#E2DAD2" stroke-width="2"/>
<circle cx="305" cy="130" r="5.5" fill="#98A16A" stroke="#E2DAD2"/>
<circle cx="367" cy="191" r="5.5" fill="#98A16A" stroke="#E2DAD2"/>
<path d="M332.107 82.8H334.763V91.312C334.763 91.9627 334.87 92.4213 335.083 92.688C335.307 92.9547 335.632 93.088 336.059 93.088C336.358 93.088 336.64 93.0347 336.907 92.928C337.184 92.8213 337.488 92.64 337.819 92.384L338.395 93.264C338.224 93.4133 338.038 93.5467 337.835 93.664C337.632 93.7813 337.424 93.8827 337.211 93.968C336.998 94.0427 336.784 94.1013 336.571 94.144C336.358 94.1867 336.16 94.208 335.979 94.208C335.584 94.208 335.232 94.1547 334.923 94.048C334.614 93.952 334.352 93.792 334.139 93.568C333.936 93.344 333.782 93.0507 333.675 92.688C333.568 92.3147 333.515 91.856 333.515 91.312V83.872H332.107V82.8Z" fill="#4D87AB"/>
<path d="M339.95 93.12H341.174V89.624L340.118 90.432L339.638 89.792L341.462 88.4H342.166V93.12H343.366V94H339.95V93.12Z" fill="#4D87AB"/>
<path d="M339.107 146.8H341.763V155.312C341.763 155.963 341.87 156.421 342.083 156.688C342.307 156.955 342.632 157.088 343.059 157.088C343.358 157.088 343.64 157.035 343.907 156.928C344.184 156.821 344.488 156.64 344.819 156.384L345.395 157.264C345.224 157.413 345.038 157.547 344.835 157.664C344.632 157.781 344.424 157.883 344.211 157.968C343.998 158.043 343.784 158.101 343.571 158.144C343.358 158.187 343.16 158.208 342.979 158.208C342.584 158.208 342.232 158.155 341.923 158.048C341.614 157.952 341.352 157.792 341.139 157.568C340.936 157.344 340.782 157.051 340.675 156.688C340.568 156.315 340.515 155.856 340.515 155.312V147.872H339.107V146.8Z" fill="#4D87AB"/>
<path d="M350.286 158H346.718V157.224C346.782 157.171 346.862 157.101 346.958 157.016C347.054 156.925 347.16 156.824 347.278 156.712C347.4 156.6 347.528 156.477 347.662 156.344C347.795 156.211 347.926 156.072 348.054 155.928C348.235 155.725 348.392 155.541 348.526 155.376C348.664 155.211 348.776 155.056 348.862 154.912C348.952 154.763 349.019 154.619 349.062 154.48C349.104 154.336 349.126 154.189 349.126 154.04C349.126 153.933 349.102 153.829 349.054 153.728C349.006 153.627 348.939 153.539 348.854 153.464C348.768 153.384 348.664 153.323 348.542 153.28C348.424 153.232 348.294 153.208 348.15 153.208C347.958 153.208 347.782 153.237 347.622 153.296C347.467 153.355 347.304 153.453 347.134 153.592L346.718 152.856C346.942 152.696 347.19 152.563 347.462 152.456C347.739 152.344 348.056 152.288 348.414 152.288C348.643 152.288 348.862 152.32 349.07 152.384C349.283 152.448 349.47 152.544 349.63 152.672C349.795 152.795 349.926 152.949 350.022 153.136C350.118 153.323 350.166 153.539 350.166 153.784C350.166 153.955 350.15 154.115 350.118 154.264C350.091 154.408 350.046 154.555 349.982 154.704C349.923 154.848 349.843 154.997 349.742 155.152C349.646 155.307 349.528 155.475 349.39 155.656C349.283 155.795 349.166 155.936 349.038 156.08C348.915 156.219 348.792 156.352 348.67 156.48C348.547 156.608 348.424 156.728 348.302 156.84C348.184 156.952 348.078 157.045 347.982 157.12H350.286V158Z" fill="#4D87AB"/>
<path d="M406.107 200.8H408.763V209.312C408.763 209.963 408.87 210.421 409.083 210.688C409.307 210.955 409.632 211.088 410.059 211.088C410.358 211.088 410.64 211.035 410.907 210.928C411.184 210.821 411.488 210.64 411.819 210.384L412.395 211.264C412.224 211.413 412.038 211.547 411.835 211.664C411.632 211.781 411.424 211.883 411.211 211.968C410.998 212.043 410.784 212.101 410.571 212.144C410.358 212.187 410.16 212.208 409.979 212.208C409.584 212.208 409.232 212.155 408.923 212.048C408.614 211.952 408.352 211.792 408.139 211.568C407.936 211.344 407.782 211.051 407.675 210.688C407.568 210.315 407.515 209.856 407.515 209.312V201.872H406.107V200.8Z" fill="#4D87AB"/>
<path d="M415.086 211.232C415.262 211.232 415.422 211.211 415.566 211.168C415.715 211.12 415.84 211.056 415.942 210.976C416.048 210.891 416.131 210.795 416.19 210.688C416.248 210.576 416.278 210.456 416.278 210.328C416.278 210.168 416.243 210.035 416.174 209.928C416.11 209.816 416.019 209.728 415.902 209.664C415.784 209.6 415.643 209.555 415.478 209.528C415.312 209.501 415.134 209.488 414.942 209.488H414.494V208.92L415.838 207.28H413.814V206.4H417.078V207.128L415.67 208.736H415.854C416.04 208.736 416.222 208.768 416.398 208.832C416.574 208.896 416.728 208.992 416.862 209.12C417 209.248 417.11 209.408 417.19 209.6C417.275 209.792 417.318 210.013 417.318 210.264C417.318 210.568 417.254 210.835 417.126 211.064C417.003 211.293 416.838 211.488 416.63 211.648C416.427 211.803 416.192 211.92 415.926 212C415.659 212.075 415.384 212.112 415.102 212.112C414.862 212.112 414.622 212.091 414.382 212.048C414.142 212.005 413.91 211.939 413.686 211.848L413.966 210.984C414.014 211.011 414.078 211.037 414.158 211.064C414.243 211.091 414.336 211.117 414.438 211.144C414.544 211.171 414.651 211.192 414.758 211.208C414.87 211.224 414.979 211.232 415.086 211.232Z" fill="#4D87AB"/>
<path d="M448.803 172.912C449.208 172.816 449.646 172.752 450.115 172.72C450.584 172.688 451.048 172.672 451.507 172.672C451.998 172.672 452.494 172.72 452.995 172.816C453.507 172.912 453.971 173.088 454.387 173.344C454.803 173.6 455.139 173.952 455.395 174.4C455.662 174.848 455.795 175.419 455.795 176.112C455.795 176.795 455.672 177.371 455.427 177.84C455.182 178.309 454.856 178.693 454.451 178.992C454.046 179.28 453.582 179.488 453.059 179.616C452.536 179.744 451.998 179.808 451.443 179.808C451.39 179.808 451.299 179.808 451.171 179.808C451.054 179.808 450.926 179.808 450.787 179.808C450.659 179.797 450.531 179.787 450.403 179.776C450.275 179.765 450.184 179.755 450.131 179.744V184H448.803V172.912ZM451.539 173.824C451.262 173.824 450.995 173.829 450.739 173.84C450.483 173.851 450.28 173.877 450.131 173.92V178.56C450.184 178.581 450.27 178.597 450.387 178.608C450.504 178.608 450.627 178.613 450.755 178.624C450.883 178.624 451.006 178.624 451.123 178.624C451.24 178.624 451.326 178.624 451.379 178.624C451.742 178.624 452.099 178.592 452.451 178.528C452.814 178.453 453.139 178.325 453.427 178.144C453.715 177.963 453.944 177.707 454.115 177.376C454.296 177.045 454.387 176.624 454.387 176.112C454.387 175.675 454.302 175.312 454.131 175.024C453.971 174.725 453.752 174.491 453.475 174.32C453.208 174.139 452.904 174.011 452.563 173.936C452.222 173.861 451.88 173.824 451.539 173.824Z" fill="#4D87AB"/>
<path d="M456.915 172.136C456.915 171.848 457.011 171.619 457.203 171.448C457.395 171.277 457.63 171.192 457.907 171.192C458.28 171.192 458.579 171.304 458.803 171.528C459.027 171.752 459.139 172.088 459.139 172.536C459.139 172.963 459.075 173.336 458.947 173.656C458.83 173.965 458.68 174.227 458.499 174.44C458.328 174.653 458.147 174.824 457.955 174.952C457.763 175.069 457.592 175.155 457.443 175.208L456.963 174.552C457.262 174.403 457.518 174.211 457.731 173.976C457.955 173.741 458.067 173.443 458.067 173.08C458.024 173.091 457.96 173.096 457.875 173.096C457.63 173.096 457.406 173.005 457.203 172.824C457.011 172.643 456.915 172.413 456.915 172.136Z" fill="#4D87AB"/>
<path d="M457.086 183.232C457.262 183.232 457.422 183.211 457.566 183.168C457.715 183.12 457.84 183.056 457.942 182.976C458.048 182.891 458.131 182.795 458.19 182.688C458.248 182.576 458.278 182.456 458.278 182.328C458.278 182.168 458.243 182.035 458.174 181.928C458.11 181.816 458.019 181.728 457.902 181.664C457.784 181.6 457.643 181.555 457.478 181.528C457.312 181.501 457.134 181.488 456.942 181.488H456.494V180.92L457.838 179.28H455.814V178.4H459.078V179.128L457.67 180.736H457.854C458.04 180.736 458.222 180.768 458.398 180.832C458.574 180.896 458.728 180.992 458.862 181.12C459 181.248 459.11 181.408 459.19 181.6C459.275 181.792 459.318 182.013 459.318 182.264C459.318 182.568 459.254 182.835 459.126 183.064C459.003 183.293 458.838 183.488 458.63 183.648C458.427 183.803 458.192 183.92 457.926 184C457.659 184.075 457.384 184.112 457.102 184.112C456.862 184.112 456.622 184.091 456.382 184.048C456.142 184.005 455.91 183.939 455.686 183.848L455.966 182.984C456.014 183.011 456.078 183.037 456.158 183.064C456.243 183.091 456.336 183.117 456.438 183.144C456.544 183.171 456.651 183.192 456.758 183.208C456.87 183.224 456.979 183.232 457.086 183.232Z" fill="#4D87AB"/>
<path d="M370.803 172.912C371.208 172.816 371.646 172.752 372.115 172.72C372.584 172.688 373.048 172.672 373.507 172.672C373.998 172.672 374.494 172.72 374.995 172.816C375.507 172.912 375.971 173.088 376.387 173.344C376.803 173.6 377.139 173.952 377.395 174.4C377.662 174.848 377.795 175.419 377.795 176.112C377.795 176.795 377.672 177.371 377.427 177.84C377.182 178.309 376.856 178.693 376.451 178.992C376.046 179.28 375.582 179.488 375.059 179.616C374.536 179.744 373.998 179.808 373.443 179.808C373.39 179.808 373.299 179.808 373.171 179.808C373.054 179.808 372.926 179.808 372.787 179.808C372.659 179.797 372.531 179.787 372.403 179.776C372.275 179.765 372.184 179.755 372.131 179.744V184H370.803V172.912ZM373.539 173.824C373.262 173.824 372.995 173.829 372.739 173.84C372.483 173.851 372.28 173.877 372.131 173.92V178.56C372.184 178.581 372.27 178.597 372.387 178.608C372.504 178.608 372.627 178.613 372.755 178.624C372.883 178.624 373.006 178.624 373.123 178.624C373.24 178.624 373.326 178.624 373.379 178.624C373.742 178.624 374.099 178.592 374.451 178.528C374.814 178.453 375.139 178.325 375.427 178.144C375.715 177.963 375.944 177.707 376.115 177.376C376.296 177.045 376.387 176.624 376.387 176.112C376.387 175.675 376.302 175.312 376.131 175.024C375.971 174.725 375.752 174.491 375.475 174.32C375.208 174.139 374.904 174.011 374.563 173.936C374.222 173.861 373.88 173.824 373.539 173.824Z" fill="#4D87AB"/>
<path d="M378.915 172.136C378.915 171.848 379.011 171.619 379.203 171.448C379.395 171.277 379.63 171.192 379.907 171.192C380.28 171.192 380.579 171.304 380.803 171.528C381.027 171.752 381.139 172.088 381.139 172.536C381.139 172.963 381.075 173.336 380.947 173.656C380.83 173.965 380.68 174.227 380.499 174.44C380.328 174.653 380.147 174.824 379.955 174.952C379.763 175.069 379.592 175.155 379.443 175.208L378.963 174.552C379.262 174.403 379.518 174.211 379.731 173.976C379.955 173.741 380.067 173.443 380.067 173.08C380.024 173.091 379.96 173.096 379.875 173.096C379.63 173.096 379.406 173.005 379.203 172.824C379.011 172.643 378.915 172.413 378.915 172.136Z" fill="#4D87AB"/>
<path d="M381.286 184H377.718V183.224C377.782 183.171 377.862 183.101 377.958 183.016C378.054 182.925 378.16 182.824 378.278 182.712C378.4 182.6 378.528 182.477 378.662 182.344C378.795 182.211 378.926 182.072 379.054 181.928C379.235 181.725 379.392 181.541 379.526 181.376C379.664 181.211 379.776 181.056 379.862 180.912C379.952 180.763 380.019 180.619 380.062 180.48C380.104 180.336 380.126 180.189 380.126 180.04C380.126 179.933 380.102 179.829 380.054 179.728C380.006 179.627 379.939 179.539 379.854 179.464C379.768 179.384 379.664 179.323 379.542 179.28C379.424 179.232 379.294 179.208 379.15 179.208C378.958 179.208 378.782 179.237 378.622 179.296C378.467 179.355 378.304 179.453 378.134 179.592L377.718 178.856C377.942 178.696 378.19 178.563 378.462 178.456C378.739 178.344 379.056 178.288 379.414 178.288C379.643 178.288 379.862 178.32 380.07 178.384C380.283 178.448 380.47 178.544 380.63 178.672C380.795 178.795 380.926 178.949 381.022 179.136C381.118 179.323 381.166 179.539 381.166 179.784C381.166 179.955 381.15 180.115 381.118 180.264C381.091 180.408 381.046 180.555 380.982 180.704C380.923 180.848 380.843 180.997 380.742 181.152C380.646 181.307 380.528 181.475 380.39 181.656C380.283 181.795 380.166 181.936 380.038 182.08C379.915 182.219 379.792 182.352 379.67 182.48C379.547 182.608 379.424 182.728 379.302 182.84C379.184 182.952 379.078 183.045 378.982 183.12H381.286V184Z" fill="#4D87AB"/>
<path d="M323.803 27.912C324.208 27.816 324.646 27.752 325.115 27.72C325.584 27.688 326.048 27.672 326.507 27.672C326.998 27.672 327.494 27.72 327.995 27.816C328.507 27.912 328.971 28.088 329.387 28.344C329.803 28.6 330.139 28.952 330.395 29.4C330.662 29.848 330.795 30.4187 330.795 31.112C330.795 31.7947 330.672 32.3707 330.427 32.84C330.182 33.3093 329.856 33.6933 329.451 33.992C329.046 34.28 328.582 34.488 328.059 34.616C327.536 34.744 326.998 34.808 326.443 34.808C326.39 34.808 326.299 34.808 326.171 34.808C326.054 34.808 325.926 34.808 325.787 34.808C325.659 34.7973 325.531 34.7867 325.403 34.776C325.275 34.7653 325.184 34.7547 325.131 34.744V39H323.803V27.912ZM326.539 28.824C326.262 28.824 325.995 28.8293 325.739 28.84C325.483 28.8507 325.28 28.8773 325.131 28.92V33.56C325.184 33.5813 325.27 33.5973 325.387 33.608C325.504 33.608 325.627 33.6133 325.755 33.624C325.883 33.624 326.006 33.624 326.123 33.624C326.24 33.624 326.326 33.624 326.379 33.624C326.742 33.624 327.099 33.592 327.451 33.528C327.814 33.4533 328.139 33.3253 328.427 33.144C328.715 32.9627 328.944 32.7067 329.115 32.376C329.296 32.0453 329.387 31.624 329.387 31.112C329.387 30.6747 329.302 30.312 329.131 30.024C328.971 29.7253 328.752 29.4907 328.475 29.32C328.208 29.1387 327.904 29.0107 327.563 28.936C327.222 28.8613 326.88 28.824 326.539 28.824Z" fill="#4D87AB"/>
<path d="M331.915 27.136C331.915 26.848 332.011 26.6187 332.203 26.448C332.395 26.2773 332.63 26.192 332.907 26.192C333.28 26.192 333.579 26.304 333.803 26.528C334.027 26.752 334.139 27.088 334.139 27.536C334.139 27.9627 334.075 28.336 333.947 28.656C333.83 28.9653 333.68 29.2267 333.499 29.44C333.328 29.6533 333.147 29.824 332.955 29.952C332.763 30.0693 332.592 30.1547 332.443 30.208L331.963 29.552C332.262 29.4027 332.518 29.2107 332.731 28.976C332.955 28.7413 333.067 28.4427 333.067 28.08C333.024 28.0907 332.96 28.096 332.875 28.096C332.63 28.096 332.406 28.0053 332.203 27.824C332.011 27.6427 331.915 27.4133 331.915 27.136Z" fill="#4D87AB"/>
<path d="M334.915 27.136C334.915 26.848 335.011 26.6187 335.203 26.448C335.395 26.2773 335.63 26.192 335.907 26.192C336.28 26.192 336.579 26.304 336.803 26.528C337.027 26.752 337.139 27.088 337.139 27.536C337.139 27.9627 337.075 28.336 336.947 28.656C336.83 28.9653 336.68 29.2267 336.499 29.44C336.328 29.6533 336.147 29.824 335.955 29.952C335.763 30.0693 335.592 30.1547 335.443 30.208L334.963 29.552C335.262 29.4027 335.518 29.2107 335.731 28.976C335.955 28.7413 336.067 28.4427 336.067 28.08C336.024 28.0907 335.96 28.096 335.875 28.096C335.63 28.096 335.406 28.0053 335.203 27.824C335.011 27.6427 334.915 27.4133 334.915 27.136Z" fill="#4D87AB"/>
<path d="M330.406 36.192C330.406 35.7067 330.456 35.2827 330.558 34.92C330.659 34.552 330.8 34.248 330.982 34.008C331.168 33.768 331.39 33.5893 331.646 33.472C331.902 33.3493 332.187 33.288 332.502 33.288C333.174 33.288 333.691 33.5253 334.054 34C334.416 34.4693 334.598 35.2 334.598 36.192C334.598 36.6827 334.547 37.112 334.446 37.48C334.344 37.8427 334.2 38.1467 334.014 38.392C333.832 38.632 333.611 38.8133 333.35 38.936C333.094 39.0533 332.808 39.112 332.494 39.112C331.816 39.112 331.299 38.864 330.942 38.368C330.584 37.8667 330.406 37.1413 330.406 36.192ZM333.574 36.192C333.574 36.1067 333.571 36.0267 333.566 35.952C333.566 35.872 333.563 35.7947 333.558 35.72L331.598 37.504C331.763 37.9893 332.064 38.232 332.502 38.232C332.843 38.232 333.107 38.0693 333.294 37.744C333.48 37.4187 333.574 36.9013 333.574 36.192ZM331.43 36.192C331.43 36.272 331.43 36.3493 331.43 36.424C331.435 36.4933 331.44 36.5653 331.446 36.64L333.398 34.856C333.238 34.3973 332.936 34.168 332.494 34.168C332.152 34.168 331.888 34.3333 331.702 34.664C331.52 34.9893 331.43 35.4987 331.43 36.192Z" fill="#4D87AB"/>
<path d="M282.803 120.912C283.208 120.816 283.646 120.752 284.115 120.72C284.584 120.688 285.048 120.672 285.507 120.672C285.998 120.672 286.494 120.72 286.995 120.816C287.507 120.912 287.971 121.088 288.387 121.344C288.803 121.6 289.139 121.952 289.395 122.4C289.662 122.848 289.795 123.419 289.795 124.112C289.795 124.795 289.672 125.371 289.427 125.84C289.182 126.309 288.856 126.693 288.451 126.992C288.046 127.28 287.582 127.488 287.059 127.616C286.536 127.744 285.998 127.808 285.443 127.808C285.39 127.808 285.299 127.808 285.171 127.808C285.054 127.808 284.926 127.808 284.787 127.808C284.659 127.797 284.531 127.787 284.403 127.776C284.275 127.765 284.184 127.755 284.131 127.744V132H282.803V120.912ZM285.539 121.824C285.262 121.824 284.995 121.829 284.739 121.84C284.483 121.851 284.28 121.877 284.131 121.92V126.56C284.184 126.581 284.27 126.597 284.387 126.608C284.504 126.608 284.627 126.613 284.755 126.624C284.883 126.624 285.006 126.624 285.123 126.624C285.24 126.624 285.326 126.624 285.379 126.624C285.742 126.624 286.099 126.592 286.451 126.528C286.814 126.453 287.139 126.325 287.427 126.144C287.715 125.963 287.944 125.707 288.115 125.376C288.296 125.045 288.387 124.624 288.387 124.112C288.387 123.675 288.302 123.312 288.131 123.024C287.971 122.725 287.752 122.491 287.475 122.32C287.208 122.139 286.904 122.011 286.563 121.936C286.222 121.861 285.88 121.824 285.539 121.824Z" fill="#4D87AB"/>
<path d="M290.915 120.136C290.915 119.848 291.011 119.619 291.203 119.448C291.395 119.277 291.63 119.192 291.907 119.192C292.28 119.192 292.579 119.304 292.803 119.528C293.027 119.752 293.139 120.088 293.139 120.536C293.139 120.963 293.075 121.336 292.947 121.656C292.83 121.965 292.68 122.227 292.499 122.44C292.328 122.653 292.147 122.824 291.955 122.952C291.763 123.069 291.592 123.155 291.443 123.208L290.963 122.552C291.262 122.403 291.518 122.211 291.731 121.976C291.955 121.741 292.067 121.443 292.067 121.08C292.024 121.091 291.96 121.096 291.875 121.096C291.63 121.096 291.406 121.005 291.203 120.824C291.011 120.643 290.915 120.413 290.915 120.136Z" fill="#4D87AB"/>
<path d="M293.915 120.136C293.915 119.848 294.011 119.619 294.203 119.448C294.395 119.277 294.63 119.192 294.907 119.192C295.28 119.192 295.579 119.304 295.803 119.528C296.027 119.752 296.139 120.088 296.139 120.536C296.139 120.963 296.075 121.336 295.947 121.656C295.83 121.965 295.68 122.227 295.499 122.44C295.328 122.653 295.147 122.824 294.955 122.952C294.763 123.069 294.592 123.155 294.443 123.208L293.963 122.552C294.262 122.403 294.518 122.211 294.731 121.976C294.955 121.741 295.067 121.443 295.067 121.08C295.024 121.091 294.96 121.096 294.875 121.096C294.63 121.096 294.406 121.005 294.203 120.824C294.011 120.643 293.915 120.413 293.915 120.136Z" fill="#4D87AB"/>
<path d="M289.95 131.12H291.174V127.624L290.118 128.432L289.638 127.792L291.462 126.4H292.166V131.12H293.366V132H289.95V131.12Z" fill="#4D87AB"/>
<path d="M345.803 190.912C346.208 190.816 346.646 190.752 347.115 190.72C347.584 190.688 348.048 190.672 348.507 190.672C348.998 190.672 349.494 190.72 349.995 190.816C350.507 190.912 350.971 191.088 351.387 191.344C351.803 191.6 352.139 191.952 352.395 192.4C352.662 192.848 352.795 193.419 352.795 194.112C352.795 194.795 352.672 195.371 352.427 195.84C352.182 196.309 351.856 196.693 351.451 196.992C351.046 197.28 350.582 197.488 350.059 197.616C349.536 197.744 348.998 197.808 348.443 197.808C348.39 197.808 348.299 197.808 348.171 197.808C348.054 197.808 347.926 197.808 347.787 197.808C347.659 197.797 347.531 197.787 347.403 197.776C347.275 197.765 347.184 197.755 347.131 197.744V202H345.803V190.912ZM348.539 191.824C348.262 191.824 347.995 191.829 347.739 191.84C347.483 191.851 347.28 191.877 347.131 191.92V196.56C347.184 196.581 347.27 196.597 347.387 196.608C347.504 196.608 347.627 196.613 347.755 196.624C347.883 196.624 348.006 196.624 348.123 196.624C348.24 196.624 348.326 196.624 348.379 196.624C348.742 196.624 349.099 196.592 349.451 196.528C349.814 196.453 350.139 196.325 350.427 196.144C350.715 195.963 350.944 195.707 351.115 195.376C351.296 195.045 351.387 194.624 351.387 194.112C351.387 193.675 351.302 193.312 351.131 193.024C350.971 192.725 350.752 192.491 350.475 192.32C350.208 192.139 349.904 192.011 349.563 191.936C349.222 191.861 348.88 191.824 348.539 191.824Z" fill="#4D87AB"/>
<path d="M353.915 190.136C353.915 189.848 354.011 189.619 354.203 189.448C354.395 189.277 354.63 189.192 354.907 189.192C355.28 189.192 355.579 189.304 355.803 189.528C356.027 189.752 356.139 190.088 356.139 190.536C356.139 190.963 356.075 191.336 355.947 191.656C355.83 191.965 355.68 192.227 355.499 192.44C355.328 192.653 355.147 192.824 354.955 192.952C354.763 193.069 354.592 193.155 354.443 193.208L353.963 192.552C354.262 192.403 354.518 192.211 354.731 191.976C354.955 191.741 355.067 191.443 355.067 191.08C355.024 191.091 354.96 191.096 354.875 191.096C354.63 191.096 354.406 191.005 354.203 190.824C354.011 190.643 353.915 190.413 353.915 190.136Z" fill="#4D87AB"/>
<path d="M356.915 190.136C356.915 189.848 357.011 189.619 357.203 189.448C357.395 189.277 357.63 189.192 357.907 189.192C358.28 189.192 358.579 189.304 358.803 189.528C359.027 189.752 359.139 190.088 359.139 190.536C359.139 190.963 359.075 191.336 358.947 191.656C358.83 191.965 358.68 192.227 358.499 192.44C358.328 192.653 358.147 192.824 357.955 192.952C357.763 193.069 357.592 193.155 357.443 193.208L356.963 192.552C357.262 192.403 357.518 192.211 357.731 191.976C357.955 191.741 358.067 191.443 358.067 191.08C358.024 191.091 357.96 191.096 357.875 191.096C357.63 191.096 357.406 191.005 357.203 190.824C357.011 190.643 356.915 190.413 356.915 190.136Z" fill="#4D87AB"/>
<path d="M356.286 202H352.718V201.224C352.782 201.171 352.862 201.101 352.958 201.016C353.054 200.925 353.16 200.824 353.278 200.712C353.4 200.6 353.528 200.477 353.662 200.344C353.795 200.211 353.926 200.072 354.054 199.928C354.235 199.725 354.392 199.541 354.526 199.376C354.664 199.211 354.776 199.056 354.862 198.912C354.952 198.763 355.019 198.619 355.062 198.48C355.104 198.336 355.126 198.189 355.126 198.04C355.126 197.933 355.102 197.829 355.054 197.728C355.006 197.627 354.939 197.539 354.854 197.464C354.768 197.384 354.664 197.323 354.542 197.28C354.424 197.232 354.294 197.208 354.15 197.208C353.958 197.208 353.782 197.237 353.622 197.296C353.467 197.355 353.304 197.453 353.134 197.592L352.718 196.856C352.942 196.696 353.19 196.563 353.462 196.456C353.739 196.344 354.056 196.288 354.414 196.288C354.643 196.288 354.862 196.32 355.07 196.384C355.283 196.448 355.47 196.544 355.63 196.672C355.795 196.795 355.926 196.949 356.022 197.136C356.118 197.323 356.166 197.539 356.166 197.784C356.166 197.955 356.15 198.115 356.118 198.264C356.091 198.408 356.046 198.555 355.982 198.704C355.923 198.848 355.843 198.997 355.742 199.152C355.646 199.307 355.528 199.475 355.39 199.656C355.283 199.795 355.166 199.936 355.038 200.08C354.915 200.219 354.792 200.352 354.67 200.48C354.547 200.608 354.424 200.728 354.302 200.84C354.184 200.952 354.078 201.045 353.982 201.12H356.286V202Z" fill="#4D87AB"/>
<rect x="252.5" y="0.5" width="239" height="239" stroke="#E2DAD2"/>
<line x1="52.696" y1="382.282" x2="117.696" y2="445.282" stroke="#DB5475" stroke-width="2" stroke-dasharray="4 4"/>
<line x1="91.1719" y1="296.204" x2="47.4564" y2="393.867" stroke="#E2DAD2" stroke-dasharray="2 2"/>
<line x1="117" y1="445.5" x2="201" y2="445.5" stroke="#E2DAD2" stroke-dasharray="4 4"/>
<line x1="49.3214" y1="388.617" x2="117.292" y2="445.651" stroke="#E2DAD2" stroke-dasharray="2 2"/>
<circle cx="201" cy="445" r="5.5" fill="black" stroke="#E2DAD2" stroke-dasharray="2 2"/>
<circle cx="117" cy="445" r="5.5" fill="black" stroke="#E2DAD2" stroke-dasharray="2 2"/>
<circle cx="91" cy="298" r="5.5" fill="black" stroke="#E2DAD2" stroke-dasharray="2 2"/>
<circle cx="50" cy="389" r="5.5" fill="black" stroke="#E2DAD2" stroke-dasharray="2 2"/>
<line x1="117.029" y1="443" x2="200.993" y2="445.446" stroke="#E2DAD2" stroke-width="2"/>
<line x1="96.4839" y1="285.407" x2="52.9134" y2="383.134" stroke="#E2DAD2" stroke-width="2"/>
<circle cx="96" cy="285" r="5.5" fill="#98A16A" stroke="#E2DAD2"/>
<line x1="52.696" y1="382.282" x2="116.604" y2="444.224" stroke="#E2DAD2" stroke-width="2"/>
<circle cx="53" cy="382" r="5.5" fill="#98A16A" stroke="#E2DAD2"/>
<circle cx="115" cy="443" r="5.5" fill="#98A16A" stroke="#E2DAD2"/>
<circle cx="198" cy="445" r="5.5" fill="#98A16A" stroke="#E2DAD2"/>
<path d="M80.1071 334.8H82.7631V343.312C82.7631 343.963 82.8698 344.421 83.0831 344.688C83.3071 344.955 83.6325 345.088 84.0591 345.088C84.3578 345.088 84.6405 345.035 84.9071 344.928C85.1845 344.821 85.4885 344.64 85.8191 344.384L86.3951 345.264C86.2245 345.413 86.0378 345.547 85.8351 345.664C85.6325 345.781 85.4245 345.883 85.2111 345.968C84.9978 346.043 84.7845 346.101 84.5711 346.144C84.3578 346.187 84.1605 346.208 83.9791 346.208C83.5845 346.208 83.2325 346.155 82.9231 346.048C82.6138 345.952 82.3525 345.792 82.1391 345.568C81.9365 345.344 81.7818 345.051 81.6751 344.688C81.5685 344.315 81.5151 343.856 81.5151 343.312V335.872H80.1071V334.8Z" fill="#4D87AB"/>
<path d="M87.9496 345.12H89.1736V341.624L88.1176 342.432L87.6376 341.792L89.4616 340.4H90.1656V345.12H91.3656V346H87.9496V345.12Z" fill="#4D87AB"/>
<path d="M88.1071 398.8H90.7631V407.312C90.7631 407.963 90.8698 408.421 91.0831 408.688C91.3071 408.955 91.6325 409.088 92.0591 409.088C92.3578 409.088 92.6405 409.035 92.9071 408.928C93.1845 408.821 93.4885 408.64 93.8191 408.384L94.3951 409.264C94.2245 409.413 94.0378 409.547 93.8351 409.664C93.6325 409.781 93.4245 409.883 93.2111 409.968C92.9978 410.043 92.7845 410.101 92.5711 410.144C92.3578 410.187 92.1605 410.208 91.9791 410.208C91.5845 410.208 91.2325 410.155 90.9231 410.048C90.6138 409.952 90.3525 409.792 90.1391 409.568C89.9365 409.344 89.7818 409.051 89.6751 408.688C89.5685 408.315 89.5151 407.856 89.5151 407.312V399.872H88.1071V398.8Z" fill="#4D87AB"/>
<path d="M99.2856 410H95.7176V409.224C95.7816 409.171 95.8616 409.101 95.9576 409.016C96.0536 408.925 96.1602 408.824 96.2776 408.712C96.4002 408.6 96.5282 408.477 96.6616 408.344C96.7949 408.211 96.9256 408.072 97.0536 407.928C97.2349 407.725 97.3922 407.541 97.5256 407.376C97.6642 407.211 97.7762 407.056 97.8616 406.912C97.9522 406.763 98.0189 406.619 98.0616 406.48C98.1042 406.336 98.1256 406.189 98.1256 406.04C98.1256 405.933 98.1016 405.829 98.0536 405.728C98.0056 405.627 97.9389 405.539 97.8536 405.464C97.7682 405.384 97.6642 405.323 97.5416 405.28C97.4242 405.232 97.2936 405.208 97.1496 405.208C96.9576 405.208 96.7816 405.237 96.6216 405.296C96.4669 405.355 96.3042 405.453 96.1336 405.592L95.7176 404.856C95.9416 404.696 96.1896 404.563 96.4616 404.456C96.7389 404.344 97.0562 404.288 97.4136 404.288C97.6429 404.288 97.8616 404.32 98.0696 404.384C98.2829 404.448 98.4696 404.544 98.6296 404.672C98.7949 404.795 98.9256 404.949 99.0216 405.136C99.1176 405.323 99.1656 405.539 99.1656 405.784C99.1656 405.955 99.1496 406.115 99.1176 406.264C99.0909 406.408 99.0456 406.555 98.9816 406.704C98.9229 406.848 98.8429 406.997 98.7416 407.152C98.6456 407.307 98.5282 407.475 98.3896 407.656C98.2829 407.795 98.1656 407.936 98.0376 408.08C97.9149 408.219 97.7922 408.352 97.6696 408.48C97.5469 408.608 97.4242 408.728 97.3016 408.84C97.1842 408.952 97.0776 409.045 96.9816 409.12H99.2856V410Z" fill="#4D87AB"/>
<path d="M154.107 452.8H156.763V461.312C156.763 461.963 156.87 462.421 157.083 462.688C157.307 462.955 157.632 463.088 158.059 463.088C158.358 463.088 158.64 463.035 158.907 462.928C159.184 462.821 159.488 462.64 159.819 462.384L160.395 463.264C160.224 463.413 160.038 463.547 159.835 463.664C159.632 463.781 159.424 463.883 159.211 463.968C158.998 464.043 158.784 464.101 158.571 464.144C158.358 464.187 158.16 464.208 157.979 464.208C157.584 464.208 157.232 464.155 156.923 464.048C156.614 463.952 156.352 463.792 156.139 463.568C155.936 463.344 155.782 463.051 155.675 462.688C155.568 462.315 155.515 461.856 155.515 461.312V453.872H154.107V452.8Z" fill="#4D87AB"/>
<path d="M163.086 463.232C163.262 463.232 163.422 463.211 163.566 463.168C163.715 463.12 163.84 463.056 163.942 462.976C164.048 462.891 164.131 462.795 164.19 462.688C164.248 462.576 164.278 462.456 164.278 462.328C164.278 462.168 164.243 462.035 164.174 461.928C164.11 461.816 164.019 461.728 163.902 461.664C163.784 461.6 163.643 461.555 163.478 461.528C163.312 461.501 163.134 461.488 162.942 461.488H162.494V460.92L163.838 459.28H161.814V458.4H165.078V459.128L163.67 460.736H163.854C164.04 460.736 164.222 460.768 164.398 460.832C164.574 460.896 164.728 460.992 164.862 461.12C165 461.248 165.11 461.408 165.19 461.6C165.275 461.792 165.318 462.013 165.318 462.264C165.318 462.568 165.254 462.835 165.126 463.064C165.003 463.293 164.838 463.488 164.63 463.648C164.427 463.803 164.192 463.92 163.926 464C163.659 464.075 163.384 464.112 163.102 464.112C162.862 464.112 162.622 464.091 162.382 464.048C162.142 464.005 161.91 463.939 161.686 463.848L161.966 462.984C162.014 463.011 162.078 463.037 162.158 463.064C162.243 463.091 162.336 463.117 162.438 463.144C162.544 463.171 162.651 463.192 162.758 463.208C162.87 463.224 162.979 463.232 163.086 463.232Z" fill="#4D87AB"/>
<path d="M196.803 424.912C197.208 424.816 197.646 424.752 198.115 424.72C198.584 424.688 199.048 424.672 199.507 424.672C199.998 424.672 200.494 424.72 200.995 424.816C201.507 424.912 201.971 425.088 202.387 425.344C202.803 425.6 203.139 425.952 203.395 426.4C203.662 426.848 203.795 427.419 203.795 428.112C203.795 428.795 203.672 429.371 203.427 429.84C203.182 430.309 202.856 430.693 202.451 430.992C202.046 431.28 201.582 431.488 201.059 431.616C200.536 431.744 199.998 431.808 199.443 431.808C199.39 431.808 199.299 431.808 199.171 431.808C199.054 431.808 198.926 431.808 198.787 431.808C198.659 431.797 198.531 431.787 198.403 431.776C198.275 431.765 198.184 431.755 198.131 431.744V436H196.803V424.912ZM199.539 425.824C199.262 425.824 198.995 425.829 198.739 425.84C198.483 425.851 198.28 425.877 198.131 425.92V430.56C198.184 430.581 198.27 430.597 198.387 430.608C198.504 430.608 198.627 430.613 198.755 430.624C198.883 430.624 199.006 430.624 199.123 430.624C199.24 430.624 199.326 430.624 199.379 430.624C199.742 430.624 200.099 430.592 200.451 430.528C200.814 430.453 201.139 430.325 201.427 430.144C201.715 429.963 201.944 429.707 202.115 429.376C202.296 429.045 202.387 428.624 202.387 428.112C202.387 427.675 202.302 427.312 202.131 427.024C201.971 426.725 201.752 426.491 201.475 426.32C201.208 426.139 200.904 426.011 200.563 425.936C200.222 425.861 199.88 425.824 199.539 425.824Z" fill="#4D87AB"/>
<path d="M204.915 424.136C204.915 423.848 205.011 423.619 205.203 423.448C205.395 423.277 205.63 423.192 205.907 423.192C206.28 423.192 206.579 423.304 206.803 423.528C207.027 423.752 207.139 424.088 207.139 424.536C207.139 424.963 207.075 425.336 206.947 425.656C206.83 425.965 206.68 426.227 206.499 426.44C206.328 426.653 206.147 426.824 205.955 426.952C205.763 427.069 205.592 427.155 205.443 427.208L204.963 426.552C205.262 426.403 205.518 426.211 205.731 425.976C205.955 425.741 206.067 425.443 206.067 425.08C206.024 425.091 205.96 425.096 205.875 425.096C205.63 425.096 205.406 425.005 205.203 424.824C205.011 424.643 204.915 424.413 204.915 424.136Z" fill="#4D87AB"/>
<path d="M205.086 435.232C205.262 435.232 205.422 435.211 205.566 435.168C205.715 435.12 205.84 435.056 205.942 434.976C206.048 434.891 206.131 434.795 206.19 434.688C206.248 434.576 206.278 434.456 206.278 434.328C206.278 434.168 206.243 434.035 206.174 433.928C206.11 433.816 206.019 433.728 205.902 433.664C205.784 433.6 205.643 433.555 205.478 433.528C205.312 433.501 205.134 433.488 204.942 433.488H204.494V432.92L205.838 431.28H203.814V430.4H207.078V431.128L205.67 432.736H205.854C206.04 432.736 206.222 432.768 206.398 432.832C206.574 432.896 206.728 432.992 206.862 433.12C207 433.248 207.11 433.408 207.19 433.6C207.275 433.792 207.318 434.013 207.318 434.264C207.318 434.568 207.254 434.835 207.126 435.064C207.003 435.293 206.838 435.488 206.63 435.648C206.427 435.803 206.192 435.92 205.926 436C205.659 436.075 205.384 436.112 205.102 436.112C204.862 436.112 204.622 436.091 204.382 436.048C204.142 436.005 203.91 435.939 203.686 435.848L203.966 434.984C204.014 435.011 204.078 435.037 204.158 435.064C204.243 435.091 204.336 435.117 204.438 435.144C204.544 435.171 204.651 435.192 204.758 435.208C204.87 435.224 204.979 435.232 205.086 435.232Z" fill="#4D87AB"/>
<path d="M71.8031 279.912C72.2085 279.816 72.6458 279.752 73.1151 279.72C73.5845 279.688 74.0485 279.672 74.5071 279.672C74.9978 279.672 75.4938 279.72 75.9951 279.816C76.5071 279.912 76.9711 280.088 77.3871 280.344C77.8031 280.6 78.1391 280.952 78.3951 281.4C78.6618 281.848 78.7951 282.419 78.7951 283.112C78.7951 283.795 78.6725 284.371 78.4271 284.84C78.1818 285.309 77.8565 285.693 77.4511 285.992C77.0458 286.28 76.5818 286.488 76.0591 286.616C75.5365 286.744 74.9978 286.808 74.4431 286.808C74.3898 286.808 74.2991 286.808 74.1711 286.808C74.0538 286.808 73.9258 286.808 73.7871 286.808C73.6591 286.797 73.5311 286.787 73.4031 286.776C73.2751 286.765 73.1845 286.755 73.1311 286.744V291H71.8031V279.912ZM74.5391 280.824C74.2618 280.824 73.9951 280.829 73.7391 280.84C73.4831 280.851 73.2805 280.877 73.1311 280.92V285.56C73.1845 285.581 73.2698 285.597 73.3871 285.608C73.5045 285.608 73.6271 285.613 73.7551 285.624C73.8831 285.624 74.0058 285.624 74.1231 285.624C74.2405 285.624 74.3258 285.624 74.3791 285.624C74.7418 285.624 75.0991 285.592 75.4511 285.528C75.8138 285.453 76.1391 285.325 76.4271 285.144C76.7151 284.963 76.9445 284.707 77.1151 284.376C77.2965 284.045 77.3871 283.624 77.3871 283.112C77.3871 282.675 77.3018 282.312 77.1311 282.024C76.9711 281.725 76.7525 281.491 76.4751 281.32C76.2085 281.139 75.9045 281.011 75.5631 280.936C75.2218 280.861 74.8805 280.824 74.5391 280.824Z" fill="#4D87AB"/>
<path d="M79.9151 279.136C79.9151 278.848 80.0111 278.619 80.2031 278.448C80.3951 278.277 80.6298 278.192 80.9071 278.192C81.2805 278.192 81.5791 278.304 81.8031 278.528C82.0271 278.752 82.1391 279.088 82.1391 279.536C82.1391 279.963 82.0751 280.336 81.9471 280.656C81.8298 280.965 81.6805 281.227 81.4991 281.44C81.3285 281.653 81.1471 281.824 80.9551 281.952C80.7631 282.069 80.5925 282.155 80.4431 282.208L79.9631 281.552C80.2618 281.403 80.5178 281.211 80.7311 280.976C80.9551 280.741 81.0671 280.443 81.0671 280.08C81.0245 280.091 80.9605 280.096 80.8751 280.096C80.6298 280.096 80.4058 280.005 80.2031 279.824C80.0111 279.643 79.9151 279.413 79.9151 279.136Z" fill="#4D87AB"/>
<path d="M82.9151 279.136C82.9151 278.848 83.0111 278.619 83.2031 278.448C83.3951 278.277 83.6298 278.192 83.9071 278.192C84.2805 278.192 84.5791 278.304 84.8031 278.528C85.0271 278.752 85.1391 279.088 85.1391 279.536C85.1391 279.963 85.0751 280.336 84.9471 280.656C84.8298 280.965 84.6805 281.227 84.4991 281.44C84.3285 281.653 84.1471 281.824 83.9551 281.952C83.7631 282.069 83.5925 282.155 83.4431 282.208L82.9631 281.552C83.2618 281.403 83.5178 281.211 83.7311 280.976C83.9551 280.741 84.0671 280.443 84.0671 280.08C84.0245 280.091 83.9605 280.096 83.8751 280.096C83.6298 280.096 83.4058 280.005 83.2031 279.824C83.0111 279.643 82.9151 279.413 82.9151 279.136Z" fill="#4D87AB"/>
<path d="M78.4056 288.192C78.4056 287.707 78.4562 287.283 78.5576 286.92C78.6589 286.552 78.8002 286.248 78.9816 286.008C79.1682 285.768 79.3896 285.589 79.6456 285.472C79.9016 285.349 80.1869 285.288 80.5016 285.288C81.1736 285.288 81.6909 285.525 82.0536 286C82.4162 286.469 82.5976 287.2 82.5976 288.192C82.5976 288.683 82.5469 289.112 82.4456 289.48C82.3442 289.843 82.2002 290.147 82.0136 290.392C81.8322 290.632 81.6109 290.813 81.3496 290.936C81.0936 291.053 80.8082 291.112 80.4936 291.112C79.8162 291.112 79.2989 290.864 78.9416 290.368C78.5842 289.867 78.4056 289.141 78.4056 288.192ZM81.5736 288.192C81.5736 288.107 81.5709 288.027 81.5656 287.952C81.5656 287.872 81.5629 287.795 81.5576 287.72L79.5976 289.504C79.7629 289.989 80.0642 290.232 80.5016 290.232C80.8429 290.232 81.1069 290.069 81.2936 289.744C81.4802 289.419 81.5736 288.901 81.5736 288.192ZM79.4296 288.192C79.4296 288.272 79.4296 288.349 79.4296 288.424C79.4349 288.493 79.4402 288.565 79.4456 288.64L81.3976 286.856C81.2376 286.397 80.9362 286.168 80.4936 286.168C80.1522 286.168 79.8882 286.333 79.7016 286.664C79.5202 286.989 79.4296 287.499 79.4296 288.192Z" fill="#4D87AB"/>
<path d="M30.8031 372.912C31.2085 372.816 31.6458 372.752 32.1151 372.72C32.5845 372.688 33.0485 372.672 33.5071 372.672C33.9978 372.672 34.4938 372.72 34.9951 372.816C35.5071 372.912 35.9711 373.088 36.3871 373.344C36.8031 373.6 37.1391 373.952 37.3951 374.4C37.6618 374.848 37.7951 375.419 37.7951 376.112C37.7951 376.795 37.6725 377.371 37.4271 377.84C37.1818 378.309 36.8565 378.693 36.4511 378.992C36.0458 379.28 35.5818 379.488 35.0591 379.616C34.5365 379.744 33.9978 379.808 33.4431 379.808C33.3898 379.808 33.2991 379.808 33.1711 379.808C33.0538 379.808 32.9258 379.808 32.7871 379.808C32.6591 379.797 32.5311 379.787 32.4031 379.776C32.2751 379.765 32.1845 379.755 32.1311 379.744V384H30.8031V372.912ZM33.5391 373.824C33.2618 373.824 32.9951 373.829 32.7391 373.84C32.4831 373.851 32.2805 373.877 32.1311 373.92V378.56C32.1845 378.581 32.2698 378.597 32.3871 378.608C32.5045 378.608 32.6271 378.613 32.7551 378.624C32.8831 378.624 33.0058 378.624 33.1231 378.624C33.2405 378.624 33.3258 378.624 33.3791 378.624C33.7418 378.624 34.0991 378.592 34.4511 378.528C34.8138 378.453 35.1391 378.325 35.4271 378.144C35.7151 377.963 35.9445 377.707 36.1151 377.376C36.2965 377.045 36.3871 376.624 36.3871 376.112C36.3871 375.675 36.3018 375.312 36.1311 375.024C35.9711 374.725 35.7525 374.491 35.4751 374.32C35.2085 374.139 34.9045 374.011 34.5631 373.936C34.2218 373.861 33.8805 373.824 33.5391 373.824Z" fill="#4D87AB"/>
<path d="M38.9151 372.136C38.9151 371.848 39.0111 371.619 39.2031 371.448C39.3951 371.277 39.6298 371.192 39.9071 371.192C40.2805 371.192 40.5791 371.304 40.8031 371.528C41.0271 371.752 41.1391 372.088 41.1391 372.536C41.1391 372.963 41.0751 373.336 40.9471 373.656C40.8298 373.965 40.6805 374.227 40.4991 374.44C40.3285 374.653 40.1471 374.824 39.9551 374.952C39.7631 375.069 39.5925 375.155 39.4431 375.208L38.9631 374.552C39.2618 374.403 39.5178 374.211 39.7311 373.976C39.9551 373.741 40.0671 373.443 40.0671 373.08C40.0245 373.091 39.9605 373.096 39.8751 373.096C39.6298 373.096 39.4058 373.005 39.2031 372.824C39.0111 372.643 38.9151 372.413 38.9151 372.136Z" fill="#4D87AB"/>
<path d="M41.9151 372.136C41.9151 371.848 42.0111 371.619 42.2031 371.448C42.3951 371.277 42.6298 371.192 42.9071 371.192C43.2805 371.192 43.5791 371.304 43.8031 371.528C44.0271 371.752 44.1391 372.088 44.1391 372.536C44.1391 372.963 44.0751 373.336 43.9471 373.656C43.8298 373.965 43.6805 374.227 43.4991 374.44C43.3285 374.653 43.1471 374.824 42.9551 374.952C42.7631 375.069 42.5925 375.155 42.4431 375.208L41.9631 374.552C42.2618 374.403 42.5178 374.211 42.7311 373.976C42.9551 373.741 43.0671 373.443 43.0671 373.08C43.0245 373.091 42.9605 373.096 42.8751 373.096C42.6298 373.096 42.4058 373.005 42.2031 372.824C42.0111 372.643 41.9151 372.413 41.9151 372.136Z" fill="#4D87AB"/>
<path d="M37.9496 383.12H39.1736V379.624L38.1176 380.432L37.6376 379.792L39.4616 378.4H40.1656V383.12H41.3656V384H37.9496V383.12Z" fill="#4D87AB"/>
<path d="M93.8031 442.912C94.2085 442.816 94.6458 442.752 95.1151 442.72C95.5845 442.688 96.0485 442.672 96.5071 442.672C96.9978 442.672 97.4938 442.72 97.9951 442.816C98.5071 442.912 98.9711 443.088 99.3871 443.344C99.8031 443.6 100.139 443.952 100.395 444.4C100.662 444.848 100.795 445.419 100.795 446.112C100.795 446.795 100.672 447.371 100.427 447.84C100.182 448.309 99.8565 448.693 99.4511 448.992C99.0458 449.28 98.5818 449.488 98.0591 449.616C97.5365 449.744 96.9978 449.808 96.4431 449.808C96.3898 449.808 96.2991 449.808 96.1711 449.808C96.0538 449.808 95.9258 449.808 95.7871 449.808C95.6591 449.797 95.5311 449.787 95.4031 449.776C95.2751 449.765 95.1845 449.755 95.1311 449.744V454H93.8031V442.912ZM96.5391 443.824C96.2618 443.824 95.9951 443.829 95.7391 443.84C95.4831 443.851 95.2805 443.877 95.1311 443.92V448.56C95.1845 448.581 95.2698 448.597 95.3871 448.608C95.5045 448.608 95.6271 448.613 95.7551 448.624C95.8831 448.624 96.0058 448.624 96.1231 448.624C96.2405 448.624 96.3258 448.624 96.3791 448.624C96.7418 448.624 97.0991 448.592 97.4511 448.528C97.8138 448.453 98.1391 448.325 98.4271 448.144C98.7151 447.963 98.9445 447.707 99.1151 447.376C99.2965 447.045 99.3871 446.624 99.3871 446.112C99.3871 445.675 99.3018 445.312 99.1311 445.024C98.9711 444.725 98.7525 444.491 98.4751 444.32C98.2085 444.139 97.9045 444.011 97.5631 443.936C97.2218 443.861 96.8805 443.824 96.5391 443.824Z" fill="#4D87AB"/>
<path d="M101.915 442.136C101.915 441.848 102.011 441.619 102.203 441.448C102.395 441.277 102.63 441.192 102.907 441.192C103.28 441.192 103.579 441.304 103.803 441.528C104.027 441.752 104.139 442.088 104.139 442.536C104.139 442.963 104.075 443.336 103.947 443.656C103.83 443.965 103.68 444.227 103.499 444.44C103.328 444.653 103.147 444.824 102.955 444.952C102.763 445.069 102.592 445.155 102.443 445.208L101.963 444.552C102.262 444.403 102.518 444.211 102.731 443.976C102.955 443.741 103.067 443.443 103.067 443.08C103.024 443.091 102.96 443.096 102.875 443.096C102.63 443.096 102.406 443.005 102.203 442.824C102.011 442.643 101.915 442.413 101.915 442.136Z" fill="#4D87AB"/>
<path d="M104.915 442.136C104.915 441.848 105.011 441.619 105.203 441.448C105.395 441.277 105.63 441.192 105.907 441.192C106.28 441.192 106.579 441.304 106.803 441.528C107.027 441.752 107.139 442.088 107.139 442.536C107.139 442.963 107.075 443.336 106.947 443.656C106.83 443.965 106.68 444.227 106.499 444.44C106.328 444.653 106.147 444.824 105.955 444.952C105.763 445.069 105.592 445.155 105.443 445.208L104.963 444.552C105.262 444.403 105.518 444.211 105.731 443.976C105.955 443.741 106.067 443.443 106.067 443.08C106.024 443.091 105.96 443.096 105.875 443.096C105.63 443.096 105.406 443.005 105.203 442.824C105.011 442.643 104.915 442.413 104.915 442.136Z" fill="#4D87AB"/>
<path d="M104.286 454H100.718V453.224C100.782 453.171 100.862 453.101 100.958 453.016C101.054 452.925 101.16 452.824 101.278 452.712C101.4 452.6 101.528 452.477 101.662 452.344C101.795 452.211 101.926 452.072 102.054 451.928C102.235 451.725 102.392 451.541 102.526 451.376C102.664 451.211 102.776 451.056 102.862 450.912C102.952 450.763 103.019 450.619 103.062 450.48C103.104 450.336 103.126 450.189 103.126 450.04C103.126 449.933 103.102 449.829 103.054 449.728C103.006 449.627 102.939 449.539 102.854 449.464C102.768 449.384 102.664 449.323 102.542 449.28C102.424 449.232 102.294 449.208 102.15 449.208C101.958 449.208 101.782 449.237 101.622 449.296C101.467 449.355 101.304 449.453 101.134 449.592L100.718 448.856C100.942 448.696 101.19 448.563 101.462 448.456C101.739 448.344 102.056 448.288 102.414 448.288C102.643 448.288 102.862 448.32 103.07 448.384C103.283 448.448 103.47 448.544 103.63 448.672C103.795 448.795 103.926 448.949 104.022 449.136C104.118 449.323 104.166 449.539 104.166 449.784C104.166 449.955 104.15 450.115 104.118 450.264C104.091 450.408 104.046 450.555 103.982 450.704C103.923 450.848 103.843 450.997 103.742 451.152C103.646 451.307 103.528 451.475 103.39 451.656C103.283 451.795 103.166 451.936 103.038 452.08C102.915 452.219 102.792 452.352 102.67 452.48C102.547 452.608 102.424 452.728 102.302 452.84C102.184 452.952 102.078 453.045 101.982 453.12H104.286V454Z" fill="#4D87AB"/>
<rect x="0.5" y="252.5" width="239" height="239" stroke="#E2DAD2"/>
<line x1="372.029" y1="444" x2="455.993" y2="446.446" stroke="#E2DAD2" stroke-width="2"/>
<line x1="351.484" y1="286.407" x2="307.913" y2="384.134" stroke="#E2DAD2" stroke-width="2"/>
<line x1="307.696" y1="383.282" x2="371.604" y2="445.224" stroke="#E2DAD2" stroke-width="2"/>
<circle cx="308" cy="383" r="5.5" fill="#98A16A" stroke="#E2DAD2"/>
<circle cx="370" cy="444" r="5.5" fill="#98A16A" stroke="#E2DAD2"/>
<circle cx="453" cy="446" r="5.5" fill="#98A16A" stroke="#E2DAD2"/>
<circle cx="351" cy="286" r="5.5" fill="#98A16A" stroke="#E2DAD2"/>
<circle cx="456" cy="446" r="5.5" fill="#DB5475" stroke="#E2DAD2"/>
<path d="M333.107 335.8H335.763V344.312C335.763 344.963 335.87 345.421 336.083 345.688C336.307 345.955 336.632 346.088 337.059 346.088C337.358 346.088 337.64 346.035 337.907 345.928C338.184 345.821 338.488 345.64 338.819 345.384L339.395 346.264C339.224 346.413 339.038 346.547 338.835 346.664C338.632 346.781 338.424 346.883 338.211 346.968C337.998 347.043 337.784 347.101 337.571 347.144C337.358 347.187 337.16 347.208 336.979 347.208C336.584 347.208 336.232 347.155 335.923 347.048C335.614 346.952 335.352 346.792 335.139 346.568C334.936 346.344 334.782 346.051 334.675 345.688C334.568 345.315 334.515 344.856 334.515 344.312V336.872H333.107V335.8Z" fill="#4D87AB"/>
<path d="M340.95 346.12H342.174V342.624L341.118 343.432L340.638 342.792L342.462 341.4H343.166V346.12H344.366V347H340.95V346.12Z" fill="#4D87AB"/>
<path d="M341.107 399.8H343.763V408.312C343.763 408.963 343.87 409.421 344.083 409.688C344.307 409.955 344.632 410.088 345.059 410.088C345.358 410.088 345.64 410.035 345.907 409.928C346.184 409.821 346.488 409.64 346.819 409.384L347.395 410.264C347.224 410.413 347.038 410.547 346.835 410.664C346.632 410.781 346.424 410.883 346.211 410.968C345.998 411.043 345.784 411.101 345.571 411.144C345.358 411.187 345.16 411.208 344.979 411.208C344.584 411.208 344.232 411.155 343.923 411.048C343.614 410.952 343.352 410.792 343.139 410.568C342.936 410.344 342.782 410.051 342.675 409.688C342.568 409.315 342.515 408.856 342.515 408.312V400.872H341.107V399.8Z" fill="#4D87AB"/>
<path d="M352.286 411H348.718V410.224C348.782 410.171 348.862 410.101 348.958 410.016C349.054 409.925 349.16 409.824 349.278 409.712C349.4 409.6 349.528 409.477 349.662 409.344C349.795 409.211 349.926 409.072 350.054 408.928C350.235 408.725 350.392 408.541 350.526 408.376C350.664 408.211 350.776 408.056 350.862 407.912C350.952 407.763 351.019 407.619 351.062 407.48C351.104 407.336 351.126 407.189 351.126 407.04C351.126 406.933 351.102 406.829 351.054 406.728C351.006 406.627 350.939 406.539 350.854 406.464C350.768 406.384 350.664 406.323 350.542 406.28C350.424 406.232 350.294 406.208 350.15 406.208C349.958 406.208 349.782 406.237 349.622 406.296C349.467 406.355 349.304 406.453 349.134 406.592L348.718 405.856C348.942 405.696 349.19 405.563 349.462 405.456C349.739 405.344 350.056 405.288 350.414 405.288C350.643 405.288 350.862 405.32 351.07 405.384C351.283 405.448 351.47 405.544 351.63 405.672C351.795 405.795 351.926 405.949 352.022 406.136C352.118 406.323 352.166 406.539 352.166 406.784C352.166 406.955 352.15 407.115 352.118 407.264C352.091 407.408 352.046 407.555 351.982 407.704C351.923 407.848 351.843 407.997 351.742 408.152C351.646 408.307 351.528 408.475 351.39 408.656C351.283 408.795 351.166 408.936 351.038 409.08C350.915 409.219 350.792 409.352 350.67 409.48C350.547 409.608 350.424 409.728 350.302 409.84C350.184 409.952 350.078 410.045 349.982 410.12H352.286V411Z" fill="#4D87AB"/>
<path d="M409.107 427.8H411.763V436.312C411.763 436.963 411.87 437.421 412.083 437.688C412.307 437.955 412.632 438.088 413.059 438.088C413.358 438.088 413.64 438.035 413.907 437.928C414.184 437.821 414.488 437.64 414.819 437.384L415.395 438.264C415.224 438.413 415.038 438.547 414.835 438.664C414.632 438.781 414.424 438.883 414.211 438.968C413.998 439.043 413.784 439.101 413.571 439.144C413.358 439.187 413.16 439.208 412.979 439.208C412.584 439.208 412.232 439.155 411.923 439.048C411.614 438.952 411.352 438.792 411.139 438.568C410.936 438.344 410.782 438.051 410.675 437.688C410.568 437.315 410.515 436.856 410.515 436.312V428.872H409.107V427.8Z" fill="#4D87AB"/>
<path d="M418.086 438.232C418.262 438.232 418.422 438.211 418.566 438.168C418.715 438.12 418.84 438.056 418.942 437.976C419.048 437.891 419.131 437.795 419.19 437.688C419.248 437.576 419.278 437.456 419.278 437.328C419.278 437.168 419.243 437.035 419.174 436.928C419.11 436.816 419.019 436.728 418.902 436.664C418.784 436.6 418.643 436.555 418.478 436.528C418.312 436.501 418.134 436.488 417.942 436.488H417.494V435.92L418.838 434.28H416.814V433.4H420.078V434.128L418.67 435.736H418.854C419.04 435.736 419.222 435.768 419.398 435.832C419.574 435.896 419.728 435.992 419.862 436.12C420 436.248 420.11 436.408 420.19 436.6C420.275 436.792 420.318 437.013 420.318 437.264C420.318 437.568 420.254 437.835 420.126 438.064C420.003 438.293 419.838 438.488 419.63 438.648C419.427 438.803 419.192 438.92 418.926 439C418.659 439.075 418.384 439.112 418.102 439.112C417.862 439.112 417.622 439.091 417.382 439.048C417.142 439.005 416.91 438.939 416.686 438.848L416.966 437.984C417.014 438.011 417.078 438.037 417.158 438.064C417.243 438.091 417.336 438.117 417.438 438.144C417.544 438.171 417.651 438.192 417.758 438.208C417.87 438.224 417.979 438.232 418.086 438.232Z" fill="#4D87AB"/>
<path d="M449.803 425.912C450.208 425.816 450.646 425.752 451.115 425.72C451.584 425.688 452.048 425.672 452.507 425.672C452.998 425.672 453.494 425.72 453.995 425.816C454.507 425.912 454.971 426.088 455.387 426.344C455.803 426.6 456.139 426.952 456.395 427.4C456.662 427.848 456.795 428.419 456.795 429.112C456.795 429.795 456.672 430.371 456.427 430.84C456.182 431.309 455.856 431.693 455.451 431.992C455.046 432.28 454.582 432.488 454.059 432.616C453.536 432.744 452.998 432.808 452.443 432.808C452.39 432.808 452.299 432.808 452.171 432.808C452.054 432.808 451.926 432.808 451.787 432.808C451.659 432.797 451.531 432.787 451.403 432.776C451.275 432.765 451.184 432.755 451.131 432.744V437H449.803V425.912ZM452.539 426.824C452.262 426.824 451.995 426.829 451.739 426.84C451.483 426.851 451.28 426.877 451.131 426.92V431.56C451.184 431.581 451.27 431.597 451.387 431.608C451.504 431.608 451.627 431.613 451.755 431.624C451.883 431.624 452.006 431.624 452.123 431.624C452.24 431.624 452.326 431.624 452.379 431.624C452.742 431.624 453.099 431.592 453.451 431.528C453.814 431.453 454.139 431.325 454.427 431.144C454.715 430.963 454.944 430.707 455.115 430.376C455.296 430.045 455.387 429.624 455.387 429.112C455.387 428.675 455.302 428.312 455.131 428.024C454.971 427.725 454.752 427.491 454.475 427.32C454.208 427.139 453.904 427.011 453.563 426.936C453.222 426.861 452.88 426.824 452.539 426.824Z" fill="#4D87AB"/>
<path d="M457.03 433.88H456.238V433H457.03V432.088L458.07 431.792V433H460.166V433.88H458.07V435.024C458.07 435.435 458.147 435.733 458.302 435.92C458.456 436.101 458.672 436.192 458.95 436.192C459.094 436.192 459.224 436.176 459.342 436.144C459.459 436.107 459.563 436.061 459.654 436.008C459.75 435.955 459.835 435.896 459.91 435.832C459.99 435.768 460.062 435.709 460.126 435.656L460.606 436.376C460.515 436.483 460.4 436.581 460.262 436.672C460.128 436.757 459.982 436.835 459.822 436.904C459.667 436.968 459.504 437.019 459.334 437.056C459.163 437.093 458.995 437.112 458.83 437.112C458.232 437.112 457.782 436.947 457.478 436.616C457.179 436.28 457.03 435.749 457.03 435.024V433.88Z" fill="#4D87AB"/>
<path d="M324.803 280.912C325.208 280.816 325.646 280.752 326.115 280.72C326.584 280.688 327.048 280.672 327.507 280.672C327.998 280.672 328.494 280.72 328.995 280.816C329.507 280.912 329.971 281.088 330.387 281.344C330.803 281.6 331.139 281.952 331.395 282.4C331.662 282.848 331.795 283.419 331.795 284.112C331.795 284.795 331.672 285.371 331.427 285.84C331.182 286.309 330.856 286.693 330.451 286.992C330.046 287.28 329.582 287.488 329.059 287.616C328.536 287.744 327.998 287.808 327.443 287.808C327.39 287.808 327.299 287.808 327.171 287.808C327.054 287.808 326.926 287.808 326.787 287.808C326.659 287.797 326.531 287.787 326.403 287.776C326.275 287.765 326.184 287.755 326.131 287.744V292H324.803V280.912ZM327.539 281.824C327.262 281.824 326.995 281.829 326.739 281.84C326.483 281.851 326.28 281.877 326.131 281.92V286.56C326.184 286.581 326.27 286.597 326.387 286.608C326.504 286.608 326.627 286.613 326.755 286.624C326.883 286.624 327.006 286.624 327.123 286.624C327.24 286.624 327.326 286.624 327.379 286.624C327.742 286.624 328.099 286.592 328.451 286.528C328.814 286.453 329.139 286.325 329.427 286.144C329.715 285.963 329.944 285.707 330.115 285.376C330.296 285.045 330.387 284.624 330.387 284.112C330.387 283.675 330.302 283.312 330.131 283.024C329.971 282.725 329.752 282.491 329.475 282.32C329.208 282.139 328.904 282.011 328.563 281.936C328.222 281.861 327.88 281.824 327.539 281.824Z" fill="#4D87AB"/>
<path d="M332.915 280.136C332.915 279.848 333.011 279.619 333.203 279.448C333.395 279.277 333.63 279.192 333.907 279.192C334.28 279.192 334.579 279.304 334.803 279.528C335.027 279.752 335.139 280.088 335.139 280.536C335.139 280.963 335.075 281.336 334.947 281.656C334.83 281.965 334.68 282.227 334.499 282.44C334.328 282.653 334.147 282.824 333.955 282.952C333.763 283.069 333.592 283.155 333.443 283.208L332.963 282.552C333.262 282.403 333.518 282.211 333.731 281.976C333.955 281.741 334.067 281.443 334.067 281.08C334.024 281.091 333.96 281.096 333.875 281.096C333.63 281.096 333.406 281.005 333.203 280.824C333.011 280.643 332.915 280.413 332.915 280.136Z" fill="#4D87AB"/>
<path d="M335.915 280.136C335.915 279.848 336.011 279.619 336.203 279.448C336.395 279.277 336.63 279.192 336.907 279.192C337.28 279.192 337.579 279.304 337.803 279.528C338.027 279.752 338.139 280.088 338.139 280.536C338.139 280.963 338.075 281.336 337.947 281.656C337.83 281.965 337.68 282.227 337.499 282.44C337.328 282.653 337.147 282.824 336.955 282.952C336.763 283.069 336.592 283.155 336.443 283.208L335.963 282.552C336.262 282.403 336.518 282.211 336.731 281.976C336.955 281.741 337.067 281.443 337.067 281.08C337.024 281.091 336.96 281.096 336.875 281.096C336.63 281.096 336.406 281.005 336.203 280.824C336.011 280.643 335.915 280.413 335.915 280.136Z" fill="#4D87AB"/>
<path d="M331.406 289.192C331.406 288.707 331.456 288.283 331.558 287.92C331.659 287.552 331.8 287.248 331.982 287.008C332.168 286.768 332.39 286.589 332.646 286.472C332.902 286.349 333.187 286.288 333.502 286.288C334.174 286.288 334.691 286.525 335.054 287C335.416 287.469 335.598 288.2 335.598 289.192C335.598 289.683 335.547 290.112 335.446 290.48C335.344 290.843 335.2 291.147 335.014 291.392C334.832 291.632 334.611 291.813 334.35 291.936C334.094 292.053 333.808 292.112 333.494 292.112C332.816 292.112 332.299 291.864 331.942 291.368C331.584 290.867 331.406 290.141 331.406 289.192ZM334.574 289.192C334.574 289.107 334.571 289.027 334.566 288.952C334.566 288.872 334.563 288.795 334.558 288.72L332.598 290.504C332.763 290.989 333.064 291.232 333.502 291.232C333.843 291.232 334.107 291.069 334.294 290.744C334.48 290.419 334.574 289.901 334.574 289.192ZM332.43 289.192C332.43 289.272 332.43 289.349 332.43 289.424C332.435 289.493 332.44 289.565 332.446 289.64L334.398 287.856C334.238 287.397 333.936 287.168 333.494 287.168C333.152 287.168 332.888 287.333 332.702 287.664C332.52 287.989 332.43 288.499 332.43 289.192Z" fill="#4D87AB"/>
<path d="M283.803 373.912C284.208 373.816 284.646 373.752 285.115 373.72C285.584 373.688 286.048 373.672 286.507 373.672C286.998 373.672 287.494 373.72 287.995 373.816C288.507 373.912 288.971 374.088 289.387 374.344C289.803 374.6 290.139 374.952 290.395 375.4C290.662 375.848 290.795 376.419 290.795 377.112C290.795 377.795 290.672 378.371 290.427 378.84C290.182 379.309 289.856 379.693 289.451 379.992C289.046 380.28 288.582 380.488 288.059 380.616C287.536 380.744 286.998 380.808 286.443 380.808C286.39 380.808 286.299 380.808 286.171 380.808C286.054 380.808 285.926 380.808 285.787 380.808C285.659 380.797 285.531 380.787 285.403 380.776C285.275 380.765 285.184 380.755 285.131 380.744V385H283.803V373.912ZM286.539 374.824C286.262 374.824 285.995 374.829 285.739 374.84C285.483 374.851 285.28 374.877 285.131 374.92V379.56C285.184 379.581 285.27 379.597 285.387 379.608C285.504 379.608 285.627 379.613 285.755 379.624C285.883 379.624 286.006 379.624 286.123 379.624C286.24 379.624 286.326 379.624 286.379 379.624C286.742 379.624 287.099 379.592 287.451 379.528C287.814 379.453 288.139 379.325 288.427 379.144C288.715 378.963 288.944 378.707 289.115 378.376C289.296 378.045 289.387 377.624 289.387 377.112C289.387 376.675 289.302 376.312 289.131 376.024C288.971 375.725 288.752 375.491 288.475 375.32C288.208 375.139 287.904 375.011 287.563 374.936C287.222 374.861 286.88 374.824 286.539 374.824Z" fill="#4D87AB"/>
<path d="M291.915 373.136C291.915 372.848 292.011 372.619 292.203 372.448C292.395 372.277 292.63 372.192 292.907 372.192C293.28 372.192 293.579 372.304 293.803 372.528C294.027 372.752 294.139 373.088 294.139 373.536C294.139 373.963 294.075 374.336 293.947 374.656C293.83 374.965 293.68 375.227 293.499 375.44C293.328 375.653 293.147 375.824 292.955 375.952C292.763 376.069 292.592 376.155 292.443 376.208L291.963 375.552C292.262 375.403 292.518 375.211 292.731 374.976C292.955 374.741 293.067 374.443 293.067 374.08C293.024 374.091 292.96 374.096 292.875 374.096C292.63 374.096 292.406 374.005 292.203 373.824C292.011 373.643 291.915 373.413 291.915 373.136Z" fill="#4D87AB"/>
<path d="M294.915 373.136C294.915 372.848 295.011 372.619 295.203 372.448C295.395 372.277 295.63 372.192 295.907 372.192C296.28 372.192 296.579 372.304 296.803 372.528C297.027 372.752 297.139 373.088 297.139 373.536C297.139 373.963 297.075 374.336 296.947 374.656C296.83 374.965 296.68 375.227 296.499 375.44C296.328 375.653 296.147 375.824 295.955 375.952C295.763 376.069 295.592 376.155 295.443 376.208L294.963 375.552C295.262 375.403 295.518 375.211 295.731 374.976C295.955 374.741 296.067 374.443 296.067 374.08C296.024 374.091 295.96 374.096 295.875 374.096C295.63 374.096 295.406 374.005 295.203 373.824C295.011 373.643 294.915 373.413 294.915 373.136Z" fill="#4D87AB"/>
<path d="M290.95 384.12H292.174V380.624L291.118 381.432L290.638 380.792L292.462 379.4H293.166V384.12H294.366V385H290.95V384.12Z" fill="#4D87AB"/>
<path d="M346.803 443.912C347.208 443.816 347.646 443.752 348.115 443.72C348.584 443.688 349.048 443.672 349.507 443.672C349.998 443.672 350.494 443.72 350.995 443.816C351.507 443.912 351.971 444.088 352.387 444.344C352.803 444.6 353.139 444.952 353.395 445.4C353.662 445.848 353.795 446.419 353.795 447.112C353.795 447.795 353.672 448.371 353.427 448.84C353.182 449.309 352.856 449.693 352.451 449.992C352.046 450.28 351.582 450.488 351.059 450.616C350.536 450.744 349.998 450.808 349.443 450.808C349.39 450.808 349.299 450.808 349.171 450.808C349.054 450.808 348.926 450.808 348.787 450.808C348.659 450.797 348.531 450.787 348.403 450.776C348.275 450.765 348.184 450.755 348.131 450.744V455H346.803V443.912ZM349.539 444.824C349.262 444.824 348.995 444.829 348.739 444.84C348.483 444.851 348.28 444.877 348.131 444.92V449.56C348.184 449.581 348.27 449.597 348.387 449.608C348.504 449.608 348.627 449.613 348.755 449.624C348.883 449.624 349.006 449.624 349.123 449.624C349.24 449.624 349.326 449.624 349.379 449.624C349.742 449.624 350.099 449.592 350.451 449.528C350.814 449.453 351.139 449.325 351.427 449.144C351.715 448.963 351.944 448.707 352.115 448.376C352.296 448.045 352.387 447.624 352.387 447.112C352.387 446.675 352.302 446.312 352.131 446.024C351.971 445.725 351.752 445.491 351.475 445.32C351.208 445.139 350.904 445.011 350.563 444.936C350.222 444.861 349.88 444.824 349.539 444.824Z" fill="#4D87AB"/>
<path d="M354.915 443.136C354.915 442.848 355.011 442.619 355.203 442.448C355.395 442.277 355.63 442.192 355.907 442.192C356.28 442.192 356.579 442.304 356.803 442.528C357.027 442.752 357.139 443.088 357.139 443.536C357.139 443.963 357.075 444.336 356.947 444.656C356.83 444.965 356.68 445.227 356.499 445.44C356.328 445.653 356.147 445.824 355.955 445.952C355.763 446.069 355.592 446.155 355.443 446.208L354.963 445.552C355.262 445.403 355.518 445.211 355.731 444.976C355.955 444.741 356.067 444.443 356.067 444.08C356.024 444.091 355.96 444.096 355.875 444.096C355.63 444.096 355.406 444.005 355.203 443.824C355.011 443.643 354.915 443.413 354.915 443.136Z" fill="#4D87AB"/>
<path d="M357.915 443.136C357.915 442.848 358.011 442.619 358.203 442.448C358.395 442.277 358.63 442.192 358.907 442.192C359.28 442.192 359.579 442.304 359.803 442.528C360.027 442.752 360.139 443.088 360.139 443.536C360.139 443.963 360.075 444.336 359.947 444.656C359.83 444.965 359.68 445.227 359.499 445.44C359.328 445.653 359.147 445.824 358.955 445.952C358.763 446.069 358.592 446.155 358.443 446.208L357.963 445.552C358.262 445.403 358.518 445.211 358.731 444.976C358.955 444.741 359.067 444.443 359.067 444.08C359.024 444.091 358.96 444.096 358.875 444.096C358.63 444.096 358.406 444.005 358.203 443.824C358.011 443.643 357.915 443.413 357.915 443.136Z" fill="#4D87AB"/>
<path d="M357.286 455H353.718V454.224C353.782 454.171 353.862 454.101 353.958 454.016C354.054 453.925 354.16 453.824 354.278 453.712C354.4 453.6 354.528 453.477 354.662 453.344C354.795 453.211 354.926 453.072 355.054 452.928C355.235 452.725 355.392 452.541 355.526 452.376C355.664 452.211 355.776 452.056 355.862 451.912C355.952 451.763 356.019 451.619 356.062 451.48C356.104 451.336 356.126 451.189 356.126 451.04C356.126 450.933 356.102 450.829 356.054 450.728C356.006 450.627 355.939 450.539 355.854 450.464C355.768 450.384 355.664 450.323 355.542 450.28C355.424 450.232 355.294 450.208 355.15 450.208C354.958 450.208 354.782 450.237 354.622 450.296C354.467 450.355 354.304 450.453 354.134 450.592L353.718 449.856C353.942 449.696 354.19 449.563 354.462 449.456C354.739 449.344 355.056 449.288 355.414 449.288C355.643 449.288 355.862 449.32 356.07 449.384C356.283 449.448 356.47 449.544 356.63 449.672C356.795 449.795 356.926 449.949 357.022 450.136C357.118 450.323 357.166 450.539 357.166 450.784C357.166 450.955 357.15 451.115 357.118 451.264C357.091 451.408 357.046 451.555 356.982 451.704C356.923 451.848 356.843 451.997 356.742 452.152C356.646 452.307 356.528 452.475 356.39 452.656C356.283 452.795 356.166 452.936 356.038 453.08C355.915 453.219 355.792 453.352 355.67 453.48C355.547 453.608 355.424 453.728 355.302 453.84C355.184 453.952 355.078 454.045 354.982 454.12H357.286V455Z" fill="#4D87AB"/>
<path d="M433.803 451.912C434.208 451.816 434.646 451.752 435.115 451.72C435.584 451.688 436.048 451.672 436.507 451.672C436.998 451.672 437.494 451.72 437.995 451.816C438.507 451.912 438.971 452.088 439.387 452.344C439.803 452.6 440.139 452.952 440.395 453.4C440.662 453.848 440.795 454.419 440.795 455.112C440.795 455.795 440.672 456.371 440.427 456.84C440.182 457.309 439.856 457.693 439.451 457.992C439.046 458.28 438.582 458.488 438.059 458.616C437.536 458.744 436.998 458.808 436.443 458.808C436.39 458.808 436.299 458.808 436.171 458.808C436.054 458.808 435.926 458.808 435.787 458.808C435.659 458.797 435.531 458.787 435.403 458.776C435.275 458.765 435.184 458.755 435.131 458.744V463H433.803V451.912ZM436.539 452.824C436.262 452.824 435.995 452.829 435.739 452.84C435.483 452.851 435.28 452.877 435.131 452.92V457.56C435.184 457.581 435.27 457.597 435.387 457.608C435.504 457.608 435.627 457.613 435.755 457.624C435.883 457.624 436.006 457.624 436.123 457.624C436.24 457.624 436.326 457.624 436.379 457.624C436.742 457.624 437.099 457.592 437.451 457.528C437.814 457.453 438.139 457.325 438.427 457.144C438.715 456.963 438.944 456.707 439.115 456.376C439.296 456.045 439.387 455.624 439.387 455.112C439.387 454.675 439.302 454.312 439.131 454.024C438.971 453.725 438.752 453.491 438.475 453.32C438.208 453.139 437.904 453.011 437.563 452.936C437.222 452.861 436.88 452.824 436.539 452.824Z" fill="#4D87AB"/>
<path d="M441.915 451.136C441.915 450.848 442.011 450.619 442.203 450.448C442.395 450.277 442.63 450.192 442.907 450.192C443.28 450.192 443.579 450.304 443.803 450.528C444.027 450.752 444.139 451.088 444.139 451.536C444.139 451.963 444.075 452.336 443.947 452.656C443.83 452.965 443.68 453.227 443.499 453.44C443.328 453.653 443.147 453.824 442.955 453.952C442.763 454.069 442.592 454.155 442.443 454.208L441.963 453.552C442.262 453.403 442.518 453.211 442.731 452.976C442.955 452.741 443.067 452.443 443.067 452.08C443.024 452.091 442.96 452.096 442.875 452.096C442.63 452.096 442.406 452.005 442.203 451.824C442.011 451.643 441.915 451.413 441.915 451.136Z" fill="#4D87AB"/>
<path d="M444.915 451.136C444.915 450.848 445.011 450.619 445.203 450.448C445.395 450.277 445.63 450.192 445.907 450.192C446.28 450.192 446.579 450.304 446.803 450.528C447.027 450.752 447.139 451.088 447.139 451.536C447.139 451.963 447.075 452.336 446.947 452.656C446.83 452.965 446.68 453.227 446.499 453.44C446.328 453.653 446.147 453.824 445.955 453.952C445.763 454.069 445.592 454.155 445.443 454.208L444.963 453.552C445.262 453.403 445.518 453.211 445.731 452.976C445.955 452.741 446.067 452.443 446.067 452.08C446.024 452.091 445.96 452.096 445.875 452.096C445.63 452.096 445.406 452.005 445.203 451.824C445.011 451.643 444.915 451.413 444.915 451.136Z" fill="#4D87AB"/>
<path d="M442.086 462.232C442.262 462.232 442.422 462.211 442.566 462.168C442.715 462.12 442.84 462.056 442.942 461.976C443.048 461.891 443.131 461.795 443.19 461.688C443.248 461.576 443.278 461.456 443.278 461.328C443.278 461.168 443.243 461.035 443.174 460.928C443.11 460.816 443.019 460.728 442.902 460.664C442.784 460.6 442.643 460.555 442.478 460.528C442.312 460.501 442.134 460.488 441.942 460.488H441.494V459.92L442.838 458.28H440.814V457.4H444.078V458.128L442.67 459.736H442.854C443.04 459.736 443.222 459.768 443.398 459.832C443.574 459.896 443.728 459.992 443.862 460.12C444 460.248 444.11 460.408 444.19 460.6C444.275 460.792 444.318 461.013 444.318 461.264C444.318 461.568 444.254 461.835 444.126 462.064C444.003 462.293 443.838 462.488 443.63 462.648C443.427 462.803 443.192 462.92 442.926 463C442.659 463.075 442.384 463.112 442.102 463.112C441.862 463.112 441.622 463.091 441.382 463.048C441.142 463.005 440.91 462.939 440.686 462.848L440.966 461.984C441.014 462.011 441.078 462.037 441.158 462.064C441.243 462.091 441.336 462.117 441.438 462.144C441.544 462.171 441.651 462.192 441.758 462.208C441.87 462.224 441.979 462.232 442.086 462.232Z" fill="#4D87AB"/>
<rect x="252.5" y="252.5" width="239" height="239" stroke="#E2DAD2"/>
</svg>
