<svg viewBox="0 0 240 240" fill="none" xmlns="http://www.w3.org/2000/svg">
<line x1="40.2656" y1="98.3213" x2="113.266" y2="19.3213" stroke="#E2DAD2" stroke-width="2"/>
<line x1="40.883" y1="99.5306" x2="82.883" y2="178.531" stroke="#E2DAD2" stroke-width="2"/>
<line x1="83.452" y1="179.108" x2="158.452" y2="217.108" stroke="#E2DAD2" stroke-width="2"/>
<circle cx="114" cy="19" r="5.5" fill="black" stroke="#E2DAD2"/>
<circle cx="41" cy="99" r="5.5" fill="black" stroke="#E2DAD2"/>
<circle cx="83" cy="179" r="5.5" fill="black" stroke="#E2DAD2"/>
<circle cx="158" cy="217" r="5.5" fill="black" stroke="#E2DAD2"/>
<circle cx="219" cy="179" r="5.5" fill="#DB5475" stroke="#E2DAD2"/>
<path d="M82.1071 58.8H84.7631V67.312C84.7631 67.9627 84.8698 68.4213 85.0831 68.688C85.3071 68.9547 85.6325 69.088 86.0591 69.088C86.3578 69.088 86.6405 69.0347 86.9071 68.928C87.1845 68.8213 87.4885 68.64 87.8191 68.384L88.3951 69.264C88.2245 69.4133 88.0378 69.5467 87.8351 69.664C87.6325 69.7813 87.4245 69.8827 87.2111 69.968C86.9978 70.0427 86.7845 70.1013 86.5711 70.144C86.3578 70.1867 86.1605 70.208 85.9791 70.208C85.5845 70.208 85.2325 70.1547 84.9231 70.048C84.6138 69.952 84.3525 69.792 84.1391 69.568C83.9365 69.344 83.7818 69.0507 83.6751 68.688C83.5685 68.3147 83.5151 67.856 83.5151 67.312V59.872H82.1071V58.8Z" fill="#4D87AB"/>
<path d="M89.9496 69.12H91.1736V65.624L90.1176 66.432L89.6376 65.792L91.4616 64.4H92.1656V69.12H93.3656V70H89.9496V69.12Z" fill="#4D87AB"/>
<path d="M68.1071 126.8H70.7631V135.312C70.7631 135.963 70.8698 136.421 71.0831 136.688C71.3071 136.955 71.6325 137.088 72.0591 137.088C72.3578 137.088 72.6405 137.035 72.9071 136.928C73.1845 136.821 73.4885 136.64 73.8191 136.384L74.3951 137.264C74.2245 137.413 74.0378 137.547 73.8351 137.664C73.6325 137.781 73.4245 137.883 73.2111 137.968C72.9978 138.043 72.7845 138.101 72.5711 138.144C72.3578 138.187 72.1605 138.208 71.9791 138.208C71.5845 138.208 71.2325 138.155 70.9231 138.048C70.6138 137.952 70.3525 137.792 70.1391 137.568C69.9365 137.344 69.7818 137.051 69.6751 136.688C69.5685 136.315 69.5151 135.856 69.5151 135.312V127.872H68.1071V126.8Z" fill="#4D87AB"/>
<path d="M79.2856 138H75.7176V137.224C75.7816 137.171 75.8616 137.101 75.9576 137.016C76.0536 136.925 76.1602 136.824 76.2776 136.712C76.4002 136.6 76.5282 136.477 76.6616 136.344C76.7949 136.211 76.9256 136.072 77.0536 135.928C77.2349 135.725 77.3922 135.541 77.5256 135.376C77.6642 135.211 77.7762 135.056 77.8616 134.912C77.9522 134.763 78.0189 134.619 78.0616 134.48C78.1042 134.336 78.1256 134.189 78.1256 134.04C78.1256 133.933 78.1016 133.829 78.0536 133.728C78.0056 133.627 77.9389 133.539 77.8536 133.464C77.7682 133.384 77.6642 133.323 77.5416 133.28C77.4242 133.232 77.2936 133.208 77.1496 133.208C76.9576 133.208 76.7816 133.237 76.6216 133.296C76.4669 133.355 76.3042 133.453 76.1336 133.592L75.7176 132.856C75.9416 132.696 76.1896 132.563 76.4616 132.456C76.7389 132.344 77.0562 132.288 77.4136 132.288C77.6429 132.288 77.8616 132.32 78.0696 132.384C78.2829 132.448 78.4696 132.544 78.6296 132.672C78.7949 132.795 78.9256 132.949 79.0216 133.136C79.1176 133.323 79.1656 133.539 79.1656 133.784C79.1656 133.955 79.1496 134.115 79.1176 134.264C79.0909 134.408 79.0456 134.555 78.9816 134.704C78.9229 134.848 78.8429 134.997 78.7416 135.152C78.6456 135.307 78.5282 135.475 78.3896 135.656C78.2829 135.795 78.1656 135.936 78.0376 136.08C77.9149 136.219 77.7922 136.352 77.6696 136.48C77.5469 136.608 77.4242 136.728 77.3016 136.84C77.1842 136.952 77.0776 137.045 76.9816 137.12H79.2856V138Z" fill="#4D87AB"/>
<path d="M119.107 180.8H121.763V189.312C121.763 189.963 121.87 190.421 122.083 190.688C122.307 190.955 122.632 191.088 123.059 191.088C123.358 191.088 123.64 191.035 123.907 190.928C124.184 190.821 124.488 190.64 124.819 190.384L125.395 191.264C125.224 191.413 125.038 191.547 124.835 191.664C124.632 191.781 124.424 191.883 124.211 191.968C123.998 192.043 123.784 192.101 123.571 192.144C123.358 192.187 123.16 192.208 122.979 192.208C122.584 192.208 122.232 192.155 121.923 192.048C121.614 191.952 121.352 191.792 121.139 191.568C120.936 191.344 120.782 191.051 120.675 190.688C120.568 190.315 120.515 189.856 120.515 189.312V181.872H119.107V180.8Z" fill="#4D87AB"/>
<path d="M128.086 191.232C128.262 191.232 128.422 191.211 128.566 191.168C128.715 191.12 128.84 191.056 128.942 190.976C129.048 190.891 129.131 190.795 129.19 190.688C129.248 190.576 129.278 190.456 129.278 190.328C129.278 190.168 129.243 190.035 129.174 189.928C129.11 189.816 129.019 189.728 128.902 189.664C128.784 189.6 128.643 189.555 128.478 189.528C128.312 189.501 128.134 189.488 127.942 189.488H127.494V188.92L128.838 187.28H126.814V186.4H130.078V187.128L128.67 188.736H128.854C129.04 188.736 129.222 188.768 129.398 188.832C129.574 188.896 129.728 188.992 129.862 189.12C130 189.248 130.11 189.408 130.19 189.6C130.275 189.792 130.318 190.013 130.318 190.264C130.318 190.568 130.254 190.835 130.126 191.064C130.003 191.293 129.838 191.488 129.63 191.648C129.427 191.803 129.192 191.92 128.926 192C128.659 192.075 128.384 192.112 128.102 192.112C127.862 192.112 127.622 192.091 127.382 192.048C127.142 192.005 126.91 191.939 126.686 191.848L126.966 190.984C127.014 191.011 127.078 191.037 127.158 191.064C127.243 191.091 127.336 191.117 127.438 191.144C127.544 191.171 127.651 191.192 127.758 191.208C127.87 191.224 127.979 191.232 128.086 191.232Z" fill="#4D87AB"/>
<path d="M90.8031 13.912C91.2085 13.816 91.6458 13.752 92.1151 13.72C92.5845 13.688 93.0485 13.672 93.5071 13.672C93.9978 13.672 94.4938 13.72 94.9951 13.816C95.5071 13.912 95.9711 14.088 96.3871 14.344C96.8031 14.6 97.1391 14.952 97.3951 15.4C97.6618 15.848 97.7951 16.4187 97.7951 17.112C97.7951 17.7947 97.6725 18.3707 97.4271 18.84C97.1818 19.3093 96.8565 19.6933 96.4511 19.992C96.0458 20.28 95.5818 20.488 95.0591 20.616C94.5365 20.744 93.9978 20.808 93.4431 20.808C93.3898 20.808 93.2991 20.808 93.1711 20.808C93.0538 20.808 92.9258 20.808 92.7871 20.808C92.6591 20.7973 92.5311 20.7867 92.4031 20.776C92.2751 20.7653 92.1845 20.7547 92.1311 20.744V25H90.8031V13.912ZM93.5391 14.824C93.2618 14.824 92.9951 14.8293 92.7391 14.84C92.4831 14.8507 92.2805 14.8773 92.1311 14.92V19.56C92.1845 19.5813 92.2698 19.5973 92.3871 19.608C92.5045 19.608 92.6271 19.6133 92.7551 19.624C92.8831 19.624 93.0058 19.624 93.1231 19.624C93.2405 19.624 93.3258 19.624 93.3791 19.624C93.7418 19.624 94.0991 19.592 94.4511 19.528C94.8138 19.4533 95.1391 19.3253 95.4271 19.144C95.7151 18.9627 95.9445 18.7067 96.1151 18.376C96.2965 18.0453 96.3871 17.624 96.3871 17.112C96.3871 16.6747 96.3018 16.312 96.1311 16.024C95.9711 15.7253 95.7525 15.4907 95.4751 15.32C95.2085 15.1387 94.9045 15.0107 94.5631 14.936C94.2218 14.8613 93.8805 14.824 93.5391 14.824Z" fill="#4D87AB"/>
<path d="M97.4056 22.192C97.4056 21.7067 97.4562 21.2827 97.5576 20.92C97.6589 20.552 97.8002 20.248 97.9816 20.008C98.1682 19.768 98.3896 19.5893 98.6456 19.472C98.9016 19.3493 99.1869 19.288 99.5016 19.288C100.174 19.288 100.691 19.5253 101.054 20C101.416 20.4693 101.598 21.2 101.598 22.192C101.598 22.6827 101.547 23.112 101.446 23.48C101.344 23.8427 101.2 24.1467 101.014 24.392C100.832 24.632 100.611 24.8133 100.35 24.936C100.094 25.0533 99.8082 25.112 99.4936 25.112C98.8162 25.112 98.2989 24.864 97.9416 24.368C97.5842 23.8667 97.4056 23.1413 97.4056 22.192ZM100.574 22.192C100.574 22.1067 100.571 22.0267 100.566 21.952C100.566 21.872 100.563 21.7947 100.558 21.72L98.5976 23.504C98.7629 23.9893 99.0642 24.232 99.5016 24.232C99.8429 24.232 100.107 24.0693 100.294 23.744C100.48 23.4187 100.574 22.9013 100.574 22.192ZM98.4296 22.192C98.4296 22.272 98.4296 22.3493 98.4296 22.424C98.4349 22.4933 98.4402 22.5653 98.4456 22.64L100.398 20.856C100.238 20.3973 99.9362 20.168 99.4936 20.168C99.1522 20.168 98.8882 20.3333 98.7016 20.664C98.5202 20.9893 98.4296 21.4987 98.4296 22.192Z" fill="#4D87AB"/>
<path d="M20.8031 93.912C21.2085 93.816 21.6458 93.752 22.1151 93.72C22.5845 93.688 23.0485 93.672 23.5071 93.672C23.9978 93.672 24.4938 93.72 24.9951 93.816C25.5071 93.912 25.9711 94.088 26.3871 94.344C26.8031 94.6 27.1391 94.952 27.3951 95.4C27.6618 95.848 27.7951 96.4187 27.7951 97.112C27.7951 97.7947 27.6725 98.3707 27.4271 98.84C27.1818 99.3093 26.8565 99.6933 26.4511 99.992C26.0458 100.28 25.5818 100.488 25.0591 100.616C24.5365 100.744 23.9978 100.808 23.4431 100.808C23.3898 100.808 23.2991 100.808 23.1711 100.808C23.0538 100.808 22.9258 100.808 22.7871 100.808C22.6591 100.797 22.5311 100.787 22.4031 100.776C22.2751 100.765 22.1845 100.755 22.1311 100.744V105H20.8031V93.912ZM23.5391 94.824C23.2618 94.824 22.9951 94.8293 22.7391 94.84C22.4831 94.8507 22.2805 94.8773 22.1311 94.92V99.56C22.1845 99.5813 22.2698 99.5973 22.3871 99.608C22.5045 99.608 22.6271 99.6133 22.7551 99.624C22.8831 99.624 23.0058 99.624 23.1231 99.624C23.2405 99.624 23.3258 99.624 23.3791 99.624C23.7418 99.624 24.0991 99.592 24.4511 99.528C24.8138 99.4533 25.1391 99.3253 25.4271 99.144C25.7151 98.9627 25.9445 98.7067 26.1151 98.376C26.2965 98.0453 26.3871 97.624 26.3871 97.112C26.3871 96.6747 26.3018 96.312 26.1311 96.024C25.9711 95.7253 25.7525 95.4907 25.4751 95.32C25.2085 95.1387 24.9045 95.0107 24.5631 94.936C24.2218 94.8613 23.8805 94.824 23.5391 94.824Z" fill="#4D87AB"/>
<path d="M27.9496 104.12H29.1736V100.624L28.1176 101.432L27.6376 100.792L29.4616 99.4H30.1656V104.12H31.3656V105H27.9496V104.12Z" fill="#4D87AB"/>
<path d="M61.8031 173.912C62.2085 173.816 62.6458 173.752 63.1151 173.72C63.5845 173.688 64.0485 173.672 64.5071 173.672C64.9978 173.672 65.4938 173.72 65.9951 173.816C66.5071 173.912 66.9711 174.088 67.3871 174.344C67.8031 174.6 68.1391 174.952 68.3951 175.4C68.6618 175.848 68.7951 176.419 68.7951 177.112C68.7951 177.795 68.6725 178.371 68.4271 178.84C68.1818 179.309 67.8565 179.693 67.4511 179.992C67.0458 180.28 66.5818 180.488 66.0591 180.616C65.5365 180.744 64.9978 180.808 64.4431 180.808C64.3898 180.808 64.2991 180.808 64.1711 180.808C64.0538 180.808 63.9258 180.808 63.7871 180.808C63.6591 180.797 63.5311 180.787 63.4031 180.776C63.2751 180.765 63.1845 180.755 63.1311 180.744V185H61.8031V173.912ZM64.5391 174.824C64.2618 174.824 63.9951 174.829 63.7391 174.84C63.4831 174.851 63.2805 174.877 63.1311 174.92V179.56C63.1845 179.581 63.2698 179.597 63.3871 179.608C63.5045 179.608 63.6271 179.613 63.7551 179.624C63.8831 179.624 64.0058 179.624 64.1231 179.624C64.2405 179.624 64.3258 179.624 64.3791 179.624C64.7418 179.624 65.0991 179.592 65.4511 179.528C65.8138 179.453 66.1391 179.325 66.4271 179.144C66.7151 178.963 66.9445 178.707 67.1151 178.376C67.2965 178.045 67.3871 177.624 67.3871 177.112C67.3871 176.675 67.3018 176.312 67.1311 176.024C66.9711 175.725 66.7525 175.491 66.4751 175.32C66.2085 175.139 65.9045 175.011 65.5631 174.936C65.2218 174.861 64.8805 174.824 64.5391 174.824Z" fill="#4D87AB"/>
<path d="M72.2856 185H68.7176V184.224C68.7816 184.171 68.8616 184.101 68.9576 184.016C69.0536 183.925 69.1602 183.824 69.2776 183.712C69.4002 183.6 69.5282 183.477 69.6616 183.344C69.7949 183.211 69.9256 183.072 70.0536 182.928C70.2349 182.725 70.3922 182.541 70.5256 182.376C70.6642 182.211 70.7762 182.056 70.8616 181.912C70.9522 181.763 71.0189 181.619 71.0616 181.48C71.1042 181.336 71.1256 181.189 71.1256 181.04C71.1256 180.933 71.1016 180.829 71.0536 180.728C71.0056 180.627 70.9389 180.539 70.8536 180.464C70.7682 180.384 70.6642 180.323 70.5416 180.28C70.4242 180.232 70.2936 180.208 70.1496 180.208C69.9576 180.208 69.7816 180.237 69.6216 180.296C69.4669 180.355 69.3042 180.453 69.1336 180.592L68.7176 179.856C68.9416 179.696 69.1896 179.563 69.4616 179.456C69.7389 179.344 70.0562 179.288 70.4136 179.288C70.6429 179.288 70.8616 179.32 71.0696 179.384C71.2829 179.448 71.4696 179.544 71.6296 179.672C71.7949 179.795 71.9256 179.949 72.0216 180.136C72.1176 180.323 72.1656 180.539 72.1656 180.784C72.1656 180.955 72.1496 181.115 72.1176 181.264C72.0909 181.408 72.0456 181.555 71.9816 181.704C71.9229 181.848 71.8429 181.997 71.7416 182.152C71.6456 182.307 71.5282 182.475 71.3896 182.656C71.2829 182.795 71.1656 182.936 71.0376 183.08C70.9149 183.219 70.7922 183.352 70.6696 183.48C70.5469 183.608 70.4242 183.728 70.3016 183.84C70.1842 183.952 70.0776 184.045 69.9816 184.12H72.2856V185Z" fill="#4D87AB"/>
<path d="M211.803 157.912C212.208 157.816 212.646 157.752 213.115 157.72C213.584 157.688 214.048 157.672 214.507 157.672C214.998 157.672 215.494 157.72 215.995 157.816C216.507 157.912 216.971 158.088 217.387 158.344C217.803 158.6 218.139 158.952 218.395 159.4C218.662 159.848 218.795 160.419 218.795 161.112C218.795 161.795 218.672 162.371 218.427 162.84C218.182 163.309 217.856 163.693 217.451 163.992C217.046 164.28 216.582 164.488 216.059 164.616C215.536 164.744 214.998 164.808 214.443 164.808C214.39 164.808 214.299 164.808 214.171 164.808C214.054 164.808 213.926 164.808 213.787 164.808C213.659 164.797 213.531 164.787 213.403 164.776C213.275 164.765 213.184 164.755 213.131 164.744V169H211.803V157.912ZM214.539 158.824C214.262 158.824 213.995 158.829 213.739 158.84C213.483 158.851 213.28 158.877 213.131 158.92V163.56C213.184 163.581 213.27 163.597 213.387 163.608C213.504 163.608 213.627 163.613 213.755 163.624C213.883 163.624 214.006 163.624 214.123 163.624C214.24 163.624 214.326 163.624 214.379 163.624C214.742 163.624 215.099 163.592 215.451 163.528C215.814 163.453 216.139 163.325 216.427 163.144C216.715 162.963 216.944 162.707 217.115 162.376C217.296 162.045 217.387 161.624 217.387 161.112C217.387 160.675 217.302 160.312 217.131 160.024C216.971 159.725 216.752 159.491 216.475 159.32C216.208 159.139 215.904 159.011 215.563 158.936C215.222 158.861 214.88 158.824 214.539 158.824Z" fill="#4D87AB"/>
<path d="M219.03 165.88H218.238V165H219.03V164.088L220.07 163.792V165H222.166V165.88H220.07V167.024C220.07 167.435 220.147 167.733 220.302 167.92C220.456 168.101 220.672 168.192 220.95 168.192C221.094 168.192 221.224 168.176 221.342 168.144C221.459 168.107 221.563 168.061 221.654 168.008C221.75 167.955 221.835 167.896 221.91 167.832C221.99 167.768 222.062 167.709 222.126 167.656L222.606 168.376C222.515 168.483 222.4 168.581 222.262 168.672C222.128 168.757 221.982 168.835 221.822 168.904C221.667 168.968 221.504 169.019 221.334 169.056C221.163 169.093 220.995 169.112 220.83 169.112C220.232 169.112 219.782 168.947 219.478 168.616C219.179 168.28 219.03 167.749 219.03 167.024V165.88Z" fill="#4D87AB"/>
<path d="M136.803 214.912C137.208 214.816 137.646 214.752 138.115 214.72C138.584 214.688 139.048 214.672 139.507 214.672C139.998 214.672 140.494 214.72 140.995 214.816C141.507 214.912 141.971 215.088 142.387 215.344C142.803 215.6 143.139 215.952 143.395 216.4C143.662 216.848 143.795 217.419 143.795 218.112C143.795 218.795 143.672 219.371 143.427 219.84C143.182 220.309 142.856 220.693 142.451 220.992C142.046 221.28 141.582 221.488 141.059 221.616C140.536 221.744 139.998 221.808 139.443 221.808C139.39 221.808 139.299 221.808 139.171 221.808C139.054 221.808 138.926 221.808 138.787 221.808C138.659 221.797 138.531 221.787 138.403 221.776C138.275 221.765 138.184 221.755 138.131 221.744V226H136.803V214.912ZM139.539 215.824C139.262 215.824 138.995 215.829 138.739 215.84C138.483 215.851 138.28 215.877 138.131 215.92V220.56C138.184 220.581 138.27 220.597 138.387 220.608C138.504 220.608 138.627 220.613 138.755 220.624C138.883 220.624 139.006 220.624 139.123 220.624C139.24 220.624 139.326 220.624 139.379 220.624C139.742 220.624 140.099 220.592 140.451 220.528C140.814 220.453 141.139 220.325 141.427 220.144C141.715 219.963 141.944 219.707 142.115 219.376C142.296 219.045 142.387 218.624 142.387 218.112C142.387 217.675 142.302 217.312 142.131 217.024C141.971 216.725 141.752 216.491 141.475 216.32C141.208 216.139 140.904 216.011 140.563 215.936C140.222 215.861 139.88 215.824 139.539 215.824Z" fill="#4D87AB"/>
<path d="M145.086 225.232C145.262 225.232 145.422 225.211 145.566 225.168C145.715 225.12 145.84 225.056 145.942 224.976C146.048 224.891 146.131 224.795 146.19 224.688C146.248 224.576 146.278 224.456 146.278 224.328C146.278 224.168 146.243 224.035 146.174 223.928C146.11 223.816 146.019 223.728 145.902 223.664C145.784 223.6 145.643 223.555 145.478 223.528C145.312 223.501 145.134 223.488 144.942 223.488H144.494V222.92L145.838 221.28H143.814V220.4H147.078V221.128L145.67 222.736H145.854C146.04 222.736 146.222 222.768 146.398 222.832C146.574 222.896 146.728 222.992 146.862 223.12C147 223.248 147.11 223.408 147.19 223.6C147.275 223.792 147.318 224.013 147.318 224.264C147.318 224.568 147.254 224.835 147.126 225.064C147.003 225.293 146.838 225.488 146.63 225.648C146.427 225.803 146.192 225.92 145.926 226C145.659 226.075 145.384 226.112 145.102 226.112C144.862 226.112 144.622 226.091 144.382 226.048C144.142 226.005 143.91 225.939 143.686 225.848L143.966 224.984C144.014 225.011 144.078 225.037 144.158 225.064C144.243 225.091 144.336 225.117 144.438 225.144C144.544 225.171 144.651 225.192 144.758 225.208C144.87 225.224 144.979 225.232 145.086 225.232Z" fill="#4D87AB"/>
<rect x="0.5" y="0.5" width="239" height="239" stroke="#E2DAD2"/>
</svg>
